M48
; DRILL file {KiCad 9.0.4} date 2025-08-23T10:29:56+0200
; FORMAT={-:-/ absolute / metric / decimal}
; #@! TF.CreationDate,2025-08-23T10:29:56+02:00
; #@! TF.GenerationSoftware,Kicad,Pcbnew,9.0.4
; #@! TF.FileFunction,Plated,1,2,PTH
FMAT,2
METRIC
; #@! TA.AperFunction,Plated,PTH,ViaDrill
T1C0.300
; #@! TA.AperFunction,Plated,PTH,ComponentDrill
T2C0.800
; #@! TA.AperFunction,Plated,PTH,ComponentDrill
T3C1.000
; #@! TA.AperFunction,Plated,PTH,ComponentDrill
T4C1.100
; #@! TA.AperFunction,Plated,PTH,ComponentDrill
T5C1.500
%
G90
G05
T1
X136.98Y-77.0
X147.247Y-76.286
X147.689Y-80.096
X148.067Y-77.108
X153.125Y-74.825
X153.784Y-85.344
X156.05Y-86.424
T2
X151.19Y-69.75
X158.81Y-69.75
X161.19Y-69.75
X165.69Y-90.0
X168.81Y-69.75
X173.31Y-90.0
X175.38Y-79.5
X183.0Y-79.5
X185.0Y-69.0
X185.0Y-76.62
X185.0Y-82.88
X185.0Y-90.5
X185.88Y-79.5
X193.5Y-79.5
T3
X137.5Y-82.11
X137.5Y-84.65
X137.5Y-87.19
X137.5Y-89.73
X142.42Y-89.73
X142.46Y-70.02
X144.96Y-89.73
X145.0Y-70.02
X147.5Y-89.73
X147.54Y-70.02
X150.04Y-89.73
X154.0Y-77.25
X154.0Y-79.75
X154.0Y-82.25
X154.46Y-89.73
X157.0Y-89.73
X159.54Y-89.73
X162.08Y-89.73
X168.5Y-77.25
X168.5Y-82.25
T4
X177.0Y-69.5
X177.0Y-76.0
X177.0Y-83.5
X177.0Y-90.0
X181.5Y-69.5
X181.5Y-76.0
X181.5Y-83.5
X181.5Y-90.0
X188.5Y-69.5
X188.5Y-76.0
X188.5Y-83.5
X188.5Y-90.0
X193.0Y-69.5
X193.0Y-76.0
X193.0Y-83.5
X193.0Y-90.0
T5
G00X160.85Y-74.15
M15
G01X162.15Y-74.15
M16
G05
G00X160.85Y-85.35
M15
G01X162.15Y-85.35
M16
G05
M30
