%TF.GenerationSoftware,KiCad,Pcbnew,9.0.4*%
%TF.CreationDate,2025-08-23T10:29:59+02:00*%
%TF.ProjectId,i2c_hid,6932635f-6869-4642-9e6b-696361645f70,rev?*%
%TF.SameCoordinates,Original*%
%TF.FileFunction,Copper,L2,Bot*%
%TF.FilePolarity,Positive*%
%FSLAX46Y46*%
G04 Gerber Fmt 4.6, Leading zero omitted, Abs format (unit mm)*
G04 Created by KiCad (PCBNEW 9.0.4) date 2025-08-23 10:29:59*
%MOMM*%
%LPD*%
G01*
G04 APERTURE LIST*
%TA.AperFunction,ComponentPad*%
%ADD10R,2.000000X2.000000*%
%TD*%
%TA.AperFunction,ComponentPad*%
%ADD11C,2.000000*%
%TD*%
%TA.AperFunction,ComponentPad*%
%ADD12R,3.200000X2.000000*%
%TD*%
%TA.AperFunction,ComponentPad*%
%ADD13C,1.600000*%
%TD*%
%TA.AperFunction,ComponentPad*%
%ADD14R,1.700000X1.700000*%
%TD*%
%TA.AperFunction,ComponentPad*%
%ADD15C,1.700000*%
%TD*%
%TA.AperFunction,ViaPad*%
%ADD16C,0.600000*%
%TD*%
%TA.AperFunction,Conductor*%
%ADD17C,0.200000*%
%TD*%
G04 APERTURE END LIST*
D10*
%TO.P,SW1,A,A*%
%TO.N,Net-(U1-PA1)*%
X154000000Y-77250000D03*
D11*
%TO.P,SW1,B,B*%
%TO.N,Net-(U1-PA2)*%
X154000000Y-82250000D03*
%TO.P,SW1,C,C*%
%TO.N,GND*%
X154000000Y-79750000D03*
D12*
%TO.P,SW1,MP*%
%TO.N,N/C*%
X161500000Y-74150000D03*
X161500000Y-85350000D03*
D11*
%TO.P,SW1,S1,S1*%
%TO.N,GND*%
X168500000Y-82250000D03*
%TO.P,SW1,S2,S2*%
%TO.N,Net-(U1-PA3)*%
X168500000Y-77250000D03*
%TD*%
D13*
%TO.P,R9,1*%
%TO.N,VCC*%
X185000000Y-82880000D03*
%TO.P,R9,2*%
%TO.N,Net-(U1-PC2)*%
X185000000Y-90500000D03*
%TD*%
%TO.P,R8,1*%
%TO.N,VCC*%
X185000000Y-69000000D03*
%TO.P,R8,2*%
%TO.N,Net-(U1-PC1)*%
X185000000Y-76620000D03*
%TD*%
D11*
%TO.P,SW6,1,1*%
%TO.N,GND*%
X181500000Y-83500000D03*
X181500000Y-90000000D03*
%TO.P,SW6,2,2*%
%TO.N,Net-(U1-PC3)*%
X177000000Y-83500000D03*
X177000000Y-90000000D03*
%TD*%
D14*
%TO.P,J2,1,Pin_1*%
%TO.N,GND*%
X137500000Y-82110000D03*
D15*
%TO.P,J2,2,Pin_2*%
%TO.N,VCC*%
X137500000Y-84650000D03*
%TO.P,J2,3,Pin_3*%
%TO.N,Net-(J2-Pin_3)*%
X137500000Y-87190000D03*
%TO.P,J2,4,Pin_4*%
%TO.N,Net-(J2-Pin_4)*%
X137500000Y-89730000D03*
%TD*%
D13*
%TO.P,R10,1*%
%TO.N,VCC*%
X183000000Y-79500000D03*
%TO.P,R10,2*%
%TO.N,Net-(U1-PC3)*%
X175380000Y-79500000D03*
%TD*%
%TO.P,R3,1*%
%TO.N,VCC*%
X161190000Y-69750000D03*
%TO.P,R3,2*%
%TO.N,Net-(U1-PA3)*%
X168810000Y-69750000D03*
%TD*%
%TO.P,R2,1*%
%TO.N,VCC*%
X173310000Y-90000000D03*
%TO.P,R2,2*%
%TO.N,Net-(U1-PA2)*%
X165690000Y-90000000D03*
%TD*%
%TO.P,R1,1*%
%TO.N,VCC*%
X151190000Y-69750000D03*
%TO.P,R1,2*%
%TO.N,Net-(U1-PA1)*%
X158810000Y-69750000D03*
%TD*%
%TO.P,R7,1*%
%TO.N,VCC*%
X193500000Y-79500000D03*
%TO.P,R7,2*%
%TO.N,Net-(U1-PC0)*%
X185880000Y-79500000D03*
%TD*%
D14*
%TO.P,J4,1,Pin_1*%
%TO.N,GND*%
X154460000Y-89730000D03*
D15*
%TO.P,J4,2,Pin_2*%
%TO.N,VCC*%
X157000000Y-89730000D03*
%TO.P,J4,3,Pin_3*%
%TO.N,Net-(J4-Pin_3)*%
X159540000Y-89730000D03*
%TO.P,J4,4,Pin_4*%
%TO.N,Net-(J4-Pin_4)*%
X162080000Y-89730000D03*
%TD*%
D14*
%TO.P,J3,1,Pin_1*%
%TO.N,GND*%
X150040000Y-89730000D03*
D15*
%TO.P,J3,2,Pin_2*%
%TO.N,VCC*%
X147500000Y-89730000D03*
%TO.P,J3,3,Pin_3*%
%TO.N,Net-(J3-Pin_3)*%
X144960000Y-89730000D03*
%TO.P,J3,4,Pin_4*%
%TO.N,Net-(J3-Pin_4)*%
X142420000Y-89730000D03*
%TD*%
D11*
%TO.P,SW4,1,1*%
%TO.N,GND*%
X188500000Y-76000000D03*
X188500000Y-69500000D03*
%TO.P,SW4,2,2*%
%TO.N,Net-(U1-PC1)*%
X193000000Y-76000000D03*
X193000000Y-69500000D03*
%TD*%
%TO.P,SW5,1,1*%
%TO.N,GND*%
X193000000Y-83500000D03*
X193000000Y-90000000D03*
%TO.P,SW5,2,2*%
%TO.N,Net-(U1-PC2)*%
X188500000Y-83500000D03*
X188500000Y-90000000D03*
%TD*%
D14*
%TO.P,J1,1,Pin_1*%
%TO.N,VCC*%
X142460000Y-70020000D03*
D15*
%TO.P,J1,2,Pin_2*%
%TO.N,GND*%
X145000000Y-70020000D03*
%TO.P,J1,3,Pin_3*%
%TO.N,Net-(J1-Pin_3)*%
X147540000Y-70020000D03*
%TD*%
D11*
%TO.P,SW2,1,1*%
%TO.N,GND*%
X177000000Y-76000000D03*
X177000000Y-69500000D03*
%TO.P,SW2,2,2*%
%TO.N,Net-(U1-PC0)*%
X181500000Y-76000000D03*
X181500000Y-69500000D03*
%TD*%
D16*
%TO.N,Net-(J4-Pin_3)*%
X156050000Y-86423900D03*
%TO.N,Net-(U1-PC3)*%
X153125100Y-74825000D03*
X147689200Y-80095500D03*
%TO.N,Net-(U1-PA1)*%
X148067300Y-77108200D03*
%TO.N,Net-(J2-Pin_4)*%
X153783600Y-85344300D03*
%TO.N,VCC*%
X136980000Y-77000000D03*
%TO.N,Net-(J1-Pin_3)*%
X147247100Y-76286400D03*
%TD*%
D17*
%TO.N,Net-(J4-Pin_3)*%
X156233900Y-86423900D02*
X159540000Y-89730000D01*
X156050000Y-86423900D02*
X156233900Y-86423900D01*
%TO.N,Net-(U1-PC3)*%
X175380000Y-81880000D02*
X175380000Y-79500000D01*
X177000000Y-83500000D02*
X175380000Y-81880000D01*
X177000000Y-83500000D02*
X177000000Y-90000000D01*
X147854600Y-80095500D02*
X147689200Y-80095500D01*
X153125100Y-74825000D02*
X147854600Y-80095500D01*
%TO.N,Net-(U1-PC2)*%
X188500000Y-83500000D02*
X188500000Y-90000000D01*
%TO.N,Net-(U1-PC1)*%
X193000000Y-76000000D02*
X193000000Y-69500000D01*
%TO.N,Net-(U1-PC0)*%
X181500000Y-69500000D02*
X181500000Y-76000000D01*
X182380000Y-76000000D02*
X185880000Y-79500000D01*
X181500000Y-76000000D02*
X182380000Y-76000000D01*
%TO.N,Net-(U1-PA3)*%
X168810000Y-76940000D02*
X168810000Y-69750000D01*
X168500000Y-77250000D02*
X168810000Y-76940000D01*
%TO.N,Net-(U1-PA2)*%
X162666300Y-86976300D02*
X165690000Y-90000000D01*
X158726300Y-86976300D02*
X162666300Y-86976300D01*
X154000000Y-82250000D02*
X158726300Y-86976300D01*
%TO.N,Net-(U1-PA1)*%
X158810000Y-69750000D02*
X154000000Y-74560000D01*
X154000000Y-77250000D02*
X154000000Y-74560000D01*
X151184700Y-73990800D02*
X148067300Y-77108200D01*
X153430800Y-73990800D02*
X151184700Y-73990800D01*
X154000000Y-74560000D02*
X153430800Y-73990800D01*
%TO.N,Net-(J2-Pin_4)*%
X151391700Y-87736200D02*
X153783600Y-85344300D01*
X151391700Y-90788500D02*
X151391700Y-87736200D01*
X151031600Y-91148600D02*
X151391700Y-90788500D01*
X138918600Y-91148600D02*
X151031600Y-91148600D01*
X137500000Y-89730000D02*
X138918600Y-91148600D01*
%TO.N,VCC*%
X142460000Y-70020000D02*
X142460000Y-71371700D01*
X142420000Y-84650000D02*
X137500000Y-84650000D01*
X147500000Y-89730000D02*
X142420000Y-84650000D01*
X186998300Y-70998300D02*
X185000000Y-69000000D01*
X186998300Y-78777400D02*
X186998300Y-70998300D01*
X187183900Y-78963000D02*
X186998300Y-78777400D01*
X187183900Y-80048600D02*
X187183900Y-78963000D01*
X185732500Y-81500000D02*
X187183900Y-80048600D01*
X185000000Y-81500000D02*
X185732500Y-81500000D01*
X183000000Y-79500000D02*
X185000000Y-81500000D01*
X185000000Y-81500000D02*
X185000000Y-82880000D01*
X136148300Y-77831700D02*
X136980000Y-77000000D01*
X136148300Y-83298300D02*
X136148300Y-77831700D01*
X137500000Y-84650000D02*
X136148300Y-83298300D01*
X136980000Y-76851700D02*
X136980000Y-77000000D01*
X142460000Y-71371700D02*
X136980000Y-76851700D01*
%TO.N,GND*%
X137500000Y-82110000D02*
X137500000Y-80758300D01*
X177000000Y-76000000D02*
X177000000Y-69500000D01*
X181500000Y-80500000D02*
X177000000Y-76000000D01*
X181500000Y-83500000D02*
X181500000Y-80500000D01*
X188500000Y-69500000D02*
X188500000Y-76000000D01*
X193000000Y-90000000D02*
X193000000Y-83500000D01*
X188535800Y-79035800D02*
X188535800Y-81208700D01*
X188500000Y-79000000D02*
X188535800Y-79035800D01*
X188500000Y-76000000D02*
X188500000Y-79000000D01*
X181500000Y-90000000D02*
X181500000Y-84212200D01*
X181500000Y-84212200D02*
X181500000Y-83500000D01*
X190708700Y-81208700D02*
X193000000Y-83500000D01*
X188535800Y-81208700D02*
X190708700Y-81208700D01*
X185532300Y-84212200D02*
X181500000Y-84212200D01*
X188535800Y-81208700D02*
X185532300Y-84212200D01*
X137500000Y-80758300D02*
X145000000Y-80758300D01*
X145000000Y-80758300D02*
X145000000Y-70020000D01*
X147951700Y-83710000D02*
X145000000Y-80758300D01*
X150040000Y-83710000D02*
X147951700Y-83710000D01*
X154000000Y-79750000D02*
X150040000Y-83710000D01*
X150040000Y-83710000D02*
X150040000Y-89730000D01*
%TO.N,Net-(J1-Pin_3)*%
X147540000Y-75993500D02*
X147540000Y-70020000D01*
X147247100Y-76286400D02*
X147540000Y-75993500D01*
%TD*%
%TA.AperFunction,Conductor*%
%TO.N,GND*%
G36*
X184690614Y-67520185D02*
G01*
X184736369Y-67572989D01*
X184746313Y-67642147D01*
X184717288Y-67705703D01*
X184661894Y-67742431D01*
X184500776Y-67794781D01*
X184318386Y-67887715D01*
X184152786Y-68008028D01*
X184008028Y-68152786D01*
X183887715Y-68318386D01*
X183794781Y-68500776D01*
X183731522Y-68695465D01*
X183699500Y-68897648D01*
X183699500Y-69102351D01*
X183731522Y-69304534D01*
X183794781Y-69499223D01*
X183855349Y-69618092D01*
X183887450Y-69681094D01*
X183887715Y-69681613D01*
X184008028Y-69847213D01*
X184152786Y-69991971D01*
X184268439Y-70075996D01*
X184318390Y-70112287D01*
X184434607Y-70171503D01*
X184500776Y-70205218D01*
X184500778Y-70205218D01*
X184500781Y-70205220D01*
X184605137Y-70239127D01*
X184695465Y-70268477D01*
X184762466Y-70279089D01*
X184897648Y-70300500D01*
X184897649Y-70300500D01*
X185102351Y-70300500D01*
X185102352Y-70300500D01*
X185304534Y-70268477D01*
X185318842Y-70263827D01*
X185388682Y-70261831D01*
X185444842Y-70294077D01*
X186361481Y-71210716D01*
X186394966Y-71272039D01*
X186397800Y-71298397D01*
X186397800Y-75982242D01*
X186378115Y-76049281D01*
X186325311Y-76095036D01*
X186256153Y-76104980D01*
X186192597Y-76075955D01*
X186163315Y-76038537D01*
X186146424Y-76005388D01*
X186112287Y-75938390D01*
X186094889Y-75914443D01*
X185991971Y-75772786D01*
X185847213Y-75628028D01*
X185681613Y-75507715D01*
X185681612Y-75507714D01*
X185681610Y-75507713D01*
X185596804Y-75464502D01*
X185499223Y-75414781D01*
X185304534Y-75351522D01*
X185129995Y-75323878D01*
X185102352Y-75319500D01*
X184897648Y-75319500D01*
X184873329Y-75323351D01*
X184695465Y-75351522D01*
X184500776Y-75414781D01*
X184318386Y-75507715D01*
X184152786Y-75628028D01*
X184008028Y-75772786D01*
X183887715Y-75938386D01*
X183794781Y-76120776D01*
X183748236Y-76264027D01*
X183708798Y-76321702D01*
X183644439Y-76348900D01*
X183575593Y-76336985D01*
X183542624Y-76313389D01*
X183008167Y-75778932D01*
X182974682Y-75717609D01*
X182973381Y-75710688D01*
X182963553Y-75648632D01*
X182956858Y-75628028D01*
X182917765Y-75507713D01*
X182890568Y-75424008D01*
X182890566Y-75424005D01*
X182890566Y-75424003D01*
X182783477Y-75213830D01*
X182783343Y-75213567D01*
X182644517Y-75022490D01*
X182477510Y-74855483D01*
X182327038Y-74746158D01*
X182286431Y-74716655D01*
X182168204Y-74656415D01*
X182117409Y-74608441D01*
X182100500Y-74545931D01*
X182100500Y-70954067D01*
X182120185Y-70887028D01*
X182168205Y-70843582D01*
X182286433Y-70783343D01*
X182477510Y-70644517D01*
X182644517Y-70477510D01*
X182783343Y-70286433D01*
X182890568Y-70075992D01*
X182963553Y-69851368D01*
X182967411Y-69827007D01*
X183000500Y-69618097D01*
X183000500Y-69381902D01*
X182963553Y-69148631D01*
X182899013Y-68950000D01*
X182890568Y-68924008D01*
X182890566Y-68924005D01*
X182890566Y-68924003D01*
X182833727Y-68812452D01*
X182783343Y-68713567D01*
X182644517Y-68522490D01*
X182477510Y-68355483D01*
X182286433Y-68216657D01*
X182075996Y-68109433D01*
X181851368Y-68036446D01*
X181618097Y-67999500D01*
X181618092Y-67999500D01*
X181381908Y-67999500D01*
X181381903Y-67999500D01*
X181148631Y-68036446D01*
X180924003Y-68109433D01*
X180713566Y-68216657D01*
X180630047Y-68277338D01*
X180522490Y-68355483D01*
X180522488Y-68355485D01*
X180522487Y-68355485D01*
X180355485Y-68522487D01*
X180355485Y-68522488D01*
X180355483Y-68522490D01*
X180339288Y-68544781D01*
X180216657Y-68713566D01*
X180109433Y-68924003D01*
X180036446Y-69148631D01*
X179999500Y-69381902D01*
X179999500Y-69618097D01*
X180036446Y-69851368D01*
X180109433Y-70075996D01*
X180204122Y-70261831D01*
X180216657Y-70286433D01*
X180355483Y-70477510D01*
X180522490Y-70644517D01*
X180656615Y-70741965D01*
X180713568Y-70783344D01*
X180753946Y-70803917D01*
X180831794Y-70843582D01*
X180882590Y-70891556D01*
X180899500Y-70954067D01*
X180899500Y-74545931D01*
X180879815Y-74612970D01*
X180831796Y-74656415D01*
X180713568Y-74716655D01*
X180586833Y-74808735D01*
X180522490Y-74855483D01*
X180522488Y-74855485D01*
X180522487Y-74855485D01*
X180355485Y-75022487D01*
X180355485Y-75022488D01*
X180355483Y-75022490D01*
X180295862Y-75104550D01*
X180216657Y-75213566D01*
X180109433Y-75424003D01*
X180036446Y-75648631D01*
X179999500Y-75881902D01*
X179999500Y-76118097D01*
X180036446Y-76351368D01*
X180109433Y-76575996D01*
X180184006Y-76722352D01*
X180216657Y-76786433D01*
X180355483Y-76977510D01*
X180522490Y-77144517D01*
X180713567Y-77283343D01*
X180753944Y-77303916D01*
X180924003Y-77390566D01*
X180924005Y-77390566D01*
X180924008Y-77390568D01*
X181035069Y-77426654D01*
X181148631Y-77463553D01*
X181381903Y-77500500D01*
X181381908Y-77500500D01*
X181618097Y-77500500D01*
X181851368Y-77463553D01*
X181852870Y-77463065D01*
X182075992Y-77390568D01*
X182286433Y-77283343D01*
X182477510Y-77144517D01*
X182488715Y-77133312D01*
X182550038Y-77099827D01*
X182619730Y-77104811D01*
X182664077Y-77133312D01*
X183617389Y-78086624D01*
X183650874Y-78147947D01*
X183645890Y-78217639D01*
X183604018Y-78273572D01*
X183538554Y-78297989D01*
X183491390Y-78292236D01*
X183304536Y-78231523D01*
X183142898Y-78205922D01*
X183102352Y-78199500D01*
X182897648Y-78199500D01*
X182873329Y-78203351D01*
X182695465Y-78231522D01*
X182500776Y-78294781D01*
X182318386Y-78387715D01*
X182152786Y-78508028D01*
X182152782Y-78508032D01*
X182008035Y-78652780D01*
X182008028Y-78652786D01*
X181887715Y-78818386D01*
X181794781Y-79000776D01*
X181731522Y-79195465D01*
X181699500Y-79397648D01*
X181699500Y-79602351D01*
X181731522Y-79804534D01*
X181794781Y-79999223D01*
X181858691Y-80124653D01*
X181872200Y-80151165D01*
X181887715Y-80181613D01*
X182008028Y-80347213D01*
X182152786Y-80491971D01*
X182307749Y-80604556D01*
X182318390Y-80612287D01*
X182399499Y-80653614D01*
X182500776Y-80705218D01*
X182500778Y-80705218D01*
X182500781Y-80705220D01*
X182537926Y-80717289D01*
X182695465Y-80768477D01*
X182729408Y-80773853D01*
X182897648Y-80800500D01*
X182897649Y-80800500D01*
X183102351Y-80800500D01*
X183102352Y-80800500D01*
X183304534Y-80768477D01*
X183318842Y-80763827D01*
X183388682Y-80761831D01*
X183444842Y-80794077D01*
X184273698Y-81622933D01*
X184307183Y-81684256D01*
X184302199Y-81753948D01*
X184260327Y-81809881D01*
X184258902Y-81810932D01*
X184152787Y-81888028D01*
X184152782Y-81888032D01*
X184008028Y-82032786D01*
X183887715Y-82198386D01*
X183794781Y-82380776D01*
X183731522Y-82575465D01*
X183699500Y-82777648D01*
X183699500Y-82982351D01*
X183731522Y-83184534D01*
X183794781Y-83379223D01*
X183887715Y-83561613D01*
X184008028Y-83727213D01*
X184152786Y-83871971D01*
X184275899Y-83961416D01*
X184318390Y-83992287D01*
X184392043Y-84029815D01*
X184500776Y-84085218D01*
X184500778Y-84085218D01*
X184500781Y-84085220D01*
X184569857Y-84107664D01*
X184695465Y-84148477D01*
X184796557Y-84164488D01*
X184897648Y-84180500D01*
X184897649Y-84180500D01*
X185102351Y-84180500D01*
X185102352Y-84180500D01*
X185304534Y-84148477D01*
X185499219Y-84085220D01*
X185681610Y-83992287D01*
X185774590Y-83924732D01*
X185847213Y-83871971D01*
X185847215Y-83871968D01*
X185847219Y-83871966D01*
X185991966Y-83727219D01*
X185991968Y-83727215D01*
X185991971Y-83727213D01*
X186054921Y-83640568D01*
X186112287Y-83561610D01*
X186203853Y-83381902D01*
X186999500Y-83381902D01*
X186999500Y-83618097D01*
X187036446Y-83851368D01*
X187109433Y-84075996D01*
X187214033Y-84281284D01*
X187216657Y-84286433D01*
X187355483Y-84477510D01*
X187522490Y-84644517D01*
X187575119Y-84682754D01*
X187713568Y-84783344D01*
X187788177Y-84821358D01*
X187831794Y-84843582D01*
X187882590Y-84891556D01*
X187899500Y-84954067D01*
X187899500Y-88545931D01*
X187879815Y-88612970D01*
X187831796Y-88656415D01*
X187713568Y-88716655D01*
X187630044Y-88777340D01*
X187522490Y-88855483D01*
X187522488Y-88855485D01*
X187522487Y-88855485D01*
X187355485Y-89022487D01*
X187355485Y-89022488D01*
X187355483Y-89022490D01*
X187316607Y-89075998D01*
X187216657Y-89213566D01*
X187109433Y-89424003D01*
X187036446Y-89648631D01*
X186999500Y-89881902D01*
X186999500Y-90118097D01*
X187036446Y-90351368D01*
X187109433Y-90575996D01*
X187203242Y-90760104D01*
X187216657Y-90786433D01*
X187355483Y-90977510D01*
X187522490Y-91144517D01*
X187713567Y-91283343D01*
X187747240Y-91300500D01*
X187924003Y-91390566D01*
X187924005Y-91390566D01*
X187924008Y-91390568D01*
X188044412Y-91429689D01*
X188148631Y-91463553D01*
X188381903Y-91500500D01*
X188381908Y-91500500D01*
X188618097Y-91500500D01*
X188851368Y-91463553D01*
X188852870Y-91463065D01*
X189075992Y-91390568D01*
X189286433Y-91283343D01*
X189477510Y-91144517D01*
X189644517Y-90977510D01*
X189783343Y-90786433D01*
X189890568Y-90575992D01*
X189963553Y-90351368D01*
X189970971Y-90304534D01*
X190000500Y-90118097D01*
X190000500Y-89881947D01*
X191500000Y-89881947D01*
X191500000Y-90118052D01*
X191536934Y-90351247D01*
X191609897Y-90575802D01*
X191717087Y-90786174D01*
X191777338Y-90869104D01*
X191777340Y-90869105D01*
X192476212Y-90170233D01*
X192487482Y-90212292D01*
X192559890Y-90337708D01*
X192662292Y-90440110D01*
X192787708Y-90512518D01*
X192829765Y-90523787D01*
X192130893Y-91222658D01*
X192213828Y-91282914D01*
X192424197Y-91390102D01*
X192648752Y-91463065D01*
X192648751Y-91463065D01*
X192881948Y-91500000D01*
X193118052Y-91500000D01*
X193351247Y-91463065D01*
X193575802Y-91390102D01*
X193786163Y-91282918D01*
X193786169Y-91282914D01*
X193869104Y-91222658D01*
X193869105Y-91222658D01*
X193170233Y-90523787D01*
X193212292Y-90512518D01*
X193337708Y-90440110D01*
X193440110Y-90337708D01*
X193512518Y-90212292D01*
X193523787Y-90170233D01*
X194222658Y-90869105D01*
X194222658Y-90869104D01*
X194282914Y-90786169D01*
X194282918Y-90786163D01*
X194390102Y-90575802D01*
X194463065Y-90351247D01*
X194500000Y-90118052D01*
X194500000Y-89881947D01*
X194463065Y-89648752D01*
X194390102Y-89424197D01*
X194282914Y-89213828D01*
X194222658Y-89130894D01*
X194222658Y-89130893D01*
X193523787Y-89829765D01*
X193512518Y-89787708D01*
X193440110Y-89662292D01*
X193337708Y-89559890D01*
X193212292Y-89487482D01*
X193170234Y-89476212D01*
X193869105Y-88777340D01*
X193869104Y-88777338D01*
X193786174Y-88717087D01*
X193575802Y-88609897D01*
X193351247Y-88536934D01*
X193351248Y-88536934D01*
X193118052Y-88500000D01*
X192881948Y-88500000D01*
X192648752Y-88536934D01*
X192424197Y-88609897D01*
X192213830Y-88717084D01*
X192130894Y-88777340D01*
X192829766Y-89476212D01*
X192787708Y-89487482D01*
X192662292Y-89559890D01*
X192559890Y-89662292D01*
X192487482Y-89787708D01*
X192476212Y-89829766D01*
X191777340Y-89130894D01*
X191717084Y-89213830D01*
X191609897Y-89424197D01*
X191536934Y-89648752D01*
X191500000Y-89881947D01*
X190000500Y-89881947D01*
X190000500Y-89881902D01*
X189963553Y-89648631D01*
X189915513Y-89500781D01*
X189890568Y-89424008D01*
X189890566Y-89424005D01*
X189890566Y-89424003D01*
X189834002Y-89312991D01*
X189783343Y-89213567D01*
X189644517Y-89022490D01*
X189477510Y-88855483D01*
X189316035Y-88738164D01*
X189286431Y-88716655D01*
X189168204Y-88656415D01*
X189117409Y-88608441D01*
X189100500Y-88545931D01*
X189100500Y-84954067D01*
X189120185Y-84887028D01*
X189168205Y-84843582D01*
X189286433Y-84783343D01*
X189477510Y-84644517D01*
X189644517Y-84477510D01*
X189783343Y-84286433D01*
X189890568Y-84075992D01*
X189963553Y-83851368D01*
X189975043Y-83778821D01*
X190000500Y-83618097D01*
X190000500Y-83381947D01*
X191500000Y-83381947D01*
X191500000Y-83618052D01*
X191536934Y-83851247D01*
X191609897Y-84075802D01*
X191717087Y-84286174D01*
X191777338Y-84369104D01*
X191777340Y-84369105D01*
X192476212Y-83670233D01*
X192487482Y-83712292D01*
X192559890Y-83837708D01*
X192662292Y-83940110D01*
X192787708Y-84012518D01*
X192829765Y-84023787D01*
X192130893Y-84722658D01*
X192213828Y-84782914D01*
X192424197Y-84890102D01*
X192648752Y-84963065D01*
X192648751Y-84963065D01*
X192881948Y-85000000D01*
X193118052Y-85000000D01*
X193351247Y-84963065D01*
X193575802Y-84890102D01*
X193786163Y-84782918D01*
X193786169Y-84782914D01*
X193869104Y-84722658D01*
X193869105Y-84722658D01*
X193170233Y-84023787D01*
X193212292Y-84012518D01*
X193337708Y-83940110D01*
X193440110Y-83837708D01*
X193512518Y-83712292D01*
X193523787Y-83670233D01*
X194222658Y-84369105D01*
X194222658Y-84369104D01*
X194282914Y-84286169D01*
X194282918Y-84286163D01*
X194390102Y-84075802D01*
X194463065Y-83851247D01*
X194500000Y-83618052D01*
X194500000Y-83381947D01*
X194463065Y-83148752D01*
X194390102Y-82924197D01*
X194282914Y-82713828D01*
X194222658Y-82630894D01*
X194222658Y-82630893D01*
X193523787Y-83329765D01*
X193512518Y-83287708D01*
X193440110Y-83162292D01*
X193337708Y-83059890D01*
X193212292Y-82987482D01*
X193170234Y-82976212D01*
X193869105Y-82277340D01*
X193869104Y-82277338D01*
X193786174Y-82217087D01*
X193575802Y-82109897D01*
X193351247Y-82036934D01*
X193351248Y-82036934D01*
X193118052Y-82000000D01*
X192881948Y-82000000D01*
X192648752Y-82036934D01*
X192424197Y-82109897D01*
X192213830Y-82217084D01*
X192130894Y-82277340D01*
X192829766Y-82976212D01*
X192787708Y-82987482D01*
X192662292Y-83059890D01*
X192559890Y-83162292D01*
X192487482Y-83287708D01*
X192476212Y-83329766D01*
X191777340Y-82630894D01*
X191717084Y-82713830D01*
X191609897Y-82924197D01*
X191536934Y-83148752D01*
X191500000Y-83381947D01*
X190000500Y-83381947D01*
X190000500Y-83381902D01*
X189963553Y-83148631D01*
X189917808Y-83007844D01*
X189890568Y-82924008D01*
X189890566Y-82924005D01*
X189890566Y-82924003D01*
X189815994Y-82777648D01*
X189783343Y-82713567D01*
X189644517Y-82522490D01*
X189477510Y-82355483D01*
X189286433Y-82216657D01*
X189250574Y-82198386D01*
X189075996Y-82109433D01*
X188851368Y-82036446D01*
X188618097Y-81999500D01*
X188618092Y-81999500D01*
X188381908Y-81999500D01*
X188381903Y-81999500D01*
X188148631Y-82036446D01*
X187924003Y-82109433D01*
X187713566Y-82216657D01*
X187667674Y-82250000D01*
X187522490Y-82355483D01*
X187522488Y-82355485D01*
X187522487Y-82355485D01*
X187355485Y-82522487D01*
X187355485Y-82522488D01*
X187355483Y-82522490D01*
X187330405Y-82557007D01*
X187216657Y-82713566D01*
X187109433Y-82924003D01*
X187036446Y-83148631D01*
X186999500Y-83381902D01*
X186203853Y-83381902D01*
X186205220Y-83379219D01*
X186268477Y-83184534D01*
X186300500Y-82982352D01*
X186300500Y-82777648D01*
X186272579Y-82601362D01*
X186268477Y-82575465D01*
X186225434Y-82442993D01*
X186205220Y-82380781D01*
X186205218Y-82380778D01*
X186205218Y-82380776D01*
X186112288Y-82198392D01*
X186112284Y-82198386D01*
X186077691Y-82150772D01*
X186066137Y-82118389D01*
X186054288Y-82086179D01*
X186054424Y-82085564D01*
X186054213Y-82084971D01*
X186061994Y-82051506D01*
X186069448Y-82017974D01*
X186069919Y-82017425D01*
X186070038Y-82016917D01*
X186090726Y-81989815D01*
X186098554Y-81982056D01*
X186101216Y-81980520D01*
X186213020Y-81868716D01*
X186213021Y-81868713D01*
X187664420Y-80417316D01*
X187743477Y-80280384D01*
X187784401Y-80127657D01*
X187784401Y-79969542D01*
X187784401Y-79961947D01*
X187784400Y-79961929D01*
X187784400Y-79052059D01*
X187784401Y-79052046D01*
X187784401Y-78883945D01*
X187784401Y-78883943D01*
X187743477Y-78731215D01*
X187698193Y-78652781D01*
X187664420Y-78594284D01*
X187628303Y-78558167D01*
X187622622Y-78550379D01*
X187613943Y-78526203D01*
X187601634Y-78503660D01*
X187599830Y-78486887D01*
X187599016Y-78484618D01*
X187599405Y-78482930D01*
X187598800Y-78477302D01*
X187598800Y-77426654D01*
X187618485Y-77359615D01*
X187671289Y-77313860D01*
X187740447Y-77303916D01*
X187779095Y-77316169D01*
X187924197Y-77390102D01*
X188148752Y-77463065D01*
X188148751Y-77463065D01*
X188381948Y-77500000D01*
X188618052Y-77500000D01*
X188851247Y-77463065D01*
X189075802Y-77390102D01*
X189286163Y-77282918D01*
X189286169Y-77282914D01*
X189369104Y-77222658D01*
X189369105Y-77222658D01*
X188670234Y-76523787D01*
X188712292Y-76512518D01*
X188837708Y-76440110D01*
X188940110Y-76337708D01*
X189012518Y-76212292D01*
X189023787Y-76170233D01*
X189722658Y-76869105D01*
X189722658Y-76869104D01*
X189782914Y-76786169D01*
X189782918Y-76786163D01*
X189890102Y-76575802D01*
X189963065Y-76351247D01*
X190000000Y-76118052D01*
X190000000Y-75881947D01*
X189963065Y-75648752D01*
X189890102Y-75424197D01*
X189782914Y-75213828D01*
X189722658Y-75130894D01*
X189722658Y-75130893D01*
X189023787Y-75829765D01*
X189012518Y-75787708D01*
X188940110Y-75662292D01*
X188837708Y-75559890D01*
X188712292Y-75487482D01*
X188670233Y-75476212D01*
X189369105Y-74777340D01*
X189369104Y-74777338D01*
X189286174Y-74717087D01*
X189075802Y-74609897D01*
X188851247Y-74536934D01*
X188851248Y-74536934D01*
X188618052Y-74500000D01*
X188381948Y-74500000D01*
X188148752Y-74536934D01*
X187924197Y-74609897D01*
X187779095Y-74683830D01*
X187710425Y-74696726D01*
X187645685Y-74670449D01*
X187605428Y-74613343D01*
X187598800Y-74573345D01*
X187598800Y-71087358D01*
X187598800Y-71077359D01*
X187598801Y-71077357D01*
X187598801Y-70926654D01*
X187618486Y-70859615D01*
X187671290Y-70813860D01*
X187731754Y-70805166D01*
X187740448Y-70803917D01*
X187740449Y-70803917D01*
X187740451Y-70803918D01*
X187779096Y-70816170D01*
X187924197Y-70890102D01*
X188148752Y-70963065D01*
X188148751Y-70963065D01*
X188381948Y-71000000D01*
X188618052Y-71000000D01*
X188851247Y-70963065D01*
X189075802Y-70890102D01*
X189286163Y-70782918D01*
X189286169Y-70782914D01*
X189369104Y-70722658D01*
X189369105Y-70722658D01*
X188670233Y-70023787D01*
X188712292Y-70012518D01*
X188837708Y-69940110D01*
X188940110Y-69837708D01*
X189012518Y-69712292D01*
X189023787Y-69670233D01*
X189722658Y-70369105D01*
X189722658Y-70369104D01*
X189782914Y-70286169D01*
X189782918Y-70286163D01*
X189890102Y-70075802D01*
X189963065Y-69851247D01*
X190000000Y-69618052D01*
X190000000Y-69381947D01*
X189999993Y-69381902D01*
X191499500Y-69381902D01*
X191499500Y-69618097D01*
X191536446Y-69851368D01*
X191609433Y-70075996D01*
X191704122Y-70261831D01*
X191716657Y-70286433D01*
X191855483Y-70477510D01*
X192022490Y-70644517D01*
X192156615Y-70741965D01*
X192213568Y-70783344D01*
X192253946Y-70803917D01*
X192331794Y-70843582D01*
X192382590Y-70891556D01*
X192399500Y-70954067D01*
X192399500Y-74545931D01*
X192379815Y-74612970D01*
X192331796Y-74656415D01*
X192213568Y-74716655D01*
X192086833Y-74808735D01*
X192022490Y-74855483D01*
X192022488Y-74855485D01*
X192022487Y-74855485D01*
X191855485Y-75022487D01*
X191855485Y-75022488D01*
X191855483Y-75022490D01*
X191795862Y-75104550D01*
X191716657Y-75213566D01*
X191609433Y-75424003D01*
X191536446Y-75648631D01*
X191499500Y-75881902D01*
X191499500Y-76118097D01*
X191536446Y-76351368D01*
X191609433Y-76575996D01*
X191684006Y-76722352D01*
X191716657Y-76786433D01*
X191855483Y-76977510D01*
X192022490Y-77144517D01*
X192213567Y-77283343D01*
X192253944Y-77303916D01*
X192424003Y-77390566D01*
X192424005Y-77390566D01*
X192424008Y-77390568D01*
X192535069Y-77426654D01*
X192648631Y-77463553D01*
X192881903Y-77500500D01*
X192881908Y-77500500D01*
X193118097Y-77500500D01*
X193351368Y-77463553D01*
X193352870Y-77463065D01*
X193575992Y-77390568D01*
X193786433Y-77283343D01*
X193977510Y-77144517D01*
X194144517Y-76977510D01*
X194283343Y-76786433D01*
X194390568Y-76575992D01*
X194463553Y-76351368D01*
X194476046Y-76272490D01*
X194500500Y-76118097D01*
X194500500Y-75881902D01*
X194463553Y-75648631D01*
X194417765Y-75507713D01*
X194390568Y-75424008D01*
X194390566Y-75424005D01*
X194390566Y-75424003D01*
X194283477Y-75213830D01*
X194283343Y-75213567D01*
X194144517Y-75022490D01*
X193977510Y-74855483D01*
X193827038Y-74746158D01*
X193786431Y-74716655D01*
X193668204Y-74656415D01*
X193617409Y-74608441D01*
X193600500Y-74545931D01*
X193600500Y-70954067D01*
X193620185Y-70887028D01*
X193668205Y-70843582D01*
X193786433Y-70783343D01*
X193977510Y-70644517D01*
X194144517Y-70477510D01*
X194283343Y-70286433D01*
X194390568Y-70075992D01*
X194463553Y-69851368D01*
X194467411Y-69827007D01*
X194500500Y-69618097D01*
X194500500Y-69381902D01*
X194463553Y-69148631D01*
X194399013Y-68950000D01*
X194390568Y-68924008D01*
X194390566Y-68924005D01*
X194390566Y-68924003D01*
X194333727Y-68812452D01*
X194283343Y-68713567D01*
X194144517Y-68522490D01*
X193977510Y-68355483D01*
X193786433Y-68216657D01*
X193575996Y-68109433D01*
X193351368Y-68036446D01*
X193118097Y-67999500D01*
X193118092Y-67999500D01*
X192881908Y-67999500D01*
X192881903Y-67999500D01*
X192648631Y-68036446D01*
X192424003Y-68109433D01*
X192213566Y-68216657D01*
X192130047Y-68277338D01*
X192022490Y-68355483D01*
X192022488Y-68355485D01*
X192022487Y-68355485D01*
X191855485Y-68522487D01*
X191855485Y-68522488D01*
X191855483Y-68522490D01*
X191839288Y-68544781D01*
X191716657Y-68713566D01*
X191609433Y-68924003D01*
X191536446Y-69148631D01*
X191499500Y-69381902D01*
X189999993Y-69381902D01*
X189963065Y-69148752D01*
X189890102Y-68924197D01*
X189782914Y-68713828D01*
X189722658Y-68630894D01*
X189722658Y-68630893D01*
X189023787Y-69329765D01*
X189012518Y-69287708D01*
X188940110Y-69162292D01*
X188837708Y-69059890D01*
X188712292Y-68987482D01*
X188670234Y-68976212D01*
X189369105Y-68277340D01*
X189369104Y-68277338D01*
X189286174Y-68217087D01*
X189075802Y-68109897D01*
X188851247Y-68036934D01*
X188851248Y-68036934D01*
X188618052Y-68000000D01*
X188381948Y-68000000D01*
X188148752Y-68036934D01*
X187924197Y-68109897D01*
X187713830Y-68217084D01*
X187630894Y-68277340D01*
X188329766Y-68976212D01*
X188287708Y-68987482D01*
X188162292Y-69059890D01*
X188059890Y-69162292D01*
X187987482Y-69287708D01*
X187976212Y-69329766D01*
X187277340Y-68630894D01*
X187217084Y-68713830D01*
X187109897Y-68924197D01*
X187036934Y-69148752D01*
X187000000Y-69381947D01*
X187000000Y-69618052D01*
X187036934Y-69851248D01*
X187039264Y-69858418D01*
X187041259Y-69928260D01*
X187005178Y-69988092D01*
X186942477Y-70018920D01*
X186873063Y-70010955D01*
X186833652Y-69984417D01*
X186294077Y-69444842D01*
X186260592Y-69383519D01*
X186263828Y-69318841D01*
X186265991Y-69312184D01*
X186268477Y-69304534D01*
X186300500Y-69102352D01*
X186300500Y-68897648D01*
X186295321Y-68864949D01*
X186268477Y-68695465D01*
X186219516Y-68544780D01*
X186205220Y-68500781D01*
X186205218Y-68500778D01*
X186205218Y-68500776D01*
X186144134Y-68380894D01*
X186112287Y-68318390D01*
X186112285Y-68318387D01*
X186112284Y-68318385D01*
X185991971Y-68152786D01*
X185847213Y-68008028D01*
X185681613Y-67887715D01*
X185681612Y-67887714D01*
X185681610Y-67887713D01*
X185624653Y-67858691D01*
X185499223Y-67794781D01*
X185338106Y-67742431D01*
X185280431Y-67702993D01*
X185253233Y-67638634D01*
X185265148Y-67569788D01*
X185312392Y-67518312D01*
X185376425Y-67500500D01*
X194625500Y-67500500D01*
X194692539Y-67520185D01*
X194738294Y-67572989D01*
X194749500Y-67624500D01*
X194749500Y-78625613D01*
X194729815Y-78692652D01*
X194677011Y-78738407D01*
X194607853Y-78748351D01*
X194544297Y-78719326D01*
X194525182Y-78698498D01*
X194491971Y-78652786D01*
X194347213Y-78508028D01*
X194181613Y-78387715D01*
X194181612Y-78387714D01*
X194181610Y-78387713D01*
X194122278Y-78357482D01*
X193999223Y-78294781D01*
X193804534Y-78231522D01*
X193629995Y-78203878D01*
X193602352Y-78199500D01*
X193397648Y-78199500D01*
X193373329Y-78203351D01*
X193195465Y-78231522D01*
X193000776Y-78294781D01*
X192818386Y-78387715D01*
X192652786Y-78508028D01*
X192652782Y-78508032D01*
X192508035Y-78652780D01*
X192508028Y-78652786D01*
X192387715Y-78818386D01*
X192294781Y-79000776D01*
X192231522Y-79195465D01*
X192199500Y-79397648D01*
X192199500Y-79602351D01*
X192231522Y-79804534D01*
X192294781Y-79999223D01*
X192358691Y-80124653D01*
X192372200Y-80151165D01*
X192387715Y-80181613D01*
X192508028Y-80347213D01*
X192652786Y-80491971D01*
X192807749Y-80604556D01*
X192818390Y-80612287D01*
X192899499Y-80653614D01*
X193000776Y-80705218D01*
X193000778Y-80705218D01*
X193000781Y-80705220D01*
X193037926Y-80717289D01*
X193195465Y-80768477D01*
X193229408Y-80773853D01*
X193397648Y-80800500D01*
X193397649Y-80800500D01*
X193602351Y-80800500D01*
X193602352Y-80800500D01*
X193804534Y-80768477D01*
X193999219Y-80705220D01*
X194181610Y-80612287D01*
X194274590Y-80544732D01*
X194347213Y-80491971D01*
X194347215Y-80491968D01*
X194347219Y-80491966D01*
X194491966Y-80347219D01*
X194492635Y-80346299D01*
X194525181Y-80301502D01*
X194580510Y-80258836D01*
X194650123Y-80252855D01*
X194711919Y-80285460D01*
X194746277Y-80346299D01*
X194749500Y-80374386D01*
X194749500Y-92375500D01*
X194729815Y-92442539D01*
X194677011Y-92488294D01*
X194625500Y-92499500D01*
X135874500Y-92499500D01*
X135807461Y-92479815D01*
X135761706Y-92427011D01*
X135750500Y-92375500D01*
X135750500Y-84049097D01*
X135770185Y-83982058D01*
X135822989Y-83936303D01*
X135892147Y-83926359D01*
X135955703Y-83955384D01*
X135962181Y-83961416D01*
X136166241Y-84165476D01*
X136199726Y-84226799D01*
X136196492Y-84291473D01*
X136182753Y-84333757D01*
X136159985Y-84477511D01*
X136149500Y-84543713D01*
X136149500Y-84756287D01*
X136159534Y-84819644D01*
X136182250Y-84963065D01*
X136182754Y-84966243D01*
X136232780Y-85120208D01*
X136248444Y-85168414D01*
X136344951Y-85357820D01*
X136469890Y-85529786D01*
X136620213Y-85680109D01*
X136792182Y-85805050D01*
X136800946Y-85809516D01*
X136851742Y-85857491D01*
X136868536Y-85925312D01*
X136845998Y-85991447D01*
X136800946Y-86030484D01*
X136792182Y-86034949D01*
X136620213Y-86159890D01*
X136469890Y-86310213D01*
X136344951Y-86482179D01*
X136248444Y-86671585D01*
X136182753Y-86873760D01*
X136149500Y-87083713D01*
X136149500Y-87296286D01*
X136182463Y-87504410D01*
X136182754Y-87506243D01*
X136243173Y-87692194D01*
X136248444Y-87708414D01*
X136344951Y-87897820D01*
X136469890Y-88069786D01*
X136620213Y-88220109D01*
X136792182Y-88345050D01*
X136800946Y-88349516D01*
X136851742Y-88397491D01*
X136868536Y-88465312D01*
X136845998Y-88531447D01*
X136800946Y-88570484D01*
X136792182Y-88574949D01*
X136620213Y-88699890D01*
X136469890Y-88850213D01*
X136344951Y-89022179D01*
X136248444Y-89211585D01*
X136182753Y-89413760D01*
X136149500Y-89623713D01*
X136149500Y-89836286D01*
X136182753Y-90046239D01*
X136182753Y-90046241D01*
X136182754Y-90046243D01*
X136237431Y-90214522D01*
X136248444Y-90248414D01*
X136344951Y-90437820D01*
X136469890Y-90609786D01*
X136620213Y-90760109D01*
X136792179Y-90885048D01*
X136792181Y-90885049D01*
X136792184Y-90885051D01*
X136981588Y-90981557D01*
X137183757Y-91047246D01*
X137393713Y-91080500D01*
X137393714Y-91080500D01*
X137606286Y-91080500D01*
X137606287Y-91080500D01*
X137816243Y-91047246D01*
X137858523Y-91033507D01*
X137928362Y-91031511D01*
X137984522Y-91063757D01*
X138433739Y-91512974D01*
X138433749Y-91512985D01*
X138438079Y-91517315D01*
X138438080Y-91517316D01*
X138549884Y-91629120D01*
X138549886Y-91629121D01*
X138549890Y-91629124D01*
X138681691Y-91705218D01*
X138686816Y-91708177D01*
X138798619Y-91738134D01*
X138839542Y-91749100D01*
X138839543Y-91749100D01*
X150944931Y-91749100D01*
X150944947Y-91749101D01*
X150952543Y-91749101D01*
X151110654Y-91749101D01*
X151110657Y-91749101D01*
X151263385Y-91708177D01*
X151313504Y-91679239D01*
X151400316Y-91629120D01*
X151512120Y-91517316D01*
X151512120Y-91517314D01*
X151522328Y-91507107D01*
X151522330Y-91507104D01*
X151750206Y-91279228D01*
X151750211Y-91279224D01*
X151760414Y-91269020D01*
X151760416Y-91269020D01*
X151872220Y-91157216D01*
X151935711Y-91047246D01*
X151949505Y-91023354D01*
X151951276Y-91020287D01*
X151951277Y-91020285D01*
X151992200Y-90867558D01*
X151992200Y-90709443D01*
X151992200Y-88036297D01*
X152011885Y-87969258D01*
X152028519Y-87948616D01*
X152893422Y-87083713D01*
X153798262Y-86178872D01*
X153859583Y-86145389D01*
X153861750Y-86144938D01*
X153919685Y-86133413D01*
X154017097Y-86114037D01*
X154162779Y-86053694D01*
X154293889Y-85966089D01*
X154405389Y-85854589D01*
X154492994Y-85723479D01*
X154496710Y-85714509D01*
X154521706Y-85654161D01*
X154553337Y-85577797D01*
X154584100Y-85423142D01*
X154584100Y-85265458D01*
X154584100Y-85265455D01*
X154584099Y-85265453D01*
X154581125Y-85250500D01*
X154553337Y-85110803D01*
X154553335Y-85110798D01*
X154492997Y-84965127D01*
X154492990Y-84965114D01*
X154405389Y-84834011D01*
X154405386Y-84834007D01*
X154293892Y-84722513D01*
X154293888Y-84722510D01*
X154162785Y-84634909D01*
X154162772Y-84634902D01*
X154017101Y-84574564D01*
X154017089Y-84574561D01*
X153862445Y-84543800D01*
X153862442Y-84543800D01*
X153704758Y-84543800D01*
X153704755Y-84543800D01*
X153550110Y-84574561D01*
X153550098Y-84574564D01*
X153404427Y-84634902D01*
X153404414Y-84634909D01*
X153273311Y-84722510D01*
X153273307Y-84722513D01*
X153161813Y-84834007D01*
X153161810Y-84834011D01*
X153074209Y-84965114D01*
X153074202Y-84965127D01*
X153013864Y-85110798D01*
X153013861Y-85110808D01*
X152982961Y-85266150D01*
X152950576Y-85328061D01*
X152949025Y-85329639D01*
X150911181Y-87367482D01*
X150911179Y-87367485D01*
X150861061Y-87454294D01*
X150861059Y-87454296D01*
X150832125Y-87504409D01*
X150832124Y-87504410D01*
X150816244Y-87563672D01*
X150791199Y-87657143D01*
X150791199Y-87657145D01*
X150791199Y-87825246D01*
X150791200Y-87825259D01*
X150791200Y-88256000D01*
X150771515Y-88323039D01*
X150718711Y-88368794D01*
X150667200Y-88380000D01*
X150290000Y-88380000D01*
X150290000Y-89296988D01*
X150232993Y-89264075D01*
X150105826Y-89230000D01*
X149974174Y-89230000D01*
X149847007Y-89264075D01*
X149790000Y-89296988D01*
X149790000Y-88380000D01*
X149142155Y-88380000D01*
X149082627Y-88386401D01*
X149082620Y-88386403D01*
X148947913Y-88436645D01*
X148947906Y-88436649D01*
X148832812Y-88522809D01*
X148832809Y-88522812D01*
X148746649Y-88637906D01*
X148746646Y-88637912D01*
X148697577Y-88769471D01*
X148655705Y-88825404D01*
X148590241Y-88849821D01*
X148521968Y-88834969D01*
X148493714Y-88813818D01*
X148379786Y-88699890D01*
X148207820Y-88574951D01*
X148018414Y-88478444D01*
X148018413Y-88478443D01*
X148018412Y-88478443D01*
X147816243Y-88412754D01*
X147816241Y-88412753D01*
X147816240Y-88412753D01*
X147654957Y-88387208D01*
X147606287Y-88379500D01*
X147393713Y-88379500D01*
X147365006Y-88384046D01*
X147183757Y-88412753D01*
X147141473Y-88426492D01*
X147071632Y-88428486D01*
X147015476Y-88396241D01*
X142907590Y-84288355D01*
X142907588Y-84288352D01*
X142788717Y-84169481D01*
X142788716Y-84169480D01*
X142701904Y-84119360D01*
X142701904Y-84119359D01*
X142701900Y-84119358D01*
X142651785Y-84090423D01*
X142499057Y-84049499D01*
X142340943Y-84049499D01*
X142333347Y-84049499D01*
X142333331Y-84049500D01*
X138785719Y-84049500D01*
X138718680Y-84029815D01*
X138675235Y-83981795D01*
X138655052Y-83942185D01*
X138655051Y-83942184D01*
X138530109Y-83770213D01*
X138416181Y-83656285D01*
X138382696Y-83594962D01*
X138387680Y-83525270D01*
X138429552Y-83469337D01*
X138460529Y-83452422D01*
X138592086Y-83403354D01*
X138592093Y-83403350D01*
X138707187Y-83317190D01*
X138707190Y-83317187D01*
X138793350Y-83202093D01*
X138793354Y-83202086D01*
X138843596Y-83067379D01*
X138843598Y-83067372D01*
X138849999Y-83007844D01*
X138850000Y-83007827D01*
X138850000Y-82360000D01*
X137933012Y-82360000D01*
X137965925Y-82302993D01*
X138000000Y-82175826D01*
X138000000Y-82044174D01*
X137965925Y-81917007D01*
X137933012Y-81860000D01*
X138850000Y-81860000D01*
X138850000Y-81212172D01*
X138849999Y-81212155D01*
X138843598Y-81152627D01*
X138843596Y-81152620D01*
X138793354Y-81017913D01*
X138793350Y-81017906D01*
X138707190Y-80902812D01*
X138707187Y-80902809D01*
X138592093Y-80816649D01*
X138592086Y-80816645D01*
X138457379Y-80766403D01*
X138457372Y-80766401D01*
X138397844Y-80760000D01*
X137750000Y-80760000D01*
X137750000Y-81676988D01*
X137692993Y-81644075D01*
X137565826Y-81610000D01*
X137434174Y-81610000D01*
X137307007Y-81644075D01*
X137250000Y-81676988D01*
X137250000Y-80760000D01*
X136872800Y-80760000D01*
X136805761Y-80740315D01*
X136760006Y-80687511D01*
X136748800Y-80636000D01*
X136748800Y-78131797D01*
X136768485Y-78064758D01*
X136785119Y-78044116D01*
X136882875Y-77946360D01*
X136994662Y-77834572D01*
X137055983Y-77801089D01*
X137058150Y-77800638D01*
X137116085Y-77789113D01*
X137213497Y-77769737D01*
X137359179Y-77709394D01*
X137490289Y-77621789D01*
X137601789Y-77510289D01*
X137689394Y-77379179D01*
X137749737Y-77233497D01*
X137780500Y-77078842D01*
X137780500Y-76951796D01*
X137800185Y-76884757D01*
X137816819Y-76864115D01*
X140180934Y-74500000D01*
X142828713Y-71852221D01*
X142828716Y-71852220D01*
X142940520Y-71740416D01*
X142990639Y-71653604D01*
X143019577Y-71603485D01*
X143058694Y-71457497D01*
X143060405Y-71452717D01*
X143078096Y-71428416D01*
X143093744Y-71402745D01*
X143098449Y-71400459D01*
X143101528Y-71396231D01*
X143129547Y-71385352D01*
X143156591Y-71372216D01*
X143165246Y-71371493D01*
X143166661Y-71370944D01*
X143168162Y-71371249D01*
X143177154Y-71370499D01*
X143357871Y-71370499D01*
X143357872Y-71370499D01*
X143417483Y-71364091D01*
X143552331Y-71313796D01*
X143667546Y-71227546D01*
X143753796Y-71112331D01*
X143804091Y-70977483D01*
X143810500Y-70917873D01*
X143810499Y-70893979D01*
X143813330Y-70880963D01*
X143823940Y-70861525D01*
X143830179Y-70840275D01*
X143846803Y-70819643D01*
X143846808Y-70819636D01*
X143846811Y-70819634D01*
X143846818Y-70819626D01*
X144517037Y-70149408D01*
X144534075Y-70212993D01*
X144599901Y-70327007D01*
X144692993Y-70420099D01*
X144807007Y-70485925D01*
X144870590Y-70502962D01*
X144238282Y-71135269D01*
X144238282Y-71135270D01*
X144292449Y-71174624D01*
X144481782Y-71271095D01*
X144683870Y-71336757D01*
X144893754Y-71370000D01*
X145106246Y-71370000D01*
X145316127Y-71336757D01*
X145316130Y-71336757D01*
X145518217Y-71271095D01*
X145707554Y-71174622D01*
X145761716Y-71135270D01*
X145761717Y-71135270D01*
X145129408Y-70502962D01*
X145192993Y-70485925D01*
X145307007Y-70420099D01*
X145400099Y-70327007D01*
X145465925Y-70212993D01*
X145482962Y-70149408D01*
X146115270Y-70781717D01*
X146115270Y-70781716D01*
X146154622Y-70727555D01*
X146159232Y-70718507D01*
X146207205Y-70667709D01*
X146275025Y-70650912D01*
X146341161Y-70673447D01*
X146380204Y-70718504D01*
X146384949Y-70727817D01*
X146509890Y-70899786D01*
X146660213Y-71050109D01*
X146832184Y-71175051D01*
X146832184Y-71175052D01*
X146871793Y-71195233D01*
X146922590Y-71243206D01*
X146939500Y-71305718D01*
X146939500Y-75464502D01*
X146919815Y-75531541D01*
X146872457Y-75572576D01*
X146873291Y-75574136D01*
X146867914Y-75577009D01*
X146736811Y-75664610D01*
X146736807Y-75664613D01*
X146625313Y-75776107D01*
X146625310Y-75776111D01*
X146537709Y-75907214D01*
X146537702Y-75907227D01*
X146477364Y-76052898D01*
X146477361Y-76052910D01*
X146446600Y-76207553D01*
X146446600Y-76365246D01*
X146477361Y-76519889D01*
X146477364Y-76519901D01*
X146537702Y-76665572D01*
X146537709Y-76665585D01*
X146625310Y-76796688D01*
X146625313Y-76796692D01*
X146736807Y-76908186D01*
X146736811Y-76908189D01*
X146867914Y-76995790D01*
X146867927Y-76995797D01*
X146988239Y-77045631D01*
X147013603Y-77056137D01*
X147168258Y-77086900D01*
X147168856Y-77087019D01*
X147230767Y-77119404D01*
X147265341Y-77180119D01*
X147266282Y-77184444D01*
X147297561Y-77341691D01*
X147297564Y-77341701D01*
X147357902Y-77487372D01*
X147357909Y-77487385D01*
X147445510Y-77618488D01*
X147445513Y-77618492D01*
X147557007Y-77729986D01*
X147557011Y-77729989D01*
X147688114Y-77817590D01*
X147688127Y-77817597D01*
X147833798Y-77877935D01*
X147833803Y-77877937D01*
X147988453Y-77908699D01*
X147988456Y-77908700D01*
X147988458Y-77908700D01*
X148146144Y-77908700D01*
X148146145Y-77908699D01*
X148300797Y-77877937D01*
X148446479Y-77817594D01*
X148577589Y-77729989D01*
X148689089Y-77618489D01*
X148776694Y-77487379D01*
X148785045Y-77467219D01*
X148821509Y-77379185D01*
X148837037Y-77341697D01*
X148858559Y-77233501D01*
X148867938Y-77186350D01*
X148900323Y-77124439D01*
X148901818Y-77122916D01*
X151397116Y-74627619D01*
X151458439Y-74594134D01*
X151484797Y-74591300D01*
X152204308Y-74591300D01*
X152224519Y-74597234D01*
X152245558Y-74598362D01*
X152257373Y-74606881D01*
X152271347Y-74610985D01*
X152285140Y-74626903D01*
X152302231Y-74639227D01*
X152307564Y-74652782D01*
X152317102Y-74663789D01*
X152320100Y-74684639D01*
X152327814Y-74704244D01*
X152326485Y-74729047D01*
X152327046Y-74732947D01*
X152325926Y-74739488D01*
X152324463Y-74746844D01*
X152292080Y-74808756D01*
X152290526Y-74810337D01*
X147842183Y-79258681D01*
X147780860Y-79292166D01*
X147754502Y-79295000D01*
X147610355Y-79295000D01*
X147455710Y-79325761D01*
X147455698Y-79325764D01*
X147310027Y-79386102D01*
X147310014Y-79386109D01*
X147178911Y-79473710D01*
X147178907Y-79473713D01*
X147067413Y-79585207D01*
X147067410Y-79585211D01*
X146979809Y-79716314D01*
X146979802Y-79716327D01*
X146919464Y-79861998D01*
X146919461Y-79862010D01*
X146888700Y-80016653D01*
X146888700Y-80174346D01*
X146919461Y-80328989D01*
X146919464Y-80329001D01*
X146979802Y-80474672D01*
X146979809Y-80474685D01*
X147067410Y-80605788D01*
X147067413Y-80605792D01*
X147178907Y-80717286D01*
X147178911Y-80717289D01*
X147310014Y-80804890D01*
X147310027Y-80804897D01*
X147441688Y-80859432D01*
X147455703Y-80865237D01*
X147610353Y-80895999D01*
X147610356Y-80896000D01*
X147610358Y-80896000D01*
X147768044Y-80896000D01*
X147768045Y-80895999D01*
X147922697Y-80865237D01*
X148068379Y-80804894D01*
X148199489Y-80717289D01*
X148310989Y-80605789D01*
X148398594Y-80474679D01*
X148441437Y-80371242D01*
X148468313Y-80331020D01*
X152287821Y-76511513D01*
X152349142Y-76478030D01*
X152418834Y-76483014D01*
X152474767Y-76524886D01*
X152499184Y-76590350D01*
X152499500Y-76599196D01*
X152499500Y-78297870D01*
X152499501Y-78297876D01*
X152505908Y-78357483D01*
X152556202Y-78492328D01*
X152556206Y-78492335D01*
X152642452Y-78607544D01*
X152642453Y-78607544D01*
X152642454Y-78607546D01*
X152686563Y-78640566D01*
X152760599Y-78695990D01*
X152802469Y-78751924D01*
X152807453Y-78821615D01*
X152786605Y-78868141D01*
X152717087Y-78963824D01*
X152609897Y-79174197D01*
X152536934Y-79398752D01*
X152500000Y-79631947D01*
X152500000Y-79868052D01*
X152536934Y-80101247D01*
X152609897Y-80325802D01*
X152717087Y-80536174D01*
X152777338Y-80619104D01*
X152777340Y-80619105D01*
X153517037Y-79879408D01*
X153534075Y-79942993D01*
X153599901Y-80057007D01*
X153692993Y-80150099D01*
X153807007Y-80215925D01*
X153870590Y-80232962D01*
X153124280Y-80979271D01*
X153115105Y-81022947D01*
X153078739Y-81064615D01*
X153022490Y-81105482D01*
X152855485Y-81272487D01*
X152855485Y-81272488D01*
X152855483Y-81272490D01*
X152795862Y-81354550D01*
X152716657Y-81463566D01*
X152609433Y-81674003D01*
X152536446Y-81898631D01*
X152499500Y-82131902D01*
X152499500Y-82368097D01*
X152536446Y-82601368D01*
X152609433Y-82825996D01*
X152702090Y-83007844D01*
X152716657Y-83036433D01*
X152855483Y-83227510D01*
X153022490Y-83394517D01*
X153213567Y-83533343D01*
X153312991Y-83584002D01*
X153424003Y-83640566D01*
X153424005Y-83640566D01*
X153424008Y-83640568D01*
X153472380Y-83656285D01*
X153648631Y-83713553D01*
X153881903Y-83750500D01*
X153881908Y-83750500D01*
X154118097Y-83750500D01*
X154224126Y-83733705D01*
X154351368Y-83713553D01*
X154477566Y-83672547D01*
X154547404Y-83670553D01*
X154603563Y-83702798D01*
X156333278Y-85432513D01*
X156366763Y-85493836D01*
X156361779Y-85563528D01*
X156319907Y-85619461D01*
X156254443Y-85643878D01*
X156221406Y-85641811D01*
X156128846Y-85623400D01*
X156128842Y-85623400D01*
X155971158Y-85623400D01*
X155971155Y-85623400D01*
X155816510Y-85654161D01*
X155816498Y-85654164D01*
X155670827Y-85714502D01*
X155670814Y-85714509D01*
X155539711Y-85802110D01*
X155539707Y-85802113D01*
X155428213Y-85913607D01*
X155428210Y-85913611D01*
X155340609Y-86044714D01*
X155340602Y-86044727D01*
X155280264Y-86190398D01*
X155280261Y-86190410D01*
X155249500Y-86345053D01*
X155249500Y-86502746D01*
X155280261Y-86657389D01*
X155280264Y-86657401D01*
X155340602Y-86803072D01*
X155340609Y-86803085D01*
X155428210Y-86934188D01*
X155428213Y-86934192D01*
X155539707Y-87045686D01*
X155539711Y-87045689D01*
X155670814Y-87133290D01*
X155670827Y-87133297D01*
X155723347Y-87155051D01*
X155816503Y-87193637D01*
X155924178Y-87215055D01*
X155971153Y-87224399D01*
X155971156Y-87224400D01*
X156133803Y-87224400D01*
X156200842Y-87244085D01*
X156221484Y-87260719D01*
X157128584Y-88167819D01*
X157162069Y-88229142D01*
X157157085Y-88298834D01*
X157115213Y-88354767D01*
X157049749Y-88379184D01*
X157040903Y-88379500D01*
X156893713Y-88379500D01*
X156845042Y-88387208D01*
X156683760Y-88412753D01*
X156481585Y-88478444D01*
X156292179Y-88574951D01*
X156120215Y-88699889D01*
X156006285Y-88813819D01*
X155944962Y-88847303D01*
X155875270Y-88842319D01*
X155819337Y-88800447D01*
X155802422Y-88769470D01*
X155753354Y-88637913D01*
X155753350Y-88637906D01*
X155667190Y-88522812D01*
X155667187Y-88522809D01*
X155552093Y-88436649D01*
X155552086Y-88436645D01*
X155417379Y-88386403D01*
X155417372Y-88386401D01*
X155357844Y-88380000D01*
X154710000Y-88380000D01*
X154710000Y-89296988D01*
X154652993Y-89264075D01*
X154525826Y-89230000D01*
X154394174Y-89230000D01*
X154267007Y-89264075D01*
X154210000Y-89296988D01*
X154210000Y-88380000D01*
X153562155Y-88380000D01*
X153502627Y-88386401D01*
X153502620Y-88386403D01*
X153367913Y-88436645D01*
X153367906Y-88436649D01*
X153252812Y-88522809D01*
X153252809Y-88522812D01*
X153166649Y-88637906D01*
X153166645Y-88637913D01*
X153116403Y-88772620D01*
X153116401Y-88772627D01*
X153110000Y-88832155D01*
X153110000Y-89480000D01*
X154026988Y-89480000D01*
X153994075Y-89537007D01*
X153960000Y-89664174D01*
X153960000Y-89795826D01*
X153994075Y-89922993D01*
X154026988Y-89980000D01*
X153110000Y-89980000D01*
X153110000Y-90627844D01*
X153116401Y-90687372D01*
X153116403Y-90687379D01*
X153166645Y-90822086D01*
X153166649Y-90822093D01*
X153252809Y-90937187D01*
X153252812Y-90937190D01*
X153367906Y-91023350D01*
X153367913Y-91023354D01*
X153502620Y-91073596D01*
X153502627Y-91073598D01*
X153562155Y-91079999D01*
X153562172Y-91080000D01*
X154210000Y-91080000D01*
X154210000Y-90163012D01*
X154267007Y-90195925D01*
X154394174Y-90230000D01*
X154525826Y-90230000D01*
X154652993Y-90195925D01*
X154710000Y-90163012D01*
X154710000Y-91080000D01*
X155357828Y-91080000D01*
X155357844Y-91079999D01*
X155417372Y-91073598D01*
X155417379Y-91073596D01*
X155552086Y-91023354D01*
X155552093Y-91023350D01*
X155667187Y-90937190D01*
X155667190Y-90937187D01*
X155753350Y-90822093D01*
X155753354Y-90822086D01*
X155802422Y-90690529D01*
X155844293Y-90634595D01*
X155909757Y-90610178D01*
X155978030Y-90625030D01*
X156006285Y-90646181D01*
X156120213Y-90760109D01*
X156292179Y-90885048D01*
X156292181Y-90885049D01*
X156292184Y-90885051D01*
X156481588Y-90981557D01*
X156683757Y-91047246D01*
X156893713Y-91080500D01*
X156893714Y-91080500D01*
X157106286Y-91080500D01*
X157106287Y-91080500D01*
X157316243Y-91047246D01*
X157518412Y-90981557D01*
X157707816Y-90885051D01*
X157794471Y-90822093D01*
X157879786Y-90760109D01*
X157879788Y-90760106D01*
X157879792Y-90760104D01*
X158030104Y-90609792D01*
X158030106Y-90609788D01*
X158030109Y-90609786D01*
X158155048Y-90437820D01*
X158155047Y-90437820D01*
X158155051Y-90437816D01*
X158159514Y-90429054D01*
X158207488Y-90378259D01*
X158275308Y-90361463D01*
X158341444Y-90383999D01*
X158380486Y-90429056D01*
X158384951Y-90437820D01*
X158509890Y-90609786D01*
X158660213Y-90760109D01*
X158832179Y-90885048D01*
X158832181Y-90885049D01*
X158832184Y-90885051D01*
X159021588Y-90981557D01*
X159223757Y-91047246D01*
X159433713Y-91080500D01*
X159433714Y-91080500D01*
X159646286Y-91080500D01*
X159646287Y-91080500D01*
X159856243Y-91047246D01*
X160058412Y-90981557D01*
X160247816Y-90885051D01*
X160334471Y-90822093D01*
X160419786Y-90760109D01*
X160419788Y-90760106D01*
X160419792Y-90760104D01*
X160570104Y-90609792D01*
X160570106Y-90609788D01*
X160570109Y-90609786D01*
X160695048Y-90437820D01*
X160695047Y-90437820D01*
X160695051Y-90437816D01*
X160699514Y-90429054D01*
X160747488Y-90378259D01*
X160815308Y-90361463D01*
X160881444Y-90383999D01*
X160920486Y-90429056D01*
X160924951Y-90437820D01*
X161049890Y-90609786D01*
X161200213Y-90760109D01*
X161372179Y-90885048D01*
X161372181Y-90885049D01*
X161372184Y-90885051D01*
X161561588Y-90981557D01*
X161763757Y-91047246D01*
X161973713Y-91080500D01*
X161973714Y-91080500D01*
X162186286Y-91080500D01*
X162186287Y-91080500D01*
X162396243Y-91047246D01*
X162598412Y-90981557D01*
X162787816Y-90885051D01*
X162874471Y-90822093D01*
X162959786Y-90760109D01*
X162959788Y-90760106D01*
X162959792Y-90760104D01*
X163110104Y-90609792D01*
X163110106Y-90609788D01*
X163110109Y-90609786D01*
X163235048Y-90437820D01*
X163235047Y-90437820D01*
X163235051Y-90437816D01*
X163331557Y-90248412D01*
X163397246Y-90046243D01*
X163430500Y-89836287D01*
X163430500Y-89623713D01*
X163397246Y-89413757D01*
X163331557Y-89211588D01*
X163235051Y-89022184D01*
X163235049Y-89022181D01*
X163235048Y-89022179D01*
X163110109Y-88850213D01*
X162959786Y-88699890D01*
X162787820Y-88574951D01*
X162598414Y-88478444D01*
X162598413Y-88478443D01*
X162598412Y-88478443D01*
X162396243Y-88412754D01*
X162396241Y-88412753D01*
X162396240Y-88412753D01*
X162234957Y-88387208D01*
X162186287Y-88379500D01*
X161973713Y-88379500D01*
X161925042Y-88387208D01*
X161763760Y-88412753D01*
X161561585Y-88478444D01*
X161372179Y-88574951D01*
X161200213Y-88699890D01*
X161049890Y-88850213D01*
X160924949Y-89022182D01*
X160920484Y-89030946D01*
X160872509Y-89081742D01*
X160804688Y-89098536D01*
X160738553Y-89075998D01*
X160699516Y-89030946D01*
X160695050Y-89022182D01*
X160570109Y-88850213D01*
X160419786Y-88699890D01*
X160247820Y-88574951D01*
X160058414Y-88478444D01*
X160058413Y-88478443D01*
X160058412Y-88478443D01*
X159856243Y-88412754D01*
X159856241Y-88412753D01*
X159856240Y-88412753D01*
X159694957Y-88387208D01*
X159646287Y-88379500D01*
X159433713Y-88379500D01*
X159405006Y-88384046D01*
X159223757Y-88412753D01*
X159181473Y-88426492D01*
X159111632Y-88428486D01*
X159055476Y-88396241D01*
X158412752Y-87753517D01*
X158379267Y-87692194D01*
X158384251Y-87622502D01*
X158426123Y-87566569D01*
X158491587Y-87542152D01*
X158532525Y-87546061D01*
X158647243Y-87576801D01*
X158647244Y-87576801D01*
X158812954Y-87576801D01*
X158812970Y-87576800D01*
X162366203Y-87576800D01*
X162433242Y-87596485D01*
X162453884Y-87613119D01*
X164395921Y-89555157D01*
X164429406Y-89616480D01*
X164426173Y-89681149D01*
X164421523Y-89695460D01*
X164421523Y-89695462D01*
X164389500Y-89897648D01*
X164389500Y-90102351D01*
X164421522Y-90304534D01*
X164484781Y-90499223D01*
X164577715Y-90681613D01*
X164698028Y-90847213D01*
X164842786Y-90991971D01*
X164974573Y-91087718D01*
X165008390Y-91112287D01*
X165096568Y-91157216D01*
X165190776Y-91205218D01*
X165190778Y-91205218D01*
X165190781Y-91205220D01*
X165244450Y-91222658D01*
X165385465Y-91268477D01*
X165453369Y-91279232D01*
X165587648Y-91300500D01*
X165587649Y-91300500D01*
X165792351Y-91300500D01*
X165792352Y-91300500D01*
X165994534Y-91268477D01*
X166189219Y-91205220D01*
X166371610Y-91112287D01*
X166494017Y-91023354D01*
X166537213Y-90991971D01*
X166537215Y-90991968D01*
X166537219Y-90991966D01*
X166681966Y-90847219D01*
X166681968Y-90847215D01*
X166681971Y-90847213D01*
X166734732Y-90774590D01*
X166802287Y-90681610D01*
X166895220Y-90499219D01*
X166958477Y-90304534D01*
X166990500Y-90102352D01*
X166990500Y-89897648D01*
X172009500Y-89897648D01*
X172009500Y-90102351D01*
X172041522Y-90304534D01*
X172104781Y-90499223D01*
X172197715Y-90681613D01*
X172318028Y-90847213D01*
X172462786Y-90991971D01*
X172594573Y-91087718D01*
X172628390Y-91112287D01*
X172716568Y-91157216D01*
X172810776Y-91205218D01*
X172810778Y-91205218D01*
X172810781Y-91205220D01*
X172864450Y-91222658D01*
X173005465Y-91268477D01*
X173073369Y-91279232D01*
X173207648Y-91300500D01*
X173207649Y-91300500D01*
X173412351Y-91300500D01*
X173412352Y-91300500D01*
X173614534Y-91268477D01*
X173809219Y-91205220D01*
X173991610Y-91112287D01*
X174114017Y-91023354D01*
X174157213Y-90991971D01*
X174157215Y-90991968D01*
X174157219Y-90991966D01*
X174301966Y-90847219D01*
X174301968Y-90847215D01*
X174301971Y-90847213D01*
X174354732Y-90774590D01*
X174422287Y-90681610D01*
X174515220Y-90499219D01*
X174578477Y-90304534D01*
X174610500Y-90102352D01*
X174610500Y-89897648D01*
X174578477Y-89695466D01*
X174564609Y-89652786D01*
X174532888Y-89555157D01*
X174515220Y-89500781D01*
X174515218Y-89500778D01*
X174515218Y-89500776D01*
X174475585Y-89422993D01*
X174422287Y-89318390D01*
X174405134Y-89294781D01*
X174301971Y-89152786D01*
X174157213Y-89008028D01*
X173991613Y-88887715D01*
X173991612Y-88887714D01*
X173991610Y-88887713D01*
X173918012Y-88850213D01*
X173809223Y-88794781D01*
X173614534Y-88731522D01*
X173439995Y-88703878D01*
X173412352Y-88699500D01*
X173207648Y-88699500D01*
X173183329Y-88703351D01*
X173005465Y-88731522D01*
X172810776Y-88794781D01*
X172628386Y-88887715D01*
X172462786Y-89008028D01*
X172318028Y-89152786D01*
X172197715Y-89318386D01*
X172104781Y-89500776D01*
X172041522Y-89695465D01*
X172009500Y-89897648D01*
X166990500Y-89897648D01*
X166958477Y-89695466D01*
X166944609Y-89652786D01*
X166912888Y-89555157D01*
X166895220Y-89500781D01*
X166895218Y-89500778D01*
X166895218Y-89500776D01*
X166855585Y-89422993D01*
X166802287Y-89318390D01*
X166785134Y-89294781D01*
X166681971Y-89152786D01*
X166537213Y-89008028D01*
X166371613Y-88887715D01*
X166371612Y-88887714D01*
X166371610Y-88887713D01*
X166298012Y-88850213D01*
X166189223Y-88794781D01*
X165994534Y-88731522D01*
X165819995Y-88703878D01*
X165792352Y-88699500D01*
X165587648Y-88699500D01*
X165547211Y-88705904D01*
X165385462Y-88731523D01*
X165385460Y-88731523D01*
X165371149Y-88736173D01*
X165301308Y-88738164D01*
X165245157Y-88705921D01*
X163438201Y-86898966D01*
X163404716Y-86837643D01*
X163409700Y-86767951D01*
X163451572Y-86712018D01*
X163457546Y-86707546D01*
X163543796Y-86592331D01*
X163594091Y-86457483D01*
X163600500Y-86397873D01*
X163600500Y-85893713D01*
X171149500Y-85893713D01*
X171149500Y-86106287D01*
X171150728Y-86114038D01*
X171179149Y-86293487D01*
X171182754Y-86316243D01*
X171243351Y-86502742D01*
X171248444Y-86518414D01*
X171344951Y-86707820D01*
X171469890Y-86879786D01*
X171620213Y-87030109D01*
X171792179Y-87155048D01*
X171792181Y-87155049D01*
X171792184Y-87155051D01*
X171981588Y-87251557D01*
X172183757Y-87317246D01*
X172393713Y-87350500D01*
X172393714Y-87350500D01*
X172606286Y-87350500D01*
X172606287Y-87350500D01*
X172816243Y-87317246D01*
X173018412Y-87251557D01*
X173207816Y-87155051D01*
X173306005Y-87083713D01*
X173379786Y-87030109D01*
X173379788Y-87030106D01*
X173379792Y-87030104D01*
X173530104Y-86879792D01*
X173530106Y-86879788D01*
X173530109Y-86879786D01*
X173655048Y-86707820D01*
X173655047Y-86707820D01*
X173655051Y-86707816D01*
X173751557Y-86518412D01*
X173817246Y-86316243D01*
X173850500Y-86106287D01*
X173850500Y-85893713D01*
X173817246Y-85683757D01*
X173751557Y-85481588D01*
X173655051Y-85292184D01*
X173655049Y-85292181D01*
X173655048Y-85292179D01*
X173530109Y-85120213D01*
X173379786Y-84969890D01*
X173207820Y-84844951D01*
X173018414Y-84748444D01*
X173018413Y-84748443D01*
X173018412Y-84748443D01*
X172816243Y-84682754D01*
X172816241Y-84682753D01*
X172816240Y-84682753D01*
X172654957Y-84657208D01*
X172606287Y-84649500D01*
X172393713Y-84649500D01*
X172345042Y-84657208D01*
X172183760Y-84682753D01*
X171981585Y-84748444D01*
X171792179Y-84844951D01*
X171620213Y-84969890D01*
X171469890Y-85120213D01*
X171344951Y-85292179D01*
X171248444Y-85481585D01*
X171248443Y-85481587D01*
X171248443Y-85481588D01*
X171221819Y-85563528D01*
X171182753Y-85683760D01*
X171156652Y-85848556D01*
X171149500Y-85893713D01*
X163600500Y-85893713D01*
X163600499Y-85329639D01*
X163600499Y-84302129D01*
X163600498Y-84302123D01*
X163600497Y-84302116D01*
X163594091Y-84242517D01*
X163585397Y-84219208D01*
X163543797Y-84107671D01*
X163543793Y-84107664D01*
X163457547Y-83992455D01*
X163457544Y-83992452D01*
X163342335Y-83906206D01*
X163342328Y-83906202D01*
X163207482Y-83855908D01*
X163207483Y-83855908D01*
X163147883Y-83849501D01*
X163147881Y-83849500D01*
X163147873Y-83849500D01*
X163147864Y-83849500D01*
X159852129Y-83849500D01*
X159852123Y-83849501D01*
X159792516Y-83855908D01*
X159657671Y-83906202D01*
X159657664Y-83906206D01*
X159542455Y-83992452D01*
X159542452Y-83992455D01*
X159456206Y-84107664D01*
X159456202Y-84107671D01*
X159405908Y-84242517D01*
X159400645Y-84291473D01*
X159399500Y-84302127D01*
X159399500Y-85329639D01*
X159399501Y-86251800D01*
X159396950Y-86260485D01*
X159398239Y-86269447D01*
X159387260Y-86293487D01*
X159379816Y-86318839D01*
X159372975Y-86324766D01*
X159369214Y-86333003D01*
X159346981Y-86347290D01*
X159327013Y-86364594D01*
X159316497Y-86366881D01*
X159310436Y-86370777D01*
X159275501Y-86375800D01*
X159026398Y-86375800D01*
X158959359Y-86356115D01*
X158938717Y-86339481D01*
X157553303Y-84954067D01*
X155452797Y-82853562D01*
X155419313Y-82792240D01*
X155422547Y-82727566D01*
X155463553Y-82601368D01*
X155492753Y-82417007D01*
X155500500Y-82368097D01*
X155500500Y-82131947D01*
X167000000Y-82131947D01*
X167000000Y-82368052D01*
X167036934Y-82601247D01*
X167109897Y-82825802D01*
X167217087Y-83036174D01*
X167277338Y-83119104D01*
X167277340Y-83119105D01*
X168017037Y-82379408D01*
X168034075Y-82442993D01*
X168099901Y-82557007D01*
X168192993Y-82650099D01*
X168307007Y-82715925D01*
X168370590Y-82732962D01*
X167630893Y-83472658D01*
X167713828Y-83532914D01*
X167924197Y-83640102D01*
X168148752Y-83713065D01*
X168148751Y-83713065D01*
X168381948Y-83750000D01*
X168618052Y-83750000D01*
X168851247Y-83713065D01*
X169075802Y-83640102D01*
X169286163Y-83532918D01*
X169286169Y-83532914D01*
X169369104Y-83472658D01*
X169369105Y-83472658D01*
X168629408Y-82732962D01*
X168692993Y-82715925D01*
X168807007Y-82650099D01*
X168900099Y-82557007D01*
X168965925Y-82442993D01*
X168982962Y-82379408D01*
X169722658Y-83119105D01*
X169722658Y-83119104D01*
X169782914Y-83036169D01*
X169782918Y-83036163D01*
X169890102Y-82825802D01*
X169963065Y-82601247D01*
X170000000Y-82368052D01*
X170000000Y-82131947D01*
X169963065Y-81898752D01*
X169890102Y-81674197D01*
X169782914Y-81463828D01*
X169722658Y-81380894D01*
X169722658Y-81380893D01*
X168982962Y-82120590D01*
X168965925Y-82057007D01*
X168900099Y-81942993D01*
X168807007Y-81849901D01*
X168692993Y-81784075D01*
X168629409Y-81767037D01*
X169369105Y-81027340D01*
X169369104Y-81027338D01*
X169286174Y-80967087D01*
X169075802Y-80859897D01*
X168851247Y-80786934D01*
X168851248Y-80786934D01*
X168618052Y-80750000D01*
X168381948Y-80750000D01*
X168148752Y-80786934D01*
X167924197Y-80859897D01*
X167713830Y-80967084D01*
X167630894Y-81027340D01*
X168370591Y-81767037D01*
X168307007Y-81784075D01*
X168192993Y-81849901D01*
X168099901Y-81942993D01*
X168034075Y-82057007D01*
X168017037Y-82120591D01*
X167277340Y-81380894D01*
X167217084Y-81463830D01*
X167109897Y-81674197D01*
X167036934Y-81898752D01*
X167000000Y-82131947D01*
X155500500Y-82131947D01*
X155500500Y-82131902D01*
X155463553Y-81898631D01*
X155415259Y-81750000D01*
X155390568Y-81674008D01*
X155390566Y-81674005D01*
X155390566Y-81674003D01*
X155283477Y-81463830D01*
X155283343Y-81463567D01*
X155144517Y-81272490D01*
X154977510Y-81105483D01*
X154917066Y-81061568D01*
X154913142Y-81058182D01*
X154896887Y-81033006D01*
X154878595Y-81009284D01*
X154877714Y-81003311D01*
X154875243Y-80999484D01*
X154875215Y-80986358D01*
X154873902Y-80977455D01*
X154129408Y-80232962D01*
X154192993Y-80215925D01*
X154307007Y-80150099D01*
X154400099Y-80057007D01*
X154465925Y-79942993D01*
X154482962Y-79879409D01*
X155222658Y-80619105D01*
X155222658Y-80619104D01*
X155282914Y-80536169D01*
X155282918Y-80536163D01*
X155390102Y-80325802D01*
X155463065Y-80101247D01*
X155500000Y-79868052D01*
X155500000Y-79631947D01*
X155465191Y-79412174D01*
X155465190Y-79412171D01*
X155463064Y-79398748D01*
X155462707Y-79397648D01*
X174079500Y-79397648D01*
X174079500Y-79602351D01*
X174111522Y-79804534D01*
X174174781Y-79999223D01*
X174238691Y-80124653D01*
X174252200Y-80151165D01*
X174267715Y-80181613D01*
X174388028Y-80347213D01*
X174388034Y-80347219D01*
X174532781Y-80491966D01*
X174698390Y-80612287D01*
X174711793Y-80619116D01*
X174762589Y-80667088D01*
X174779500Y-80729601D01*
X174779500Y-81793330D01*
X174779499Y-81793348D01*
X174779499Y-81959054D01*
X174779498Y-81959054D01*
X174779499Y-81959057D01*
X174819917Y-82109897D01*
X174820424Y-82111787D01*
X174832040Y-82131906D01*
X174832041Y-82131908D01*
X174899477Y-82248712D01*
X174899481Y-82248717D01*
X175018349Y-82367585D01*
X175018355Y-82367590D01*
X175547200Y-82896435D01*
X175580685Y-82957758D01*
X175577450Y-83022433D01*
X175536447Y-83148628D01*
X175499500Y-83381902D01*
X175499500Y-83618097D01*
X175536446Y-83851368D01*
X175609433Y-84075996D01*
X175714033Y-84281284D01*
X175716657Y-84286433D01*
X175855483Y-84477510D01*
X176022490Y-84644517D01*
X176075119Y-84682754D01*
X176213568Y-84783344D01*
X176288177Y-84821358D01*
X176331794Y-84843582D01*
X176382590Y-84891556D01*
X176399500Y-84954067D01*
X176399500Y-88545931D01*
X176379815Y-88612970D01*
X176331796Y-88656415D01*
X176213568Y-88716655D01*
X176130044Y-88777340D01*
X176022490Y-88855483D01*
X176022488Y-88855485D01*
X176022487Y-88855485D01*
X175855485Y-89022487D01*
X175855485Y-89022488D01*
X175855483Y-89022490D01*
X175816607Y-89075998D01*
X175716657Y-89213566D01*
X175609433Y-89424003D01*
X175536446Y-89648631D01*
X175499500Y-89881902D01*
X175499500Y-90118097D01*
X175536446Y-90351368D01*
X175609433Y-90575996D01*
X175703242Y-90760104D01*
X175716657Y-90786433D01*
X175855483Y-90977510D01*
X176022490Y-91144517D01*
X176213567Y-91283343D01*
X176247240Y-91300500D01*
X176424003Y-91390566D01*
X176424005Y-91390566D01*
X176424008Y-91390568D01*
X176544412Y-91429689D01*
X176648631Y-91463553D01*
X176881903Y-91500500D01*
X176881908Y-91500500D01*
X177118097Y-91500500D01*
X177351368Y-91463553D01*
X177352870Y-91463065D01*
X177575992Y-91390568D01*
X177786433Y-91283343D01*
X177977510Y-91144517D01*
X178144517Y-90977510D01*
X178283343Y-90786433D01*
X178390568Y-90575992D01*
X178463553Y-90351368D01*
X178470971Y-90304534D01*
X178500500Y-90118097D01*
X178500500Y-89881947D01*
X180000000Y-89881947D01*
X180000000Y-90118052D01*
X180036934Y-90351247D01*
X180109897Y-90575802D01*
X180217087Y-90786174D01*
X180277338Y-90869104D01*
X180277340Y-90869105D01*
X180976212Y-90170233D01*
X180987482Y-90212292D01*
X181059890Y-90337708D01*
X181162292Y-90440110D01*
X181287708Y-90512518D01*
X181329765Y-90523787D01*
X180630893Y-91222658D01*
X180713828Y-91282914D01*
X180924197Y-91390102D01*
X181148752Y-91463065D01*
X181148751Y-91463065D01*
X181381948Y-91500000D01*
X181618052Y-91500000D01*
X181851247Y-91463065D01*
X182075802Y-91390102D01*
X182286163Y-91282918D01*
X182286169Y-91282914D01*
X182369104Y-91222658D01*
X182369105Y-91222658D01*
X181670233Y-90523787D01*
X181712292Y-90512518D01*
X181837708Y-90440110D01*
X181940110Y-90337708D01*
X182012518Y-90212292D01*
X182023787Y-90170234D01*
X182722658Y-90869105D01*
X182722658Y-90869104D01*
X182782914Y-90786169D01*
X182782918Y-90786163D01*
X182890102Y-90575804D01*
X182947989Y-90397648D01*
X183699500Y-90397648D01*
X183699500Y-90602352D01*
X183700740Y-90610178D01*
X183731522Y-90804534D01*
X183794781Y-90999223D01*
X183887715Y-91181613D01*
X184008028Y-91347213D01*
X184152786Y-91491971D01*
X184307749Y-91604556D01*
X184318390Y-91612287D01*
X184434607Y-91671503D01*
X184500776Y-91705218D01*
X184500778Y-91705218D01*
X184500781Y-91705220D01*
X184602080Y-91738134D01*
X184695465Y-91768477D01*
X184796557Y-91784488D01*
X184897648Y-91800500D01*
X184897649Y-91800500D01*
X185102351Y-91800500D01*
X185102352Y-91800500D01*
X185304534Y-91768477D01*
X185499219Y-91705220D01*
X185681610Y-91612287D01*
X185774590Y-91544732D01*
X185847213Y-91491971D01*
X185847215Y-91491968D01*
X185847219Y-91491966D01*
X185991966Y-91347219D01*
X185991968Y-91347215D01*
X185991971Y-91347213D01*
X186095133Y-91205220D01*
X186112287Y-91181610D01*
X186205220Y-90999219D01*
X186268477Y-90804534D01*
X186300500Y-90602352D01*
X186300500Y-90397648D01*
X186268477Y-90195466D01*
X186257210Y-90160791D01*
X186228493Y-90072409D01*
X186205220Y-90000781D01*
X186205218Y-90000778D01*
X186205218Y-90000776D01*
X186144648Y-89881902D01*
X186112287Y-89818390D01*
X186104556Y-89807749D01*
X185991971Y-89652786D01*
X185847213Y-89508028D01*
X185681613Y-89387715D01*
X185681612Y-89387714D01*
X185681610Y-89387713D01*
X185624653Y-89358691D01*
X185499223Y-89294781D01*
X185304534Y-89231522D01*
X185129995Y-89203878D01*
X185102352Y-89199500D01*
X184897648Y-89199500D01*
X184873329Y-89203351D01*
X184695465Y-89231522D01*
X184500776Y-89294781D01*
X184318386Y-89387715D01*
X184152786Y-89508028D01*
X184008028Y-89652786D01*
X183887715Y-89818386D01*
X183794781Y-90000776D01*
X183731522Y-90195465D01*
X183706849Y-90351247D01*
X183699500Y-90397648D01*
X182947989Y-90397648D01*
X182962023Y-90354457D01*
X182963065Y-90351247D01*
X183000000Y-90118052D01*
X183000000Y-89881947D01*
X182963065Y-89648752D01*
X182890102Y-89424197D01*
X182782914Y-89213828D01*
X182722658Y-89130894D01*
X182722658Y-89130893D01*
X182023787Y-89829765D01*
X182012518Y-89787708D01*
X181940110Y-89662292D01*
X181837708Y-89559890D01*
X181712292Y-89487482D01*
X181670234Y-89476212D01*
X182369105Y-88777340D01*
X182369104Y-88777338D01*
X182286174Y-88717087D01*
X182075802Y-88609897D01*
X181851247Y-88536934D01*
X181851248Y-88536934D01*
X181618052Y-88500000D01*
X181381948Y-88500000D01*
X181148752Y-88536934D01*
X180924197Y-88609897D01*
X180713830Y-88717084D01*
X180630894Y-88777340D01*
X181329766Y-89476212D01*
X181287708Y-89487482D01*
X181162292Y-89559890D01*
X181059890Y-89662292D01*
X180987482Y-89787708D01*
X180976212Y-89829765D01*
X180277340Y-89130894D01*
X180217084Y-89213830D01*
X180109897Y-89424197D01*
X180036934Y-89648752D01*
X180000000Y-89881947D01*
X178500500Y-89881947D01*
X178500500Y-89881902D01*
X178463553Y-89648631D01*
X178415513Y-89500781D01*
X178390568Y-89424008D01*
X178390566Y-89424005D01*
X178390566Y-89424003D01*
X178334002Y-89312991D01*
X178283343Y-89213567D01*
X178144517Y-89022490D01*
X177977510Y-88855483D01*
X177816035Y-88738164D01*
X177786431Y-88716655D01*
X177668204Y-88656415D01*
X177617409Y-88608441D01*
X177600500Y-88545931D01*
X177600500Y-84954067D01*
X177620185Y-84887028D01*
X177668205Y-84843582D01*
X177786433Y-84783343D01*
X177977510Y-84644517D01*
X178144517Y-84477510D01*
X178283343Y-84286433D01*
X178390568Y-84075992D01*
X178463553Y-83851368D01*
X178475043Y-83778821D01*
X178500500Y-83618097D01*
X178500500Y-83381947D01*
X180000000Y-83381947D01*
X180000000Y-83618052D01*
X180036934Y-83851247D01*
X180109897Y-84075802D01*
X180217087Y-84286174D01*
X180277338Y-84369104D01*
X180277340Y-84369105D01*
X180976212Y-83670233D01*
X180987482Y-83712292D01*
X181059890Y-83837708D01*
X181162292Y-83940110D01*
X181287708Y-84012518D01*
X181329765Y-84023787D01*
X180630893Y-84722658D01*
X180713828Y-84782914D01*
X180924197Y-84890102D01*
X181148752Y-84963065D01*
X181148751Y-84963065D01*
X181381948Y-85000000D01*
X181618052Y-85000000D01*
X181851247Y-84963065D01*
X182075802Y-84890102D01*
X182286163Y-84782918D01*
X182286169Y-84782914D01*
X182369104Y-84722658D01*
X182369105Y-84722658D01*
X181670233Y-84023787D01*
X181712292Y-84012518D01*
X181837708Y-83940110D01*
X181940110Y-83837708D01*
X182012518Y-83712292D01*
X182023787Y-83670234D01*
X182722658Y-84369105D01*
X182722658Y-84369104D01*
X182782914Y-84286169D01*
X182782918Y-84286163D01*
X182890102Y-84075802D01*
X182963065Y-83851247D01*
X183000000Y-83618052D01*
X183000000Y-83381947D01*
X182963065Y-83148752D01*
X182890102Y-82924197D01*
X182782914Y-82713828D01*
X182722658Y-82630894D01*
X182722658Y-82630893D01*
X182023787Y-83329765D01*
X182012518Y-83287708D01*
X181940110Y-83162292D01*
X181837708Y-83059890D01*
X181712292Y-82987482D01*
X181670234Y-82976212D01*
X182369105Y-82277340D01*
X182369104Y-82277338D01*
X182286174Y-82217087D01*
X182075802Y-82109897D01*
X181851247Y-82036934D01*
X181851248Y-82036934D01*
X181618052Y-82000000D01*
X181381948Y-82000000D01*
X181148752Y-82036934D01*
X180924197Y-82109897D01*
X180713830Y-82217084D01*
X180630894Y-82277340D01*
X181329766Y-82976212D01*
X181287708Y-82987482D01*
X181162292Y-83059890D01*
X181059890Y-83162292D01*
X180987482Y-83287708D01*
X180976212Y-83329765D01*
X180277340Y-82630894D01*
X180217084Y-82713830D01*
X180109897Y-82924197D01*
X180036934Y-83148752D01*
X180000000Y-83381947D01*
X178500500Y-83381947D01*
X178500500Y-83381902D01*
X178463553Y-83148631D01*
X178417808Y-83007844D01*
X178390568Y-82924008D01*
X178390566Y-82924005D01*
X178390566Y-82924003D01*
X178315994Y-82777648D01*
X178283343Y-82713567D01*
X178144517Y-82522490D01*
X177977510Y-82355483D01*
X177786433Y-82216657D01*
X177750574Y-82198386D01*
X177575996Y-82109433D01*
X177351368Y-82036446D01*
X177118097Y-81999500D01*
X177118092Y-81999500D01*
X176881908Y-81999500D01*
X176881903Y-81999500D01*
X176648628Y-82036447D01*
X176522433Y-82077450D01*
X176452592Y-82079445D01*
X176396435Y-82047200D01*
X176016819Y-81667584D01*
X175983334Y-81606261D01*
X175980500Y-81579903D01*
X175980500Y-80729601D01*
X176000185Y-80662562D01*
X176048206Y-80619116D01*
X176061610Y-80612287D01*
X176227219Y-80491966D01*
X176371966Y-80347219D01*
X176371968Y-80347215D01*
X176371971Y-80347213D01*
X176442599Y-80250000D01*
X176492287Y-80181610D01*
X176585220Y-79999219D01*
X176648477Y-79804534D01*
X176680500Y-79602352D01*
X176680500Y-79397648D01*
X176678671Y-79386102D01*
X176648477Y-79195465D01*
X176598631Y-79042057D01*
X176585220Y-79000781D01*
X176585218Y-79000778D01*
X176585218Y-79000776D01*
X176525688Y-78883943D01*
X176492287Y-78818390D01*
X176484556Y-78807749D01*
X176371971Y-78652786D01*
X176227213Y-78508028D01*
X176061613Y-78387715D01*
X176061612Y-78387714D01*
X176061610Y-78387713D01*
X176002278Y-78357482D01*
X175879223Y-78294781D01*
X175684534Y-78231522D01*
X175509995Y-78203878D01*
X175482352Y-78199500D01*
X175277648Y-78199500D01*
X175253329Y-78203351D01*
X175075465Y-78231522D01*
X174880776Y-78294781D01*
X174698386Y-78387715D01*
X174532786Y-78508028D01*
X174532782Y-78508032D01*
X174388035Y-78652780D01*
X174388028Y-78652786D01*
X174267715Y-78818386D01*
X174174781Y-79000776D01*
X174111522Y-79195465D01*
X174079500Y-79397648D01*
X155462707Y-79397648D01*
X155390102Y-79174197D01*
X155282914Y-78963828D01*
X155213394Y-78868142D01*
X155189914Y-78802335D01*
X155205739Y-78734281D01*
X155239401Y-78695989D01*
X155242329Y-78693796D01*
X155242331Y-78693796D01*
X155357546Y-78607546D01*
X155443796Y-78492331D01*
X155494091Y-78357483D01*
X155500500Y-78297873D01*
X155500499Y-77131902D01*
X166999500Y-77131902D01*
X166999500Y-77368097D01*
X167036446Y-77601368D01*
X167109433Y-77825996D01*
X167206272Y-78016052D01*
X167216657Y-78036433D01*
X167355483Y-78227510D01*
X167522490Y-78394517D01*
X167713567Y-78533343D01*
X167812991Y-78584002D01*
X167924003Y-78640566D01*
X167924005Y-78640566D01*
X167924008Y-78640568D01*
X168044412Y-78679689D01*
X168148631Y-78713553D01*
X168381903Y-78750500D01*
X168381908Y-78750500D01*
X168618097Y-78750500D01*
X168851368Y-78713553D01*
X168905424Y-78695989D01*
X169075992Y-78640568D01*
X169286433Y-78533343D01*
X169477510Y-78394517D01*
X169644517Y-78227510D01*
X169783343Y-78036433D01*
X169890568Y-77825992D01*
X169963553Y-77601368D01*
X169977978Y-77510292D01*
X170000500Y-77368097D01*
X170000500Y-77131902D01*
X169963553Y-76898631D01*
X169920623Y-76766508D01*
X169890568Y-76674008D01*
X169890566Y-76674005D01*
X169890566Y-76674003D01*
X169827383Y-76550000D01*
X169783343Y-76463567D01*
X169644517Y-76272490D01*
X169477510Y-76105483D01*
X169461613Y-76093933D01*
X169458273Y-76089601D01*
X169453297Y-76087329D01*
X169437165Y-76062228D01*
X169418948Y-76038602D01*
X169417695Y-76031931D01*
X169415523Y-76028551D01*
X169410500Y-75993616D01*
X169410500Y-75881947D01*
X175500000Y-75881947D01*
X175500000Y-76118052D01*
X175536934Y-76351247D01*
X175609897Y-76575802D01*
X175717087Y-76786174D01*
X175777338Y-76869104D01*
X175777340Y-76869105D01*
X176476212Y-76170233D01*
X176487482Y-76212292D01*
X176559890Y-76337708D01*
X176662292Y-76440110D01*
X176787708Y-76512518D01*
X176829765Y-76523787D01*
X176130893Y-77222658D01*
X176213828Y-77282914D01*
X176424197Y-77390102D01*
X176648752Y-77463065D01*
X176648751Y-77463065D01*
X176881948Y-77500000D01*
X177118052Y-77500000D01*
X177351247Y-77463065D01*
X177575802Y-77390102D01*
X177786163Y-77282918D01*
X177786169Y-77282914D01*
X177869104Y-77222658D01*
X177869105Y-77222658D01*
X177170233Y-76523787D01*
X177212292Y-76512518D01*
X177337708Y-76440110D01*
X177440110Y-76337708D01*
X177512518Y-76212292D01*
X177523787Y-76170233D01*
X178222658Y-76869105D01*
X178222658Y-76869104D01*
X178282914Y-76786169D01*
X178282918Y-76786163D01*
X178390102Y-76575802D01*
X178463065Y-76351247D01*
X178500000Y-76118052D01*
X178500000Y-75881947D01*
X178463065Y-75648752D01*
X178390102Y-75424197D01*
X178282914Y-75213828D01*
X178222658Y-75130894D01*
X178222658Y-75130893D01*
X177523787Y-75829765D01*
X177512518Y-75787708D01*
X177440110Y-75662292D01*
X177337708Y-75559890D01*
X177212292Y-75487482D01*
X177170234Y-75476212D01*
X177869105Y-74777340D01*
X177869104Y-74777338D01*
X177786174Y-74717087D01*
X177575802Y-74609897D01*
X177351247Y-74536934D01*
X177351248Y-74536934D01*
X177118052Y-74500000D01*
X176881948Y-74500000D01*
X176648752Y-74536934D01*
X176424197Y-74609897D01*
X176213830Y-74717084D01*
X176130894Y-74777340D01*
X176829766Y-75476212D01*
X176787708Y-75487482D01*
X176662292Y-75559890D01*
X176559890Y-75662292D01*
X176487482Y-75787708D01*
X176476212Y-75829766D01*
X175777340Y-75130894D01*
X175717084Y-75213830D01*
X175609897Y-75424197D01*
X175536934Y-75648752D01*
X175500000Y-75881947D01*
X169410500Y-75881947D01*
X169410500Y-70979601D01*
X169430185Y-70912562D01*
X169478206Y-70869116D01*
X169491610Y-70862287D01*
X169657219Y-70741966D01*
X169801966Y-70597219D01*
X169801968Y-70597215D01*
X169801971Y-70597213D01*
X169882825Y-70485925D01*
X169922287Y-70431610D01*
X170015220Y-70249219D01*
X170078477Y-70054534D01*
X170103949Y-69893713D01*
X171149500Y-69893713D01*
X171149500Y-70106286D01*
X171180260Y-70300500D01*
X171182754Y-70316243D01*
X171237887Y-70485925D01*
X171248444Y-70518414D01*
X171344951Y-70707820D01*
X171469890Y-70879786D01*
X171620213Y-71030109D01*
X171792179Y-71155048D01*
X171792181Y-71155049D01*
X171792184Y-71155051D01*
X171981588Y-71251557D01*
X172183757Y-71317246D01*
X172393713Y-71350500D01*
X172393714Y-71350500D01*
X172606286Y-71350500D01*
X172606287Y-71350500D01*
X172816243Y-71317246D01*
X173018412Y-71251557D01*
X173207816Y-71155051D01*
X173266610Y-71112335D01*
X173379786Y-71030109D01*
X173379788Y-71030106D01*
X173379792Y-71030104D01*
X173530104Y-70879792D01*
X173530106Y-70879788D01*
X173530109Y-70879786D01*
X173600178Y-70783343D01*
X173655051Y-70707816D01*
X173751557Y-70518412D01*
X173817246Y-70316243D01*
X173850500Y-70106287D01*
X173850500Y-69893713D01*
X173817246Y-69683757D01*
X173751557Y-69481588D01*
X173733152Y-69445466D01*
X173726989Y-69433370D01*
X173700787Y-69381947D01*
X175500000Y-69381947D01*
X175500000Y-69618052D01*
X175536934Y-69851247D01*
X175609897Y-70075802D01*
X175717087Y-70286174D01*
X175777338Y-70369104D01*
X175777340Y-70369105D01*
X176476212Y-69670233D01*
X176487482Y-69712292D01*
X176559890Y-69837708D01*
X176662292Y-69940110D01*
X176787708Y-70012518D01*
X176829765Y-70023787D01*
X176130893Y-70722658D01*
X176213828Y-70782914D01*
X176424197Y-70890102D01*
X176648752Y-70963065D01*
X176648751Y-70963065D01*
X176881948Y-71000000D01*
X177118052Y-71000000D01*
X177351247Y-70963065D01*
X177575802Y-70890102D01*
X177786163Y-70782918D01*
X177786169Y-70782914D01*
X177869104Y-70722658D01*
X177869105Y-70722658D01*
X177170233Y-70023787D01*
X177212292Y-70012518D01*
X177337708Y-69940110D01*
X177440110Y-69837708D01*
X177512518Y-69712292D01*
X177523787Y-69670233D01*
X178222658Y-70369105D01*
X178222658Y-70369104D01*
X178282914Y-70286169D01*
X178282918Y-70286163D01*
X178390102Y-70075802D01*
X178463065Y-69851247D01*
X178500000Y-69618052D01*
X178500000Y-69381947D01*
X178463065Y-69148752D01*
X178390102Y-68924197D01*
X178282914Y-68713828D01*
X178222658Y-68630894D01*
X178222658Y-68630893D01*
X177523787Y-69329765D01*
X177512518Y-69287708D01*
X177440110Y-69162292D01*
X177337708Y-69059890D01*
X177212292Y-68987482D01*
X177170234Y-68976212D01*
X177869105Y-68277340D01*
X177869104Y-68277338D01*
X177786174Y-68217087D01*
X177575802Y-68109897D01*
X177351247Y-68036934D01*
X177351248Y-68036934D01*
X177118052Y-68000000D01*
X176881948Y-68000000D01*
X176648752Y-68036934D01*
X176424197Y-68109897D01*
X176213830Y-68217084D01*
X176130894Y-68277340D01*
X176829766Y-68976212D01*
X176787708Y-68987482D01*
X176662292Y-69059890D01*
X176559890Y-69162292D01*
X176487482Y-69287708D01*
X176476212Y-69329766D01*
X175777340Y-68630894D01*
X175717084Y-68713830D01*
X175609897Y-68924197D01*
X175536934Y-69148752D01*
X175500000Y-69381947D01*
X173700787Y-69381947D01*
X173655051Y-69292184D01*
X173603268Y-69220910D01*
X173530109Y-69120213D01*
X173379786Y-68969890D01*
X173207820Y-68844951D01*
X173018414Y-68748444D01*
X173018413Y-68748443D01*
X173018412Y-68748443D01*
X172816243Y-68682754D01*
X172816241Y-68682753D01*
X172816240Y-68682753D01*
X172654957Y-68657208D01*
X172606287Y-68649500D01*
X172393713Y-68649500D01*
X172345042Y-68657208D01*
X172183760Y-68682753D01*
X171981585Y-68748444D01*
X171792179Y-68844951D01*
X171620213Y-68969890D01*
X171469890Y-69120213D01*
X171344951Y-69292179D01*
X171248444Y-69481585D01*
X171182753Y-69683760D01*
X171149500Y-69893713D01*
X170103949Y-69893713D01*
X170110500Y-69852352D01*
X170110500Y-69647648D01*
X170087366Y-69501585D01*
X170078477Y-69445465D01*
X170032684Y-69304530D01*
X170015220Y-69250781D01*
X170015218Y-69250778D01*
X170015218Y-69250776D01*
X169981503Y-69184607D01*
X169922287Y-69068390D01*
X169899681Y-69037275D01*
X169801971Y-68902786D01*
X169657213Y-68758028D01*
X169491613Y-68637715D01*
X169491612Y-68637714D01*
X169491610Y-68637713D01*
X169434653Y-68608691D01*
X169309223Y-68544781D01*
X169114534Y-68481522D01*
X168939995Y-68453878D01*
X168912352Y-68449500D01*
X168707648Y-68449500D01*
X168683329Y-68453351D01*
X168505465Y-68481522D01*
X168310776Y-68544781D01*
X168128386Y-68637715D01*
X167962786Y-68758028D01*
X167818028Y-68902786D01*
X167697715Y-69068386D01*
X167604781Y-69250776D01*
X167541522Y-69445465D01*
X167514181Y-69618092D01*
X167509500Y-69647648D01*
X167509500Y-69852352D01*
X167510461Y-69858418D01*
X167541522Y-70054534D01*
X167604781Y-70249223D01*
X167638928Y-70316239D01*
X167688780Y-70414079D01*
X167697715Y-70431613D01*
X167818028Y-70597213D01*
X167818034Y-70597219D01*
X167962781Y-70741966D01*
X168128390Y-70862287D01*
X168141793Y-70869116D01*
X168192589Y-70917088D01*
X168209500Y-70979601D01*
X168209500Y-75676578D01*
X168189815Y-75743617D01*
X168137011Y-75789372D01*
X168123819Y-75794509D01*
X167924003Y-75859433D01*
X167713566Y-75966657D01*
X167604550Y-76045862D01*
X167522490Y-76105483D01*
X167522488Y-76105485D01*
X167522487Y-76105485D01*
X167355485Y-76272487D01*
X167355485Y-76272488D01*
X167355483Y-76272490D01*
X167308099Y-76337708D01*
X167216657Y-76463566D01*
X167109433Y-76674003D01*
X167036446Y-76898631D01*
X166999500Y-77131902D01*
X155500499Y-77131902D01*
X155500499Y-76202128D01*
X155494091Y-76142517D01*
X155490706Y-76133442D01*
X155443797Y-76007671D01*
X155443793Y-76007664D01*
X155357547Y-75892455D01*
X155357544Y-75892452D01*
X155242335Y-75806206D01*
X155242328Y-75806202D01*
X155107482Y-75755908D01*
X155107483Y-75755908D01*
X155047883Y-75749501D01*
X155047881Y-75749500D01*
X155047873Y-75749500D01*
X155047865Y-75749500D01*
X154724500Y-75749500D01*
X154657461Y-75729815D01*
X154611706Y-75677011D01*
X154600500Y-75625500D01*
X154600500Y-74860096D01*
X154620185Y-74793057D01*
X154636814Y-74772420D01*
X156307099Y-73102135D01*
X159399500Y-73102135D01*
X159399500Y-75197870D01*
X159399501Y-75197876D01*
X159405908Y-75257483D01*
X159456202Y-75392328D01*
X159456206Y-75392335D01*
X159542452Y-75507544D01*
X159542455Y-75507547D01*
X159657664Y-75593793D01*
X159657671Y-75593797D01*
X159792517Y-75644091D01*
X159792516Y-75644091D01*
X159799444Y-75644835D01*
X159852127Y-75650500D01*
X163147872Y-75650499D01*
X163207483Y-75644091D01*
X163342331Y-75593796D01*
X163457546Y-75507546D01*
X163543796Y-75392331D01*
X163594091Y-75257483D01*
X163600500Y-75197873D01*
X163600499Y-73102128D01*
X163594091Y-73042517D01*
X163543796Y-72907669D01*
X163543795Y-72907668D01*
X163543793Y-72907664D01*
X163457547Y-72792455D01*
X163457544Y-72792452D01*
X163342335Y-72706206D01*
X163342328Y-72706202D01*
X163207482Y-72655908D01*
X163207483Y-72655908D01*
X163147883Y-72649501D01*
X163147881Y-72649500D01*
X163147873Y-72649500D01*
X163147864Y-72649500D01*
X159852129Y-72649500D01*
X159852123Y-72649501D01*
X159792516Y-72655908D01*
X159657671Y-72706202D01*
X159657664Y-72706206D01*
X159542455Y-72792452D01*
X159542452Y-72792455D01*
X159456206Y-72907664D01*
X159456202Y-72907671D01*
X159405908Y-73042517D01*
X159399501Y-73102116D01*
X159399501Y-73102123D01*
X159399500Y-73102135D01*
X156307099Y-73102135D01*
X158365158Y-71044075D01*
X158426479Y-71010592D01*
X158491151Y-71013825D01*
X158505466Y-71018477D01*
X158707648Y-71050500D01*
X158707649Y-71050500D01*
X158912351Y-71050500D01*
X158912352Y-71050500D01*
X159114534Y-71018477D01*
X159309219Y-70955220D01*
X159491610Y-70862287D01*
X159600853Y-70782918D01*
X159657213Y-70741971D01*
X159657215Y-70741968D01*
X159657219Y-70741966D01*
X159801966Y-70597219D01*
X159899682Y-70462723D01*
X159955011Y-70420058D01*
X160024624Y-70414079D01*
X160086420Y-70446684D01*
X160100315Y-70462720D01*
X160141932Y-70520000D01*
X160198034Y-70597219D01*
X160342786Y-70741971D01*
X160497749Y-70854556D01*
X160508390Y-70862287D01*
X160620172Y-70919243D01*
X160690776Y-70955218D01*
X160690778Y-70955218D01*
X160690781Y-70955220D01*
X160765818Y-70979601D01*
X160885465Y-71018477D01*
X160958875Y-71030104D01*
X161087648Y-71050500D01*
X161087649Y-71050500D01*
X161292351Y-71050500D01*
X161292352Y-71050500D01*
X161494534Y-71018477D01*
X161689219Y-70955220D01*
X161871610Y-70862287D01*
X161980853Y-70782918D01*
X162037213Y-70741971D01*
X162037215Y-70741968D01*
X162037219Y-70741966D01*
X162181966Y-70597219D01*
X162181968Y-70597215D01*
X162181971Y-70597213D01*
X162262825Y-70485925D01*
X162302287Y-70431610D01*
X162395220Y-70249219D01*
X162458477Y-70054534D01*
X162490500Y-69852352D01*
X162490500Y-69647648D01*
X162467366Y-69501585D01*
X162458477Y-69445465D01*
X162412684Y-69304530D01*
X162395220Y-69250781D01*
X162395218Y-69250778D01*
X162395218Y-69250776D01*
X162361503Y-69184607D01*
X162302287Y-69068390D01*
X162279681Y-69037275D01*
X162181971Y-68902786D01*
X162037213Y-68758028D01*
X161871613Y-68637715D01*
X161871612Y-68637714D01*
X161871610Y-68637713D01*
X161814653Y-68608691D01*
X161689223Y-68544781D01*
X161494534Y-68481522D01*
X161319995Y-68453878D01*
X161292352Y-68449500D01*
X161087648Y-68449500D01*
X161063329Y-68453351D01*
X160885465Y-68481522D01*
X160690776Y-68544781D01*
X160508386Y-68637715D01*
X160342786Y-68758028D01*
X160198032Y-68902782D01*
X160198028Y-68902787D01*
X160100318Y-69037275D01*
X160044989Y-69079941D01*
X159975375Y-69085920D01*
X159913580Y-69053315D01*
X159899682Y-69037275D01*
X159801971Y-68902787D01*
X159801967Y-68902782D01*
X159657213Y-68758028D01*
X159491613Y-68637715D01*
X159491612Y-68637714D01*
X159491610Y-68637713D01*
X159434653Y-68608691D01*
X159309223Y-68544781D01*
X159114534Y-68481522D01*
X158939995Y-68453878D01*
X158912352Y-68449500D01*
X158707648Y-68449500D01*
X158683329Y-68453351D01*
X158505465Y-68481522D01*
X158310776Y-68544781D01*
X158128386Y-68637715D01*
X157962786Y-68758028D01*
X157818028Y-68902786D01*
X157697715Y-69068386D01*
X157604781Y-69250776D01*
X157541522Y-69445465D01*
X157514181Y-69618092D01*
X157509500Y-69647648D01*
X157509500Y-69852352D01*
X157510461Y-69858418D01*
X157541522Y-70054534D01*
X157546173Y-70068848D01*
X157548165Y-70138690D01*
X157515921Y-70194842D01*
X154087681Y-73623083D01*
X154026358Y-73656568D01*
X153956666Y-73651584D01*
X153912319Y-73623083D01*
X153799517Y-73510281D01*
X153799516Y-73510280D01*
X153712704Y-73460160D01*
X153712704Y-73460159D01*
X153712700Y-73460158D01*
X153662585Y-73431223D01*
X153509857Y-73390299D01*
X153351743Y-73390299D01*
X153344147Y-73390299D01*
X153344131Y-73390300D01*
X151105640Y-73390300D01*
X151064719Y-73401264D01*
X151064719Y-73401265D01*
X151027451Y-73411251D01*
X150952914Y-73431223D01*
X150952909Y-73431226D01*
X150815990Y-73510275D01*
X150815982Y-73510281D01*
X148352181Y-75974083D01*
X148290858Y-76007568D01*
X148221166Y-76002584D01*
X148165233Y-75960712D01*
X148140816Y-75895248D01*
X148140500Y-75886402D01*
X148140500Y-71305718D01*
X148160185Y-71238679D01*
X148208207Y-71195233D01*
X148247815Y-71175052D01*
X148247815Y-71175051D01*
X148247816Y-71175051D01*
X148368516Y-71087358D01*
X148419786Y-71050109D01*
X148419788Y-71050106D01*
X148419792Y-71050104D01*
X148570104Y-70899792D01*
X148570106Y-70899788D01*
X148570109Y-70899786D01*
X148695048Y-70727820D01*
X148695050Y-70727817D01*
X148695051Y-70727816D01*
X148791557Y-70538412D01*
X148857246Y-70336243D01*
X148890500Y-70126287D01*
X148890500Y-69913713D01*
X148857246Y-69703757D01*
X148839015Y-69647648D01*
X149889500Y-69647648D01*
X149889500Y-69852352D01*
X149890461Y-69858418D01*
X149921522Y-70054534D01*
X149984781Y-70249223D01*
X150018928Y-70316239D01*
X150068780Y-70414079D01*
X150077715Y-70431613D01*
X150198028Y-70597213D01*
X150342786Y-70741971D01*
X150497749Y-70854556D01*
X150508390Y-70862287D01*
X150620172Y-70919243D01*
X150690776Y-70955218D01*
X150690778Y-70955218D01*
X150690781Y-70955220D01*
X150765818Y-70979601D01*
X150885465Y-71018477D01*
X150958875Y-71030104D01*
X151087648Y-71050500D01*
X151087649Y-71050500D01*
X151292351Y-71050500D01*
X151292352Y-71050500D01*
X151494534Y-71018477D01*
X151689219Y-70955220D01*
X151871610Y-70862287D01*
X151980853Y-70782918D01*
X152037213Y-70741971D01*
X152037215Y-70741968D01*
X152037219Y-70741966D01*
X152181966Y-70597219D01*
X152181968Y-70597215D01*
X152181971Y-70597213D01*
X152262825Y-70485925D01*
X152302287Y-70431610D01*
X152395220Y-70249219D01*
X152458477Y-70054534D01*
X152490500Y-69852352D01*
X152490500Y-69647648D01*
X152467366Y-69501585D01*
X152458477Y-69445465D01*
X152412684Y-69304530D01*
X152395220Y-69250781D01*
X152395218Y-69250778D01*
X152395218Y-69250776D01*
X152361503Y-69184607D01*
X152302287Y-69068390D01*
X152279681Y-69037275D01*
X152181971Y-68902786D01*
X152037213Y-68758028D01*
X151871613Y-68637715D01*
X151871612Y-68637714D01*
X151871610Y-68637713D01*
X151814653Y-68608691D01*
X151689223Y-68544781D01*
X151494534Y-68481522D01*
X151319995Y-68453878D01*
X151292352Y-68449500D01*
X151087648Y-68449500D01*
X151063329Y-68453351D01*
X150885465Y-68481522D01*
X150690776Y-68544781D01*
X150508386Y-68637715D01*
X150342786Y-68758028D01*
X150198028Y-68902786D01*
X150077715Y-69068386D01*
X149984781Y-69250776D01*
X149921522Y-69445465D01*
X149894181Y-69618092D01*
X149889500Y-69647648D01*
X148839015Y-69647648D01*
X148791557Y-69501588D01*
X148695051Y-69312184D01*
X148695049Y-69312181D01*
X148695048Y-69312179D01*
X148570109Y-69140213D01*
X148419786Y-68989890D01*
X148247820Y-68864951D01*
X148058414Y-68768444D01*
X148058413Y-68768443D01*
X148058412Y-68768443D01*
X147856243Y-68702754D01*
X147856241Y-68702753D01*
X147856240Y-68702753D01*
X147694957Y-68677208D01*
X147646287Y-68669500D01*
X147433713Y-68669500D01*
X147385042Y-68677208D01*
X147223760Y-68702753D01*
X147122672Y-68735598D01*
X147053624Y-68758034D01*
X147021585Y-68768444D01*
X146832179Y-68864951D01*
X146660213Y-68989890D01*
X146509890Y-69140213D01*
X146384949Y-69312182D01*
X146380202Y-69321499D01*
X146332227Y-69372293D01*
X146264405Y-69389087D01*
X146198271Y-69366548D01*
X146159234Y-69321495D01*
X146154626Y-69312452D01*
X146115270Y-69258282D01*
X146115269Y-69258282D01*
X145482962Y-69890590D01*
X145465925Y-69827007D01*
X145400099Y-69712993D01*
X145307007Y-69619901D01*
X145192993Y-69554075D01*
X145129409Y-69537037D01*
X145761716Y-68904728D01*
X145707550Y-68865375D01*
X145518217Y-68768904D01*
X145316129Y-68703242D01*
X145106246Y-68670000D01*
X144893754Y-68670000D01*
X144683872Y-68703242D01*
X144683869Y-68703242D01*
X144481782Y-68768904D01*
X144292439Y-68865380D01*
X144238282Y-68904727D01*
X144238282Y-68904728D01*
X144870591Y-69537037D01*
X144807007Y-69554075D01*
X144692993Y-69619901D01*
X144599901Y-69712993D01*
X144534075Y-69827007D01*
X144517037Y-69890590D01*
X143846818Y-69220371D01*
X143813333Y-69159048D01*
X143813330Y-69159035D01*
X143810499Y-69146014D01*
X143810499Y-69122128D01*
X143804091Y-69062517D01*
X143769546Y-68969896D01*
X143753798Y-68927673D01*
X143753793Y-68927664D01*
X143667547Y-68812455D01*
X143667544Y-68812452D01*
X143552335Y-68726206D01*
X143552328Y-68726202D01*
X143417482Y-68675908D01*
X143417483Y-68675908D01*
X143357883Y-68669501D01*
X143357881Y-68669500D01*
X143357873Y-68669500D01*
X143357864Y-68669500D01*
X141562129Y-68669500D01*
X141562123Y-68669501D01*
X141502516Y-68675908D01*
X141367671Y-68726202D01*
X141367664Y-68726206D01*
X141252455Y-68812452D01*
X141252452Y-68812455D01*
X141166206Y-68927664D01*
X141166202Y-68927671D01*
X141115908Y-69062517D01*
X141109501Y-69122116D01*
X141109500Y-69122135D01*
X141109500Y-70917870D01*
X141109501Y-70917876D01*
X141115908Y-70977483D01*
X141166202Y-71112328D01*
X141166206Y-71112335D01*
X141252452Y-71227544D01*
X141252455Y-71227547D01*
X141367664Y-71313793D01*
X141367671Y-71313797D01*
X141406116Y-71328136D01*
X141462049Y-71370007D01*
X141486467Y-71435471D01*
X141471616Y-71503744D01*
X141450464Y-71531999D01*
X136773671Y-76208792D01*
X136733443Y-76235672D01*
X136600823Y-76290604D01*
X136600814Y-76290609D01*
X136469711Y-76378210D01*
X136469707Y-76378213D01*
X136358213Y-76489707D01*
X136358210Y-76489711D01*
X136270609Y-76620814D01*
X136270602Y-76620827D01*
X136210264Y-76766498D01*
X136210261Y-76766508D01*
X136179361Y-76921850D01*
X136146976Y-76983761D01*
X136145425Y-76985339D01*
X135962181Y-77168583D01*
X135900858Y-77202068D01*
X135831166Y-77197084D01*
X135775233Y-77155212D01*
X135750816Y-77089748D01*
X135750500Y-77080902D01*
X135750500Y-67624500D01*
X135770185Y-67557461D01*
X135822989Y-67511706D01*
X135874500Y-67500500D01*
X184623575Y-67500500D01*
X184690614Y-67520185D01*
G37*
%TD.AperFunction*%
%TD*%
M02*
