%TF.GenerationSoftware,KiCad,Pcbnew,9.0.4*%
%TF.CreationDate,2025-08-23T10:29:59+02:00*%
%TF.ProjectId,i2c_hid,6932635f-6869-4642-9e6b-696361645f70,rev?*%
%TF.SameCoordinates,Original*%
%TF.FileFunction,Legend,Top*%
%TF.FilePolarity,Positive*%
%FSLAX46Y46*%
G04 Gerber Fmt 4.6, Leading zero omitted, Abs format (unit mm)*
G04 Created by KiCad (PCBNEW 9.0.4) date 2025-08-23 10:29:59*
%MOMM*%
%LPD*%
G01*
G04 APERTURE LIST*
%ADD10C,0.120000*%
G04 APERTURE END LIST*
D10*
%TO.C,SW1*%
X153700000Y-75650000D02*
X154300000Y-75650000D01*
X154000000Y-75950000D02*
X153700000Y-75650000D01*
X154300000Y-75650000D02*
X154000000Y-75950000D01*
X155400000Y-73850000D02*
X155400000Y-85650000D01*
X159500000Y-73850000D02*
X155400000Y-73850000D01*
X159500000Y-85650000D02*
X155400000Y-85650000D01*
X161000000Y-79750000D02*
X162000000Y-79750000D01*
X161500000Y-79250000D02*
X161500000Y-80250000D01*
X163500000Y-73850000D02*
X167600000Y-73850000D01*
X167600000Y-73850000D02*
X167600000Y-76250000D01*
X167600000Y-78450000D02*
X167600000Y-81050000D01*
X167600000Y-83250000D02*
X167600000Y-85650000D01*
X167600000Y-85650000D02*
X163500000Y-85650000D01*
X164500000Y-79750000D02*
G75*
G02*
X158500000Y-79750000I-3000000J0D01*
G01*
X158500000Y-79750000D02*
G75*
G02*
X164500000Y-79750000I3000000J0D01*
G01*
%TO.C,JP2*%
X136230000Y-71500000D02*
X139030000Y-71500000D01*
X136230000Y-73500000D02*
X136230000Y-71500000D01*
X139030000Y-71500000D02*
X139030000Y-73500000D01*
X139030000Y-73500000D02*
X136230000Y-73500000D01*
%TO.C,R9*%
X183630000Y-83420000D02*
X183630000Y-89960000D01*
X183630000Y-89960000D02*
X183960000Y-89960000D01*
X183960000Y-83420000D02*
X183630000Y-83420000D01*
X186040000Y-83420000D02*
X186370000Y-83420000D01*
X186370000Y-83420000D02*
X186370000Y-89960000D01*
X186370000Y-89960000D02*
X186040000Y-89960000D01*
%TO.C,R8*%
X183630000Y-69540000D02*
X183630000Y-76080000D01*
X183630000Y-76080000D02*
X183960000Y-76080000D01*
X183960000Y-69540000D02*
X183630000Y-69540000D01*
X186040000Y-69540000D02*
X186370000Y-69540000D01*
X186370000Y-69540000D02*
X186370000Y-76080000D01*
X186370000Y-76080000D02*
X186040000Y-76080000D01*
%TO.C,U1*%
X141990000Y-73395000D02*
X141990000Y-73630000D01*
X141990000Y-86415000D02*
X141990000Y-86180000D01*
X145850000Y-73395000D02*
X141990000Y-73395000D01*
X145850000Y-73395000D02*
X149710000Y-73395000D01*
X145850000Y-86415000D02*
X141990000Y-86415000D01*
X145850000Y-86415000D02*
X149710000Y-86415000D01*
X149710000Y-73395000D02*
X149710000Y-73630000D01*
X149710000Y-86415000D02*
X149710000Y-86180000D01*
X141137500Y-73630000D02*
X140797500Y-73160000D01*
X141477500Y-73160000D01*
X141137500Y-73630000D01*
G36*
X141137500Y-73630000D02*
G01*
X140797500Y-73160000D01*
X141477500Y-73160000D01*
X141137500Y-73630000D01*
G37*
%TO.C,SW6*%
X176000000Y-84500000D02*
X176000000Y-89000000D01*
X178500000Y-90250000D02*
X180000000Y-90250000D01*
X180000000Y-83250000D02*
X178500000Y-83250000D01*
X182500000Y-89000000D02*
X182500000Y-84500000D01*
%TO.C,JP1*%
X136230000Y-68500000D02*
X139030000Y-68500000D01*
X136230000Y-70500000D02*
X136230000Y-68500000D01*
X139030000Y-68500000D02*
X139030000Y-70500000D01*
X139030000Y-70500000D02*
X136230000Y-70500000D01*
%TO.C,J2*%
X136120000Y-80730000D02*
X137500000Y-80730000D01*
X136120000Y-82110000D02*
X136120000Y-80730000D01*
X136120000Y-83380000D02*
X136120000Y-91110000D01*
X136120000Y-83380000D02*
X138880000Y-83380000D01*
X136120000Y-91110000D02*
X138880000Y-91110000D01*
X138880000Y-83380000D02*
X138880000Y-91110000D01*
%TO.C,R10*%
X175920000Y-78130000D02*
X175920000Y-78460000D01*
X175920000Y-80870000D02*
X175920000Y-80540000D01*
X182460000Y-78130000D02*
X175920000Y-78130000D01*
X182460000Y-78460000D02*
X182460000Y-78130000D01*
X182460000Y-80540000D02*
X182460000Y-80870000D01*
X182460000Y-80870000D02*
X175920000Y-80870000D01*
%TO.C,R3*%
X161730000Y-68380000D02*
X168270000Y-68380000D01*
X161730000Y-68710000D02*
X161730000Y-68380000D01*
X161730000Y-70790000D02*
X161730000Y-71120000D01*
X161730000Y-71120000D02*
X168270000Y-71120000D01*
X168270000Y-68380000D02*
X168270000Y-68710000D01*
X168270000Y-71120000D02*
X168270000Y-70790000D01*
%TO.C,R2*%
X166230000Y-88630000D02*
X166230000Y-88960000D01*
X166230000Y-91370000D02*
X166230000Y-91040000D01*
X172770000Y-88630000D02*
X166230000Y-88630000D01*
X172770000Y-88960000D02*
X172770000Y-88630000D01*
X172770000Y-91040000D02*
X172770000Y-91370000D01*
X172770000Y-91370000D02*
X166230000Y-91370000D01*
%TO.C,R1*%
X151730000Y-68380000D02*
X158270000Y-68380000D01*
X151730000Y-68710000D02*
X151730000Y-68380000D01*
X151730000Y-70790000D02*
X151730000Y-71120000D01*
X151730000Y-71120000D02*
X158270000Y-71120000D01*
X158270000Y-68380000D02*
X158270000Y-68710000D01*
X158270000Y-71120000D02*
X158270000Y-70790000D01*
%TO.C,JP3*%
X136230000Y-74500000D02*
X139030000Y-74500000D01*
X136230000Y-76500000D02*
X136230000Y-74500000D01*
X139030000Y-74500000D02*
X139030000Y-76500000D01*
X139030000Y-76500000D02*
X136230000Y-76500000D01*
%TO.C,R7*%
X186420000Y-78130000D02*
X186420000Y-78460000D01*
X186420000Y-80870000D02*
X186420000Y-80540000D01*
X192960000Y-78130000D02*
X186420000Y-78130000D01*
X192960000Y-78460000D02*
X192960000Y-78130000D01*
X192960000Y-80540000D02*
X192960000Y-80870000D01*
X192960000Y-80870000D02*
X186420000Y-80870000D01*
%TO.C,J4*%
X153080000Y-91110000D02*
X153080000Y-89730000D01*
X154460000Y-91110000D02*
X153080000Y-91110000D01*
X155730000Y-88350000D02*
X163460000Y-88350000D01*
X155730000Y-91110000D02*
X155730000Y-88350000D01*
X155730000Y-91110000D02*
X163460000Y-91110000D01*
X163460000Y-91110000D02*
X163460000Y-88350000D01*
%TO.C,J3*%
X141040000Y-88350000D02*
X141040000Y-91110000D01*
X148770000Y-88350000D02*
X141040000Y-88350000D01*
X148770000Y-88350000D02*
X148770000Y-91110000D01*
X148770000Y-91110000D02*
X141040000Y-91110000D01*
X150040000Y-88350000D02*
X151420000Y-88350000D01*
X151420000Y-88350000D02*
X151420000Y-89730000D01*
%TO.C,JP4*%
X136230000Y-77500000D02*
X139030000Y-77500000D01*
X136230000Y-79500000D02*
X136230000Y-77500000D01*
X139030000Y-77500000D02*
X139030000Y-79500000D01*
X139030000Y-79500000D02*
X136230000Y-79500000D01*
%TO.C,SW4*%
X187500000Y-70500000D02*
X187500000Y-75000000D01*
X190000000Y-76250000D02*
X191500000Y-76250000D01*
X191500000Y-69250000D02*
X190000000Y-69250000D01*
X194000000Y-75000000D02*
X194000000Y-70500000D01*
%TO.C,SW5*%
X187500000Y-84500000D02*
X187500000Y-89000000D01*
X190000000Y-90250000D02*
X191500000Y-90250000D01*
X191500000Y-83250000D02*
X190000000Y-83250000D01*
X194000000Y-89000000D02*
X194000000Y-84500000D01*
%TO.C,J1*%
X141080000Y-71400000D02*
X141080000Y-70020000D01*
X142460000Y-71400000D02*
X141080000Y-71400000D01*
X143730000Y-68640000D02*
X148920000Y-68640000D01*
X143730000Y-71400000D02*
X143730000Y-68640000D01*
X143730000Y-71400000D02*
X148920000Y-71400000D01*
X148920000Y-71400000D02*
X148920000Y-68640000D01*
%TO.C,SW2*%
X176000000Y-70500000D02*
X176000000Y-75000000D01*
X178500000Y-76250000D02*
X180000000Y-76250000D01*
X180000000Y-69250000D02*
X178500000Y-69250000D01*
X182500000Y-75000000D02*
X182500000Y-70500000D01*
%TD*%
M02*
