%TF.GenerationSoftware,KiCad,Pcbnew,9.0.4*%
%TF.CreationDate,2025-08-23T10:29:59+02:00*%
%TF.ProjectId,i2c_hid,6932635f-6869-4642-9e6b-696361645f70,rev?*%
%TF.SameCoordinates,Original*%
%TF.FileFunction,Copper,L1,Top*%
%TF.FilePolarity,Positive*%
%FSLAX46Y46*%
G04 Gerber Fmt 4.6, Leading zero omitted, Abs format (unit mm)*
G04 Created by KiCad (PCBNEW 9.0.4) date 2025-08-23 10:29:59*
%MOMM*%
%LPD*%
G01*
G04 APERTURE LIST*
G04 Aperture macros list*
%AMRoundRect*
0 Rectangle with rounded corners*
0 $1 Rounding radius*
0 $2 $3 $4 $5 $6 $7 $8 $9 X,Y pos of 4 corners*
0 Add a 4 corners polygon primitive as box body*
4,1,4,$2,$3,$4,$5,$6,$7,$8,$9,$2,$3,0*
0 Add four circle primitives for the rounded corners*
1,1,$1+$1,$2,$3*
1,1,$1+$1,$4,$5*
1,1,$1+$1,$6,$7*
1,1,$1+$1,$8,$9*
0 Add four rect primitives between the rounded corners*
20,1,$1+$1,$2,$3,$4,$5,0*
20,1,$1+$1,$4,$5,$6,$7,0*
20,1,$1+$1,$6,$7,$8,$9,0*
20,1,$1+$1,$8,$9,$2,$3,0*%
G04 Aperture macros list end*
%TA.AperFunction,ComponentPad*%
%ADD10R,2.000000X2.000000*%
%TD*%
%TA.AperFunction,ComponentPad*%
%ADD11C,2.000000*%
%TD*%
%TA.AperFunction,ComponentPad*%
%ADD12R,3.200000X2.000000*%
%TD*%
%TA.AperFunction,SMDPad,CuDef*%
%ADD13R,1.000000X1.500000*%
%TD*%
%TA.AperFunction,ComponentPad*%
%ADD14C,1.600000*%
%TD*%
%TA.AperFunction,SMDPad,CuDef*%
%ADD15RoundRect,0.150000X-0.875000X-0.150000X0.875000X-0.150000X0.875000X0.150000X-0.875000X0.150000X0*%
%TD*%
%TA.AperFunction,ComponentPad*%
%ADD16R,1.700000X1.700000*%
%TD*%
%TA.AperFunction,ComponentPad*%
%ADD17C,1.700000*%
%TD*%
%TA.AperFunction,ViaPad*%
%ADD18C,0.600000*%
%TD*%
%TA.AperFunction,Conductor*%
%ADD19C,0.200000*%
%TD*%
G04 APERTURE END LIST*
D10*
%TO.P,SW1,A,A*%
%TO.N,Net-(U1-PA1)*%
X154000000Y-77250000D03*
D11*
%TO.P,SW1,B,B*%
%TO.N,Net-(U1-PA2)*%
X154000000Y-82250000D03*
%TO.P,SW1,C,C*%
%TO.N,GND*%
X154000000Y-79750000D03*
D12*
%TO.P,SW1,MP*%
%TO.N,N/C*%
X161500000Y-74150000D03*
X161500000Y-85350000D03*
D11*
%TO.P,SW1,S1,S1*%
%TO.N,GND*%
X168500000Y-82250000D03*
%TO.P,SW1,S2,S2*%
%TO.N,Net-(U1-PA3)*%
X168500000Y-77250000D03*
%TD*%
D13*
%TO.P,JP2,1,A*%
%TO.N,Net-(JP2-A)*%
X138280000Y-72500000D03*
%TO.P,JP2,2,B*%
%TO.N,VCC*%
X136980000Y-72500000D03*
%TD*%
D14*
%TO.P,R9,1*%
%TO.N,VCC*%
X185000000Y-82880000D03*
%TO.P,R9,2*%
%TO.N,Net-(U1-PC2)*%
X185000000Y-90500000D03*
%TD*%
%TO.P,R8,1*%
%TO.N,VCC*%
X185000000Y-69000000D03*
%TO.P,R8,2*%
%TO.N,Net-(U1-PC1)*%
X185000000Y-76620000D03*
%TD*%
D15*
%TO.P,U1,1,VCC*%
%TO.N,VCC*%
X141200000Y-74190000D03*
%TO.P,U1,2,PA4*%
%TO.N,Net-(JP1-A)*%
X141200000Y-75460000D03*
%TO.P,U1,3,PA5*%
%TO.N,Net-(JP2-A)*%
X141200000Y-76730000D03*
%TO.P,U1,4,PA6*%
%TO.N,Net-(JP3-A)*%
X141200000Y-78000000D03*
%TO.P,U1,5,PA7*%
%TO.N,Net-(JP4-A)*%
X141200000Y-79270000D03*
%TO.P,U1,6,PB5*%
%TO.N,Net-(J4-Pin_3)*%
X141200000Y-80540000D03*
%TO.P,U1,7,PB4*%
%TO.N,Net-(J4-Pin_4)*%
X141200000Y-81810000D03*
%TO.P,U1,8,PB3*%
%TO.N,Net-(J3-Pin_3)*%
X141200000Y-83080000D03*
%TO.P,U1,9,PB2*%
%TO.N,Net-(J3-Pin_4)*%
X141200000Y-84350000D03*
%TO.P,U1,10,PB1*%
%TO.N,Net-(J2-Pin_3)*%
X141200000Y-85620000D03*
%TO.P,U1,11,PB0*%
%TO.N,Net-(J2-Pin_4)*%
X150500000Y-85620000D03*
%TO.P,U1,12,PC0*%
%TO.N,Net-(U1-PC0)*%
X150500000Y-84350000D03*
%TO.P,U1,13,PC1*%
%TO.N,Net-(U1-PC1)*%
X150500000Y-83080000D03*
%TO.P,U1,14,PC2*%
%TO.N,Net-(U1-PC2)*%
X150500000Y-81810000D03*
%TO.P,U1,15,PC3*%
%TO.N,Net-(U1-PC3)*%
X150500000Y-80540000D03*
%TO.P,U1,16,~{RESET}/PA0*%
%TO.N,Net-(J1-Pin_3)*%
X150500000Y-79270000D03*
%TO.P,U1,17,PA1*%
%TO.N,Net-(U1-PA1)*%
X150500000Y-78000000D03*
%TO.P,U1,18,PA2*%
%TO.N,Net-(U1-PA2)*%
X150500000Y-76730000D03*
%TO.P,U1,19,PA3*%
%TO.N,Net-(U1-PA3)*%
X150500000Y-75460000D03*
%TO.P,U1,20,GND*%
%TO.N,GND*%
X150500000Y-74190000D03*
%TD*%
D11*
%TO.P,SW6,1,1*%
%TO.N,GND*%
X181500000Y-83500000D03*
X181500000Y-90000000D03*
%TO.P,SW6,2,2*%
%TO.N,Net-(U1-PC3)*%
X177000000Y-83500000D03*
X177000000Y-90000000D03*
%TD*%
D13*
%TO.P,JP1,1,A*%
%TO.N,Net-(JP1-A)*%
X138280000Y-69500000D03*
%TO.P,JP1,2,B*%
%TO.N,VCC*%
X136980000Y-69500000D03*
%TD*%
D16*
%TO.P,J2,1,Pin_1*%
%TO.N,GND*%
X137500000Y-82110000D03*
D17*
%TO.P,J2,2,Pin_2*%
%TO.N,VCC*%
X137500000Y-84650000D03*
%TO.P,J2,3,Pin_3*%
%TO.N,Net-(J2-Pin_3)*%
X137500000Y-87190000D03*
%TO.P,J2,4,Pin_4*%
%TO.N,Net-(J2-Pin_4)*%
X137500000Y-89730000D03*
%TD*%
D14*
%TO.P,R10,1*%
%TO.N,VCC*%
X183000000Y-79500000D03*
%TO.P,R10,2*%
%TO.N,Net-(U1-PC3)*%
X175380000Y-79500000D03*
%TD*%
%TO.P,R3,1*%
%TO.N,VCC*%
X161190000Y-69750000D03*
%TO.P,R3,2*%
%TO.N,Net-(U1-PA3)*%
X168810000Y-69750000D03*
%TD*%
%TO.P,R2,1*%
%TO.N,VCC*%
X173310000Y-90000000D03*
%TO.P,R2,2*%
%TO.N,Net-(U1-PA2)*%
X165690000Y-90000000D03*
%TD*%
%TO.P,R1,1*%
%TO.N,VCC*%
X151190000Y-69750000D03*
%TO.P,R1,2*%
%TO.N,Net-(U1-PA1)*%
X158810000Y-69750000D03*
%TD*%
D13*
%TO.P,JP3,1,A*%
%TO.N,Net-(JP3-A)*%
X138280000Y-75500000D03*
%TO.P,JP3,2,B*%
%TO.N,VCC*%
X136980000Y-75500000D03*
%TD*%
D14*
%TO.P,R7,1*%
%TO.N,VCC*%
X193500000Y-79500000D03*
%TO.P,R7,2*%
%TO.N,Net-(U1-PC0)*%
X185880000Y-79500000D03*
%TD*%
D16*
%TO.P,J4,1,Pin_1*%
%TO.N,GND*%
X154460000Y-89730000D03*
D17*
%TO.P,J4,2,Pin_2*%
%TO.N,VCC*%
X157000000Y-89730000D03*
%TO.P,J4,3,Pin_3*%
%TO.N,Net-(J4-Pin_3)*%
X159540000Y-89730000D03*
%TO.P,J4,4,Pin_4*%
%TO.N,Net-(J4-Pin_4)*%
X162080000Y-89730000D03*
%TD*%
D16*
%TO.P,J3,1,Pin_1*%
%TO.N,GND*%
X150040000Y-89730000D03*
D17*
%TO.P,J3,2,Pin_2*%
%TO.N,VCC*%
X147500000Y-89730000D03*
%TO.P,J3,3,Pin_3*%
%TO.N,Net-(J3-Pin_3)*%
X144960000Y-89730000D03*
%TO.P,J3,4,Pin_4*%
%TO.N,Net-(J3-Pin_4)*%
X142420000Y-89730000D03*
%TD*%
D13*
%TO.P,JP4,1,A*%
%TO.N,Net-(JP4-A)*%
X138280000Y-78500000D03*
%TO.P,JP4,2,B*%
%TO.N,VCC*%
X136980000Y-78500000D03*
%TD*%
D11*
%TO.P,SW4,1,1*%
%TO.N,GND*%
X188500000Y-76000000D03*
X188500000Y-69500000D03*
%TO.P,SW4,2,2*%
%TO.N,Net-(U1-PC1)*%
X193000000Y-76000000D03*
X193000000Y-69500000D03*
%TD*%
%TO.P,SW5,1,1*%
%TO.N,GND*%
X193000000Y-83500000D03*
X193000000Y-90000000D03*
%TO.P,SW5,2,2*%
%TO.N,Net-(U1-PC2)*%
X188500000Y-83500000D03*
X188500000Y-90000000D03*
%TD*%
D16*
%TO.P,J1,1,Pin_1*%
%TO.N,VCC*%
X142460000Y-70020000D03*
D17*
%TO.P,J1,2,Pin_2*%
%TO.N,GND*%
X145000000Y-70020000D03*
%TO.P,J1,3,Pin_3*%
%TO.N,Net-(J1-Pin_3)*%
X147540000Y-70020000D03*
%TD*%
D11*
%TO.P,SW2,1,1*%
%TO.N,GND*%
X177000000Y-76000000D03*
X177000000Y-69500000D03*
%TO.P,SW2,2,2*%
%TO.N,Net-(U1-PC0)*%
X181500000Y-76000000D03*
X181500000Y-69500000D03*
%TD*%
D18*
%TO.N,Net-(J4-Pin_3)*%
X156050000Y-86423900D03*
%TO.N,Net-(U1-PC3)*%
X153125100Y-74825000D03*
X147689200Y-80095500D03*
%TO.N,Net-(U1-PA1)*%
X148067300Y-77108200D03*
%TO.N,Net-(J2-Pin_4)*%
X153783600Y-85344300D03*
%TO.N,VCC*%
X136980000Y-77000000D03*
%TO.N,Net-(J1-Pin_3)*%
X147247100Y-76286400D03*
%TD*%
D19*
%TO.N,Net-(JP4-A)*%
X140051700Y-79270000D02*
X139281700Y-78500000D01*
X141200000Y-79270000D02*
X140051700Y-79270000D01*
X138280000Y-78500000D02*
X139281700Y-78500000D01*
%TO.N,Net-(JP3-A)*%
X138280000Y-75500000D02*
X138280000Y-76751700D01*
X140506100Y-78000000D02*
X141200000Y-78000000D01*
X139257800Y-76751700D02*
X140506100Y-78000000D01*
X138280000Y-76751700D02*
X139257800Y-76751700D01*
%TO.N,Net-(JP2-A)*%
X140522500Y-76730000D02*
X141200000Y-76730000D01*
X139281700Y-75489200D02*
X140522500Y-76730000D01*
X139281700Y-72500000D02*
X139281700Y-75489200D01*
X138280000Y-72500000D02*
X139281700Y-72500000D01*
%TO.N,Net-(JP1-A)*%
X138280000Y-69500000D02*
X139281700Y-69500000D01*
X142742400Y-72960700D02*
X139281700Y-69500000D01*
X142742400Y-74633200D02*
X142742400Y-72960700D01*
X141915600Y-75460000D02*
X142742400Y-74633200D01*
X141200000Y-75460000D02*
X141915600Y-75460000D01*
%TO.N,Net-(J4-Pin_4)*%
X160678200Y-88328200D02*
X162080000Y-89730000D01*
X149558900Y-88328200D02*
X160678200Y-88328200D01*
X143040700Y-81810000D02*
X149558900Y-88328200D01*
X141200000Y-81810000D02*
X143040700Y-81810000D01*
%TO.N,Net-(J4-Pin_3)*%
X155449900Y-87024000D02*
X156050000Y-86423900D01*
X149105600Y-87024000D02*
X155449900Y-87024000D01*
X142621600Y-80540000D02*
X149105600Y-87024000D01*
X141200000Y-80540000D02*
X142621600Y-80540000D01*
%TO.N,Net-(U1-PC3)*%
X157839200Y-74825000D02*
X153125100Y-74825000D01*
X158741000Y-75726800D02*
X157839200Y-74825000D01*
X171606800Y-75726800D02*
X158741000Y-75726800D01*
X175380000Y-79500000D02*
X171606800Y-75726800D01*
X150055500Y-80095500D02*
X150500000Y-80540000D01*
X147689200Y-80095500D02*
X150055500Y-80095500D01*
%TO.N,Net-(U1-PC2)*%
X188000000Y-90500000D02*
X188500000Y-90000000D01*
X185000000Y-90500000D02*
X188000000Y-90500000D01*
X186416400Y-87916400D02*
X188500000Y-90000000D01*
X170839700Y-87916400D02*
X186416400Y-87916400D01*
X170649800Y-87726500D02*
X170839700Y-87916400D01*
X159684500Y-87726500D02*
X170649800Y-87726500D01*
X157580100Y-85622100D02*
X159684500Y-87726500D01*
X155038800Y-85622100D02*
X157580100Y-85622100D01*
X154238600Y-86422300D02*
X155038800Y-85622100D01*
X149354800Y-86422300D02*
X154238600Y-86422300D01*
X148966300Y-86033800D02*
X149354800Y-86422300D01*
X148966300Y-82628900D02*
X148966300Y-86033800D01*
X149785200Y-81810000D02*
X148966300Y-82628900D01*
X150500000Y-81810000D02*
X149785200Y-81810000D01*
%TO.N,Net-(U1-PC1)*%
X185818400Y-77438400D02*
X185000000Y-76620000D01*
X186103000Y-77438400D02*
X185818400Y-77438400D01*
X186173000Y-77508400D02*
X186103000Y-77438400D01*
X191491600Y-77508400D02*
X186173000Y-77508400D01*
X193000000Y-76000000D02*
X191491600Y-77508400D01*
X184440000Y-78816800D02*
X185818400Y-77438400D01*
X184440000Y-79959100D02*
X184440000Y-78816800D01*
X183570900Y-80828200D02*
X184440000Y-79959100D01*
X169956700Y-80828200D02*
X183570900Y-80828200D01*
X169843300Y-80714800D02*
X169956700Y-80828200D01*
X157695500Y-80714800D02*
X169843300Y-80714800D01*
X154643300Y-83767000D02*
X157695500Y-80714800D01*
X153344500Y-83767000D02*
X154643300Y-83767000D01*
X152657500Y-83080000D02*
X153344500Y-83767000D01*
X150500000Y-83080000D02*
X152657500Y-83080000D01*
%TO.N,Net-(U1-PC0)*%
X183668100Y-81711900D02*
X185880000Y-79500000D01*
X183668100Y-83497000D02*
X183668100Y-81711900D01*
X182117100Y-85048000D02*
X183668100Y-83497000D01*
X175631700Y-85048000D02*
X182117100Y-85048000D01*
X174404900Y-83821200D02*
X175631700Y-85048000D01*
X157662500Y-83821200D02*
X174404900Y-83821200D01*
X157041000Y-84442700D02*
X157662500Y-83821200D01*
X150592700Y-84442700D02*
X157041000Y-84442700D01*
X150500000Y-84350000D02*
X150592700Y-84442700D01*
%TO.N,Net-(U1-PA3)*%
X158474900Y-77250000D02*
X168500000Y-77250000D01*
X156851600Y-75626700D02*
X158474900Y-77250000D01*
X150666700Y-75626700D02*
X156851600Y-75626700D01*
X150500000Y-75460000D02*
X150666700Y-75626700D01*
%TO.N,Net-(U1-PA2)*%
X151185500Y-76730000D02*
X150500000Y-76730000D01*
X152105600Y-77650100D02*
X151185500Y-76730000D01*
X152105600Y-80355600D02*
X152105600Y-77650100D01*
X154000000Y-82250000D02*
X152105600Y-80355600D01*
%TO.N,Net-(U1-PA1)*%
X148959100Y-78000000D02*
X148067300Y-77108200D01*
X150500000Y-78000000D02*
X148959100Y-78000000D01*
%TO.N,Net-(J3-Pin_4)*%
X142770600Y-89379400D02*
X142420000Y-89730000D01*
X142770600Y-85243100D02*
X142770600Y-89379400D01*
X141877500Y-84350000D02*
X142770600Y-85243100D01*
X141200000Y-84350000D02*
X141877500Y-84350000D01*
%TO.N,Net-(J3-Pin_3)*%
X141887800Y-83080000D02*
X141200000Y-83080000D01*
X144960000Y-86152200D02*
X141887800Y-83080000D01*
X144960000Y-89730000D02*
X144960000Y-86152200D01*
%TO.N,Net-(J2-Pin_3)*%
X139630000Y-87190000D02*
X137500000Y-87190000D01*
X141200000Y-85620000D02*
X139630000Y-87190000D01*
%TO.N,Net-(J2-Pin_4)*%
X150775700Y-85344300D02*
X150500000Y-85620000D01*
X153783600Y-85344300D02*
X150775700Y-85344300D01*
%TO.N,VCC*%
X188380000Y-79500000D02*
X185000000Y-82880000D01*
X193500000Y-79500000D02*
X188380000Y-79500000D01*
X136980000Y-75500000D02*
X136980000Y-74248300D01*
X136980000Y-74248300D02*
X136980000Y-73751700D01*
X136980000Y-72500000D02*
X136980000Y-73751700D01*
X151190000Y-68642700D02*
X151190000Y-69750000D01*
X143837300Y-68642700D02*
X142460000Y-70020000D01*
X151190000Y-68642700D02*
X143837300Y-68642700D01*
X151445500Y-68387200D02*
X151190000Y-68642700D01*
X159827200Y-68387200D02*
X151445500Y-68387200D01*
X161190000Y-69750000D02*
X159827200Y-68387200D01*
X162942500Y-67997500D02*
X161190000Y-69750000D01*
X183997500Y-67997500D02*
X162942500Y-67997500D01*
X185000000Y-69000000D02*
X183997500Y-67997500D01*
X157199700Y-91327900D02*
X157000000Y-91128200D01*
X171982100Y-91327900D02*
X157199700Y-91327900D01*
X173310000Y-90000000D02*
X171982100Y-91327900D01*
X148898200Y-91128200D02*
X147500000Y-89730000D01*
X157000000Y-91128200D02*
X148898200Y-91128200D01*
X157000000Y-91128200D02*
X157000000Y-89730000D01*
X138980100Y-71240600D02*
X136980000Y-71240600D01*
X141200000Y-73460500D02*
X138980100Y-71240600D01*
X141200000Y-74190000D02*
X141200000Y-73460500D01*
X136980000Y-69500000D02*
X136980000Y-71240600D01*
X136980000Y-71240600D02*
X136980000Y-72500000D01*
X136980000Y-78500000D02*
X136980000Y-77000000D01*
X136980000Y-77000000D02*
X136980000Y-75500000D01*
%TO.N,GND*%
X150040000Y-89730000D02*
X154460000Y-89730000D01*
X149170000Y-74190000D02*
X145000000Y-70020000D01*
X150500000Y-74190000D02*
X149170000Y-74190000D01*
X179984400Y-81984400D02*
X181500000Y-83500000D01*
X168765600Y-81984400D02*
X179984400Y-81984400D01*
X168500000Y-82250000D02*
X168765600Y-81984400D01*
X152041700Y-72648300D02*
X150500000Y-74190000D01*
X173648300Y-72648300D02*
X152041700Y-72648300D01*
X177000000Y-76000000D02*
X173648300Y-72648300D01*
%TO.N,Net-(J1-Pin_3)*%
X147247200Y-76286400D02*
X147247100Y-76286400D01*
X147247200Y-77463700D02*
X147247200Y-76286400D01*
X149053500Y-79270000D02*
X147247200Y-77463700D01*
X150500000Y-79270000D02*
X149053500Y-79270000D01*
%TD*%
%TA.AperFunction,Conductor*%
%TO.N,GND*%
G36*
X135955703Y-79319900D02*
G01*
X135990682Y-79370280D01*
X136036202Y-79492328D01*
X136036206Y-79492335D01*
X136122452Y-79607544D01*
X136122455Y-79607547D01*
X136237664Y-79693793D01*
X136237671Y-79693797D01*
X136372517Y-79744091D01*
X136372516Y-79744091D01*
X136379444Y-79744835D01*
X136432127Y-79750500D01*
X137527872Y-79750499D01*
X137587483Y-79744091D01*
X137587485Y-79744090D01*
X137587487Y-79744090D01*
X137595031Y-79742308D01*
X137595377Y-79743775D01*
X137656342Y-79739408D01*
X137671378Y-79743822D01*
X137672513Y-79744089D01*
X137672517Y-79744091D01*
X137732127Y-79750500D01*
X138827872Y-79750499D01*
X138887483Y-79744091D01*
X139022331Y-79693796D01*
X139137546Y-79607546D01*
X139223796Y-79492331D01*
X139223797Y-79492326D01*
X139224087Y-79491940D01*
X139238360Y-79481255D01*
X139249044Y-79466984D01*
X139265747Y-79460753D01*
X139280021Y-79450069D01*
X139297804Y-79448797D01*
X139314508Y-79442567D01*
X139331929Y-79446356D01*
X139349712Y-79445085D01*
X139365359Y-79453629D01*
X139382781Y-79457419D01*
X139411035Y-79478570D01*
X139566839Y-79634374D01*
X139566849Y-79634385D01*
X139571179Y-79638715D01*
X139571180Y-79638716D01*
X139682984Y-79750520D01*
X139772786Y-79802367D01*
X139821001Y-79852932D01*
X139834225Y-79921538D01*
X139810562Y-79981226D01*
X139810890Y-79981420D01*
X139809665Y-79983490D01*
X139808771Y-79985747D01*
X139806918Y-79988135D01*
X139723255Y-80129603D01*
X139723254Y-80129606D01*
X139677402Y-80287426D01*
X139677401Y-80287432D01*
X139674500Y-80324298D01*
X139674500Y-80755701D01*
X139677401Y-80792567D01*
X139677402Y-80792573D01*
X139723254Y-80950393D01*
X139723255Y-80950396D01*
X139723256Y-80950398D01*
X139755963Y-81005703D01*
X139806917Y-81091862D01*
X139811702Y-81098031D01*
X139809256Y-81099927D01*
X139835857Y-81148642D01*
X139830873Y-81218334D01*
X139810069Y-81250703D01*
X139811702Y-81251969D01*
X139806917Y-81258137D01*
X139723255Y-81399603D01*
X139723254Y-81399606D01*
X139677402Y-81557426D01*
X139677401Y-81557432D01*
X139674500Y-81594298D01*
X139674500Y-82025701D01*
X139677401Y-82062567D01*
X139677402Y-82062573D01*
X139723254Y-82220393D01*
X139723255Y-82220396D01*
X139806917Y-82361862D01*
X139811702Y-82368031D01*
X139809256Y-82369927D01*
X139835857Y-82418642D01*
X139830873Y-82488334D01*
X139810069Y-82520703D01*
X139811702Y-82521969D01*
X139806917Y-82528137D01*
X139723255Y-82669603D01*
X139723254Y-82669606D01*
X139677402Y-82827426D01*
X139677401Y-82827432D01*
X139674500Y-82864298D01*
X139674500Y-83295701D01*
X139677401Y-83332567D01*
X139677402Y-83332573D01*
X139723254Y-83490393D01*
X139723255Y-83490396D01*
X139723256Y-83490398D01*
X139728934Y-83499999D01*
X139806917Y-83631862D01*
X139811702Y-83638031D01*
X139809256Y-83639927D01*
X139835857Y-83688642D01*
X139830873Y-83758334D01*
X139810069Y-83790703D01*
X139811702Y-83791969D01*
X139806917Y-83798137D01*
X139723255Y-83939603D01*
X139723254Y-83939606D01*
X139677402Y-84097426D01*
X139677401Y-84097432D01*
X139674500Y-84134298D01*
X139674500Y-84565701D01*
X139677401Y-84602567D01*
X139677402Y-84602573D01*
X139723254Y-84760393D01*
X139723255Y-84760396D01*
X139806917Y-84901862D01*
X139811702Y-84908031D01*
X139809256Y-84909927D01*
X139835857Y-84958642D01*
X139830873Y-85028334D01*
X139810069Y-85060703D01*
X139811702Y-85061969D01*
X139806917Y-85068137D01*
X139723255Y-85209603D01*
X139723254Y-85209606D01*
X139677402Y-85367426D01*
X139677401Y-85367432D01*
X139674500Y-85404298D01*
X139674500Y-85835701D01*
X139677401Y-85872567D01*
X139677402Y-85872573D01*
X139723254Y-86030394D01*
X139723256Y-86030400D01*
X139754977Y-86084037D01*
X139772159Y-86151761D01*
X139749999Y-86218023D01*
X139735925Y-86234838D01*
X139417582Y-86553182D01*
X139356261Y-86586666D01*
X139329903Y-86589500D01*
X138785719Y-86589500D01*
X138718680Y-86569815D01*
X138675235Y-86521795D01*
X138655052Y-86482185D01*
X138655051Y-86482184D01*
X138530109Y-86310213D01*
X138379786Y-86159890D01*
X138207820Y-86034951D01*
X138207115Y-86034591D01*
X138199054Y-86030485D01*
X138148259Y-85982512D01*
X138131463Y-85914692D01*
X138153999Y-85848556D01*
X138199054Y-85809515D01*
X138207816Y-85805051D01*
X138237501Y-85783484D01*
X138379786Y-85680109D01*
X138379788Y-85680106D01*
X138379792Y-85680104D01*
X138530104Y-85529792D01*
X138530106Y-85529788D01*
X138530109Y-85529786D01*
X138655048Y-85357820D01*
X138655047Y-85357820D01*
X138655051Y-85357816D01*
X138751557Y-85168412D01*
X138817246Y-84966243D01*
X138850500Y-84756287D01*
X138850500Y-84543713D01*
X138817246Y-84333757D01*
X138751557Y-84131588D01*
X138655051Y-83942184D01*
X138655049Y-83942181D01*
X138655048Y-83942179D01*
X138530109Y-83770213D01*
X138416181Y-83656285D01*
X138382696Y-83594962D01*
X138387680Y-83525270D01*
X138429552Y-83469337D01*
X138460529Y-83452422D01*
X138592086Y-83403354D01*
X138592093Y-83403350D01*
X138707187Y-83317190D01*
X138707190Y-83317187D01*
X138793350Y-83202093D01*
X138793354Y-83202086D01*
X138843596Y-83067379D01*
X138843598Y-83067372D01*
X138849999Y-83007844D01*
X138850000Y-83007827D01*
X138850000Y-82360000D01*
X137933012Y-82360000D01*
X137965925Y-82302993D01*
X138000000Y-82175826D01*
X138000000Y-82044174D01*
X137965925Y-81917007D01*
X137933012Y-81860000D01*
X138850000Y-81860000D01*
X138850000Y-81212172D01*
X138849999Y-81212155D01*
X138843598Y-81152627D01*
X138843596Y-81152620D01*
X138793354Y-81017913D01*
X138793350Y-81017906D01*
X138707190Y-80902812D01*
X138707187Y-80902809D01*
X138592093Y-80816649D01*
X138592086Y-80816645D01*
X138457379Y-80766403D01*
X138457372Y-80766401D01*
X138397844Y-80760000D01*
X137750000Y-80760000D01*
X137750000Y-81676988D01*
X137692993Y-81644075D01*
X137565826Y-81610000D01*
X137434174Y-81610000D01*
X137307007Y-81644075D01*
X137250000Y-81676988D01*
X137250000Y-80760000D01*
X136602155Y-80760000D01*
X136542627Y-80766401D01*
X136542620Y-80766403D01*
X136407913Y-80816645D01*
X136407906Y-80816649D01*
X136292812Y-80902809D01*
X136292809Y-80902812D01*
X136206649Y-81017906D01*
X136206645Y-81017913D01*
X136156403Y-81152620D01*
X136156401Y-81152627D01*
X136150000Y-81212155D01*
X136150000Y-81860000D01*
X137066988Y-81860000D01*
X137034075Y-81917007D01*
X137000000Y-82044174D01*
X137000000Y-82175826D01*
X137034075Y-82302993D01*
X137066988Y-82360000D01*
X136150000Y-82360000D01*
X136150000Y-83007844D01*
X136156401Y-83067372D01*
X136156403Y-83067379D01*
X136206645Y-83202086D01*
X136206649Y-83202093D01*
X136292809Y-83317187D01*
X136292812Y-83317190D01*
X136407906Y-83403350D01*
X136407913Y-83403354D01*
X136539470Y-83452422D01*
X136595404Y-83494293D01*
X136619821Y-83559758D01*
X136604969Y-83628031D01*
X136583819Y-83656285D01*
X136469889Y-83770215D01*
X136344951Y-83942179D01*
X136248444Y-84131585D01*
X136182753Y-84333760D01*
X136159985Y-84477511D01*
X136149500Y-84543713D01*
X136149500Y-84756287D01*
X136156616Y-84801216D01*
X136182250Y-84963065D01*
X136182754Y-84966243D01*
X136239724Y-85141579D01*
X136248444Y-85168414D01*
X136344951Y-85357820D01*
X136469890Y-85529786D01*
X136620213Y-85680109D01*
X136792182Y-85805050D01*
X136800946Y-85809516D01*
X136851742Y-85857491D01*
X136868536Y-85925312D01*
X136845998Y-85991447D01*
X136800946Y-86030484D01*
X136792182Y-86034949D01*
X136620213Y-86159890D01*
X136469890Y-86310213D01*
X136344951Y-86482179D01*
X136248444Y-86671585D01*
X136182753Y-86873760D01*
X136149500Y-87083713D01*
X136149500Y-87296287D01*
X136159088Y-87356823D01*
X136171609Y-87435881D01*
X136182754Y-87506243D01*
X136242779Y-87690981D01*
X136248444Y-87708414D01*
X136344951Y-87897820D01*
X136469890Y-88069786D01*
X136620213Y-88220109D01*
X136792182Y-88345050D01*
X136800946Y-88349516D01*
X136851742Y-88397491D01*
X136868536Y-88465312D01*
X136845998Y-88531447D01*
X136800946Y-88570484D01*
X136792182Y-88574949D01*
X136620213Y-88699890D01*
X136469890Y-88850213D01*
X136344951Y-89022179D01*
X136248444Y-89211585D01*
X136182753Y-89413760D01*
X136149500Y-89623713D01*
X136149500Y-89836286D01*
X136175552Y-90000776D01*
X136182754Y-90046243D01*
X136231239Y-90195465D01*
X136248444Y-90248414D01*
X136344951Y-90437820D01*
X136469890Y-90609786D01*
X136620213Y-90760109D01*
X136792179Y-90885048D01*
X136792181Y-90885049D01*
X136792184Y-90885051D01*
X136981588Y-90981557D01*
X137183757Y-91047246D01*
X137393713Y-91080500D01*
X137393714Y-91080500D01*
X137606286Y-91080500D01*
X137606287Y-91080500D01*
X137816243Y-91047246D01*
X138018412Y-90981557D01*
X138207816Y-90885051D01*
X138318639Y-90804534D01*
X138379786Y-90760109D01*
X138379788Y-90760106D01*
X138379792Y-90760104D01*
X138530104Y-90609792D01*
X138530106Y-90609788D01*
X138530109Y-90609786D01*
X138655048Y-90437820D01*
X138655047Y-90437820D01*
X138655051Y-90437816D01*
X138751557Y-90248412D01*
X138817246Y-90046243D01*
X138850500Y-89836287D01*
X138850500Y-89623713D01*
X138817246Y-89413757D01*
X138751557Y-89211588D01*
X138655051Y-89022184D01*
X138655049Y-89022181D01*
X138655048Y-89022179D01*
X138530109Y-88850213D01*
X138379786Y-88699890D01*
X138207820Y-88574951D01*
X138207115Y-88574591D01*
X138199054Y-88570485D01*
X138148259Y-88522512D01*
X138131463Y-88454692D01*
X138153999Y-88388556D01*
X138199054Y-88349515D01*
X138207816Y-88345051D01*
X138268300Y-88301107D01*
X138379786Y-88220109D01*
X138379788Y-88220106D01*
X138379792Y-88220104D01*
X138530104Y-88069792D01*
X138530106Y-88069788D01*
X138530109Y-88069786D01*
X138588661Y-87989193D01*
X138655051Y-87897816D01*
X138655349Y-87897230D01*
X138675235Y-87858205D01*
X138723209Y-87807409D01*
X138785719Y-87790500D01*
X139543331Y-87790500D01*
X139543347Y-87790501D01*
X139550943Y-87790501D01*
X139709054Y-87790501D01*
X139709057Y-87790501D01*
X139861785Y-87749577D01*
X139911904Y-87720639D01*
X139998716Y-87670520D01*
X140110520Y-87558716D01*
X140110520Y-87558714D01*
X140120728Y-87548507D01*
X140120729Y-87548504D01*
X141212416Y-86456819D01*
X141273739Y-86423334D01*
X141300097Y-86420500D01*
X142046100Y-86420500D01*
X142113139Y-86440185D01*
X142158894Y-86492989D01*
X142170100Y-86544500D01*
X142170100Y-88301107D01*
X142150415Y-88368146D01*
X142097611Y-88413901D01*
X142084423Y-88419035D01*
X141909181Y-88475976D01*
X141901585Y-88478444D01*
X141712179Y-88574951D01*
X141540213Y-88699890D01*
X141389890Y-88850213D01*
X141264951Y-89022179D01*
X141168444Y-89211585D01*
X141102753Y-89413760D01*
X141069500Y-89623713D01*
X141069500Y-89836286D01*
X141095552Y-90000776D01*
X141102754Y-90046243D01*
X141151239Y-90195465D01*
X141168444Y-90248414D01*
X141264951Y-90437820D01*
X141389890Y-90609786D01*
X141540213Y-90760109D01*
X141712179Y-90885048D01*
X141712181Y-90885049D01*
X141712184Y-90885051D01*
X141901588Y-90981557D01*
X142103757Y-91047246D01*
X142313713Y-91080500D01*
X142313714Y-91080500D01*
X142526286Y-91080500D01*
X142526287Y-91080500D01*
X142736243Y-91047246D01*
X142938412Y-90981557D01*
X143127816Y-90885051D01*
X143238639Y-90804534D01*
X143299786Y-90760109D01*
X143299788Y-90760106D01*
X143299792Y-90760104D01*
X143450104Y-90609792D01*
X143450106Y-90609788D01*
X143450109Y-90609786D01*
X143575048Y-90437820D01*
X143575047Y-90437820D01*
X143575051Y-90437816D01*
X143579514Y-90429054D01*
X143627488Y-90378259D01*
X143695308Y-90361463D01*
X143761444Y-90383999D01*
X143800486Y-90429056D01*
X143804951Y-90437820D01*
X143929890Y-90609786D01*
X144080213Y-90760109D01*
X144252179Y-90885048D01*
X144252181Y-90885049D01*
X144252184Y-90885051D01*
X144441588Y-90981557D01*
X144643757Y-91047246D01*
X144853713Y-91080500D01*
X144853714Y-91080500D01*
X145066286Y-91080500D01*
X145066287Y-91080500D01*
X145276243Y-91047246D01*
X145478412Y-90981557D01*
X145667816Y-90885051D01*
X145778639Y-90804534D01*
X145839786Y-90760109D01*
X145839788Y-90760106D01*
X145839792Y-90760104D01*
X145990104Y-90609792D01*
X145990106Y-90609788D01*
X145990109Y-90609786D01*
X146115048Y-90437820D01*
X146115047Y-90437820D01*
X146115051Y-90437816D01*
X146119514Y-90429054D01*
X146167488Y-90378259D01*
X146235308Y-90361463D01*
X146301444Y-90383999D01*
X146340486Y-90429056D01*
X146344951Y-90437820D01*
X146469890Y-90609786D01*
X146620213Y-90760109D01*
X146792179Y-90885048D01*
X146792181Y-90885049D01*
X146792184Y-90885051D01*
X146981588Y-90981557D01*
X147183757Y-91047246D01*
X147393713Y-91080500D01*
X147393714Y-91080500D01*
X147606286Y-91080500D01*
X147606287Y-91080500D01*
X147816243Y-91047246D01*
X147858523Y-91033507D01*
X147928362Y-91031511D01*
X147984522Y-91063757D01*
X148413339Y-91492574D01*
X148413349Y-91492585D01*
X148417679Y-91496915D01*
X148417680Y-91496916D01*
X148529484Y-91608720D01*
X148529486Y-91608721D01*
X148529490Y-91608724D01*
X148664033Y-91686401D01*
X148666416Y-91687777D01*
X148778219Y-91717734D01*
X148819142Y-91728700D01*
X148819143Y-91728700D01*
X156699902Y-91728700D01*
X156766941Y-91748385D01*
X156787583Y-91765019D01*
X156830984Y-91808420D01*
X156830986Y-91808421D01*
X156830990Y-91808424D01*
X156967909Y-91887473D01*
X156967916Y-91887477D01*
X157079719Y-91917434D01*
X157120642Y-91928400D01*
X157120643Y-91928400D01*
X171895431Y-91928400D01*
X171895447Y-91928401D01*
X171903043Y-91928401D01*
X172061154Y-91928401D01*
X172061157Y-91928401D01*
X172213885Y-91887477D01*
X172264004Y-91858539D01*
X172350816Y-91808420D01*
X172462620Y-91696616D01*
X172462620Y-91696614D01*
X172472828Y-91686407D01*
X172472830Y-91686404D01*
X172865158Y-91294075D01*
X172926479Y-91260592D01*
X172991151Y-91263825D01*
X173005466Y-91268477D01*
X173207648Y-91300500D01*
X173207649Y-91300500D01*
X173412351Y-91300500D01*
X173412352Y-91300500D01*
X173614534Y-91268477D01*
X173809219Y-91205220D01*
X173991610Y-91112287D01*
X174102790Y-91031511D01*
X174157213Y-90991971D01*
X174157215Y-90991968D01*
X174157219Y-90991966D01*
X174301966Y-90847219D01*
X174301968Y-90847215D01*
X174301971Y-90847213D01*
X174354732Y-90774590D01*
X174422287Y-90681610D01*
X174515220Y-90499219D01*
X174578477Y-90304534D01*
X174610500Y-90102352D01*
X174610500Y-89897648D01*
X174607675Y-89879815D01*
X174578477Y-89695465D01*
X174532021Y-89552489D01*
X174515220Y-89500781D01*
X174515218Y-89500778D01*
X174515218Y-89500776D01*
X174475585Y-89422993D01*
X174422287Y-89318390D01*
X174405134Y-89294781D01*
X174301971Y-89152786D01*
X174157213Y-89008028D01*
X173991613Y-88887715D01*
X173991612Y-88887714D01*
X173991610Y-88887713D01*
X173918012Y-88850213D01*
X173809223Y-88794781D01*
X173698579Y-88758831D01*
X173640904Y-88719393D01*
X173613706Y-88655034D01*
X173625621Y-88586188D01*
X173672865Y-88534712D01*
X173736898Y-88516900D01*
X176106876Y-88516900D01*
X176173915Y-88536585D01*
X176219670Y-88589389D01*
X176229614Y-88658547D01*
X176200589Y-88722103D01*
X176179762Y-88741217D01*
X176022490Y-88855483D01*
X176022488Y-88855485D01*
X176022487Y-88855485D01*
X175855485Y-89022487D01*
X175855485Y-89022488D01*
X175855483Y-89022490D01*
X175833534Y-89052700D01*
X175716657Y-89213566D01*
X175609433Y-89424003D01*
X175536446Y-89648631D01*
X175499500Y-89881902D01*
X175499500Y-90118097D01*
X175536446Y-90351368D01*
X175609433Y-90575996D01*
X175676548Y-90707715D01*
X175716657Y-90786433D01*
X175855483Y-90977510D01*
X176022490Y-91144517D01*
X176213567Y-91283343D01*
X176234634Y-91294077D01*
X176424003Y-91390566D01*
X176424005Y-91390566D01*
X176424008Y-91390568D01*
X176544412Y-91429689D01*
X176648631Y-91463553D01*
X176881903Y-91500500D01*
X176881908Y-91500500D01*
X177118097Y-91500500D01*
X177351368Y-91463553D01*
X177352870Y-91463065D01*
X177575992Y-91390568D01*
X177786433Y-91283343D01*
X177977510Y-91144517D01*
X178144517Y-90977510D01*
X178283343Y-90786433D01*
X178390568Y-90575992D01*
X178463553Y-90351368D01*
X178465717Y-90337708D01*
X178500500Y-90118097D01*
X178500500Y-89881902D01*
X178463553Y-89648631D01*
X178415513Y-89500781D01*
X178390568Y-89424008D01*
X178390566Y-89424005D01*
X178390566Y-89424003D01*
X178334002Y-89312991D01*
X178283343Y-89213567D01*
X178144517Y-89022490D01*
X177977510Y-88855483D01*
X177820237Y-88741217D01*
X177777573Y-88685888D01*
X177771594Y-88616274D01*
X177804200Y-88554479D01*
X177865039Y-88520122D01*
X177893124Y-88516900D01*
X180607727Y-88516900D01*
X180674766Y-88536585D01*
X180720521Y-88589389D01*
X180730465Y-88658547D01*
X180701440Y-88722103D01*
X180680612Y-88741218D01*
X180630894Y-88777339D01*
X180630894Y-88777340D01*
X181329766Y-89476212D01*
X181287708Y-89487482D01*
X181162292Y-89559890D01*
X181059890Y-89662292D01*
X180987482Y-89787708D01*
X180976212Y-89829765D01*
X180277340Y-89130894D01*
X180217084Y-89213830D01*
X180109897Y-89424197D01*
X180036934Y-89648752D01*
X180000000Y-89881947D01*
X180000000Y-90118052D01*
X180036934Y-90351247D01*
X180109897Y-90575802D01*
X180217087Y-90786174D01*
X180277338Y-90869104D01*
X180277340Y-90869105D01*
X180976212Y-90170233D01*
X180987482Y-90212292D01*
X181059890Y-90337708D01*
X181162292Y-90440110D01*
X181287708Y-90512518D01*
X181329765Y-90523787D01*
X180630893Y-91222658D01*
X180713828Y-91282914D01*
X180924197Y-91390102D01*
X181148752Y-91463065D01*
X181148751Y-91463065D01*
X181381948Y-91500000D01*
X181618052Y-91500000D01*
X181851247Y-91463065D01*
X182075802Y-91390102D01*
X182286163Y-91282918D01*
X182286169Y-91282914D01*
X182369104Y-91222658D01*
X182369105Y-91222658D01*
X181670233Y-90523787D01*
X181712292Y-90512518D01*
X181837708Y-90440110D01*
X181940110Y-90337708D01*
X182012518Y-90212292D01*
X182023787Y-90170234D01*
X182722658Y-90869105D01*
X182722658Y-90869104D01*
X182782914Y-90786169D01*
X182782918Y-90786163D01*
X182890102Y-90575802D01*
X182963065Y-90351247D01*
X183000000Y-90118052D01*
X183000000Y-89881947D01*
X182963065Y-89648752D01*
X182890102Y-89424197D01*
X182782914Y-89213828D01*
X182722658Y-89130894D01*
X182722658Y-89130893D01*
X182023787Y-89829765D01*
X182012518Y-89787708D01*
X181940110Y-89662292D01*
X181837708Y-89559890D01*
X181712292Y-89487482D01*
X181670234Y-89476212D01*
X182369105Y-88777340D01*
X182369104Y-88777339D01*
X182319388Y-88741218D01*
X182276722Y-88685889D01*
X182270743Y-88616275D01*
X182303348Y-88554480D01*
X182364187Y-88520123D01*
X182392273Y-88516900D01*
X186116303Y-88516900D01*
X186183342Y-88536585D01*
X186203984Y-88553219D01*
X187047200Y-89396435D01*
X187080685Y-89457758D01*
X187077450Y-89522433D01*
X187036447Y-89648628D01*
X187013280Y-89794898D01*
X186983351Y-89858033D01*
X186924039Y-89894964D01*
X186890807Y-89899500D01*
X186229602Y-89899500D01*
X186162563Y-89879815D01*
X186119117Y-89831795D01*
X186112284Y-89818385D01*
X185991971Y-89652786D01*
X185847213Y-89508028D01*
X185681613Y-89387715D01*
X185681612Y-89387714D01*
X185681610Y-89387713D01*
X185624653Y-89358691D01*
X185499223Y-89294781D01*
X185304534Y-89231522D01*
X185129995Y-89203878D01*
X185102352Y-89199500D01*
X184897648Y-89199500D01*
X184873329Y-89203351D01*
X184695465Y-89231522D01*
X184500776Y-89294781D01*
X184318386Y-89387715D01*
X184152786Y-89508028D01*
X184008028Y-89652786D01*
X183887715Y-89818386D01*
X183794781Y-90000776D01*
X183731522Y-90195465D01*
X183706849Y-90351247D01*
X183699500Y-90397648D01*
X183699500Y-90602352D01*
X183701626Y-90615774D01*
X183731522Y-90804534D01*
X183794781Y-90999223D01*
X183887715Y-91181613D01*
X184008028Y-91347213D01*
X184152786Y-91491971D01*
X184307749Y-91604556D01*
X184318390Y-91612287D01*
X184434607Y-91671503D01*
X184500776Y-91705218D01*
X184500778Y-91705218D01*
X184500781Y-91705220D01*
X184573045Y-91728700D01*
X184695465Y-91768477D01*
X184796557Y-91784488D01*
X184897648Y-91800500D01*
X184897649Y-91800500D01*
X185102351Y-91800500D01*
X185102352Y-91800500D01*
X185304534Y-91768477D01*
X185499219Y-91705220D01*
X185681610Y-91612287D01*
X185774590Y-91544732D01*
X185847213Y-91491971D01*
X185847215Y-91491968D01*
X185847219Y-91491966D01*
X185991966Y-91347219D01*
X185991968Y-91347215D01*
X185991971Y-91347213D01*
X186112284Y-91181614D01*
X186112285Y-91181613D01*
X186112287Y-91181610D01*
X186119117Y-91168204D01*
X186167091Y-91117409D01*
X186229602Y-91100500D01*
X187427111Y-91100500D01*
X187494150Y-91120185D01*
X187514792Y-91136819D01*
X187522490Y-91144517D01*
X187713567Y-91283343D01*
X187734634Y-91294077D01*
X187924003Y-91390566D01*
X187924005Y-91390566D01*
X187924008Y-91390568D01*
X188044412Y-91429689D01*
X188148631Y-91463553D01*
X188381903Y-91500500D01*
X188381908Y-91500500D01*
X188618097Y-91500500D01*
X188851368Y-91463553D01*
X188852870Y-91463065D01*
X189075992Y-91390568D01*
X189286433Y-91283343D01*
X189477510Y-91144517D01*
X189644517Y-90977510D01*
X189783343Y-90786433D01*
X189890568Y-90575992D01*
X189963553Y-90351368D01*
X189965717Y-90337708D01*
X190000500Y-90118097D01*
X190000500Y-89881947D01*
X191500000Y-89881947D01*
X191500000Y-90118052D01*
X191536934Y-90351247D01*
X191609897Y-90575802D01*
X191717087Y-90786174D01*
X191777338Y-90869104D01*
X191777340Y-90869105D01*
X192476212Y-90170233D01*
X192487482Y-90212292D01*
X192559890Y-90337708D01*
X192662292Y-90440110D01*
X192787708Y-90512518D01*
X192829765Y-90523787D01*
X192130893Y-91222658D01*
X192213828Y-91282914D01*
X192424197Y-91390102D01*
X192648752Y-91463065D01*
X192648751Y-91463065D01*
X192881948Y-91500000D01*
X193118052Y-91500000D01*
X193351247Y-91463065D01*
X193575802Y-91390102D01*
X193786163Y-91282918D01*
X193786169Y-91282914D01*
X193869104Y-91222658D01*
X193869105Y-91222658D01*
X193170233Y-90523787D01*
X193212292Y-90512518D01*
X193337708Y-90440110D01*
X193440110Y-90337708D01*
X193512518Y-90212292D01*
X193523787Y-90170233D01*
X194222658Y-90869105D01*
X194222658Y-90869104D01*
X194282914Y-90786169D01*
X194282918Y-90786163D01*
X194390102Y-90575802D01*
X194463065Y-90351247D01*
X194500000Y-90118052D01*
X194500000Y-89881947D01*
X194463065Y-89648752D01*
X194390102Y-89424197D01*
X194282914Y-89213828D01*
X194222658Y-89130894D01*
X194222658Y-89130893D01*
X193523787Y-89829765D01*
X193512518Y-89787708D01*
X193440110Y-89662292D01*
X193337708Y-89559890D01*
X193212292Y-89487482D01*
X193170234Y-89476212D01*
X193869105Y-88777340D01*
X193869104Y-88777338D01*
X193786174Y-88717087D01*
X193575802Y-88609897D01*
X193351247Y-88536934D01*
X193351248Y-88536934D01*
X193118052Y-88500000D01*
X192881948Y-88500000D01*
X192648752Y-88536934D01*
X192424197Y-88609897D01*
X192213830Y-88717084D01*
X192130894Y-88777340D01*
X192829766Y-89476212D01*
X192787708Y-89487482D01*
X192662292Y-89559890D01*
X192559890Y-89662292D01*
X192487482Y-89787708D01*
X192476212Y-89829766D01*
X191777340Y-89130894D01*
X191717084Y-89213830D01*
X191609897Y-89424197D01*
X191536934Y-89648752D01*
X191500000Y-89881947D01*
X190000500Y-89881947D01*
X190000500Y-89881902D01*
X189963553Y-89648631D01*
X189915513Y-89500781D01*
X189890568Y-89424008D01*
X189890566Y-89424005D01*
X189890566Y-89424003D01*
X189834002Y-89312991D01*
X189783343Y-89213567D01*
X189644517Y-89022490D01*
X189477510Y-88855483D01*
X189286433Y-88716657D01*
X189253526Y-88699890D01*
X189075996Y-88609433D01*
X188851368Y-88536446D01*
X188618097Y-88499500D01*
X188618092Y-88499500D01*
X188381908Y-88499500D01*
X188381903Y-88499500D01*
X188148628Y-88536447D01*
X188022433Y-88577450D01*
X187952592Y-88579445D01*
X187896435Y-88547200D01*
X186903990Y-87554755D01*
X186903988Y-87554752D01*
X186785117Y-87435881D01*
X186785112Y-87435877D01*
X186649849Y-87357784D01*
X186649828Y-87357772D01*
X186648186Y-87356823D01*
X186610003Y-87346592D01*
X186495457Y-87315899D01*
X186337343Y-87315899D01*
X186329747Y-87315899D01*
X186329731Y-87315900D01*
X173368060Y-87315900D01*
X173301021Y-87296215D01*
X173255266Y-87243411D01*
X173245322Y-87174253D01*
X173274347Y-87110697D01*
X173295172Y-87091583D01*
X173379792Y-87030104D01*
X173530104Y-86879792D01*
X173530106Y-86879788D01*
X173530109Y-86879786D01*
X173655048Y-86707820D01*
X173655047Y-86707820D01*
X173655051Y-86707816D01*
X173751557Y-86518412D01*
X173817246Y-86316243D01*
X173850500Y-86106287D01*
X173850500Y-85893713D01*
X173817246Y-85683757D01*
X173751557Y-85481588D01*
X173655051Y-85292184D01*
X173655049Y-85292181D01*
X173655048Y-85292179D01*
X173530109Y-85120213D01*
X173379786Y-84969890D01*
X173207820Y-84844951D01*
X173018414Y-84748444D01*
X173018413Y-84748443D01*
X173018412Y-84748443D01*
X172816243Y-84682754D01*
X172816241Y-84682753D01*
X172816239Y-84682753D01*
X172724183Y-84668173D01*
X172661048Y-84638244D01*
X172624117Y-84578932D01*
X172625115Y-84509070D01*
X172663725Y-84450837D01*
X172727688Y-84422723D01*
X172743581Y-84421700D01*
X174104803Y-84421700D01*
X174171842Y-84441385D01*
X174192484Y-84458019D01*
X175146839Y-85412374D01*
X175146849Y-85412385D01*
X175151179Y-85416715D01*
X175151180Y-85416716D01*
X175262984Y-85528520D01*
X175345368Y-85576084D01*
X175345369Y-85576085D01*
X175399909Y-85607574D01*
X175399910Y-85607574D01*
X175399915Y-85607577D01*
X175552642Y-85648500D01*
X175552643Y-85648500D01*
X182030431Y-85648500D01*
X182030447Y-85648501D01*
X182038043Y-85648501D01*
X182196154Y-85648501D01*
X182196157Y-85648501D01*
X182348885Y-85607577D01*
X182348887Y-85607575D01*
X182348889Y-85607575D01*
X182348890Y-85607574D01*
X182403431Y-85576085D01*
X182403432Y-85576084D01*
X182485816Y-85528520D01*
X182597620Y-85416716D01*
X182597620Y-85416714D01*
X182607824Y-85406511D01*
X182607828Y-85406506D01*
X184036813Y-83977521D01*
X184036816Y-83977520D01*
X184071867Y-83942469D01*
X184103268Y-83925324D01*
X184133186Y-83908987D01*
X184133188Y-83908987D01*
X184133191Y-83908986D01*
X184164728Y-83911242D01*
X184202877Y-83913971D01*
X184202880Y-83913972D01*
X184202882Y-83913973D01*
X184202885Y-83913975D01*
X184232430Y-83929834D01*
X184318390Y-83992287D01*
X184500776Y-84085218D01*
X184500778Y-84085218D01*
X184500781Y-84085220D01*
X184538363Y-84097431D01*
X184695465Y-84148477D01*
X184796557Y-84164488D01*
X184897648Y-84180500D01*
X184897649Y-84180500D01*
X185102351Y-84180500D01*
X185102352Y-84180500D01*
X185304534Y-84148477D01*
X185499219Y-84085220D01*
X185681610Y-83992287D01*
X185810438Y-83898689D01*
X185847213Y-83871971D01*
X185847215Y-83871968D01*
X185847219Y-83871966D01*
X185991966Y-83727219D01*
X185991968Y-83727215D01*
X185991971Y-83727213D01*
X186056764Y-83638031D01*
X186112287Y-83561610D01*
X186203853Y-83381902D01*
X186999500Y-83381902D01*
X186999500Y-83618097D01*
X187036446Y-83851368D01*
X187109433Y-84075996D01*
X187162681Y-84180500D01*
X187216657Y-84286433D01*
X187355483Y-84477510D01*
X187522490Y-84644517D01*
X187713567Y-84783343D01*
X187786398Y-84820452D01*
X187924003Y-84890566D01*
X187924005Y-84890566D01*
X187924008Y-84890568D01*
X187983589Y-84909927D01*
X188148631Y-84963553D01*
X188381903Y-85000500D01*
X188381908Y-85000500D01*
X188618097Y-85000500D01*
X188851368Y-84963553D01*
X188866482Y-84958642D01*
X189075992Y-84890568D01*
X189286433Y-84783343D01*
X189477510Y-84644517D01*
X189644517Y-84477510D01*
X189783343Y-84286433D01*
X189890568Y-84075992D01*
X189963553Y-83851368D01*
X189968123Y-83822515D01*
X190000500Y-83618097D01*
X190000500Y-83381947D01*
X191500000Y-83381947D01*
X191500000Y-83618052D01*
X191536934Y-83851247D01*
X191609897Y-84075802D01*
X191717087Y-84286174D01*
X191777338Y-84369104D01*
X191777340Y-84369105D01*
X192476212Y-83670233D01*
X192487482Y-83712292D01*
X192559890Y-83837708D01*
X192662292Y-83940110D01*
X192787708Y-84012518D01*
X192829765Y-84023787D01*
X192130893Y-84722658D01*
X192213828Y-84782914D01*
X192424197Y-84890102D01*
X192648752Y-84963065D01*
X192648751Y-84963065D01*
X192881948Y-85000000D01*
X193118052Y-85000000D01*
X193351247Y-84963065D01*
X193575802Y-84890102D01*
X193786163Y-84782918D01*
X193786169Y-84782914D01*
X193869104Y-84722658D01*
X193869105Y-84722658D01*
X193170233Y-84023787D01*
X193212292Y-84012518D01*
X193337708Y-83940110D01*
X193440110Y-83837708D01*
X193512518Y-83712292D01*
X193523787Y-83670233D01*
X194222658Y-84369105D01*
X194222658Y-84369104D01*
X194282914Y-84286169D01*
X194282918Y-84286163D01*
X194390102Y-84075802D01*
X194463065Y-83851247D01*
X194500000Y-83618052D01*
X194500000Y-83381947D01*
X194463065Y-83148752D01*
X194390102Y-82924197D01*
X194282914Y-82713828D01*
X194222658Y-82630894D01*
X194222658Y-82630893D01*
X193523787Y-83329765D01*
X193512518Y-83287708D01*
X193440110Y-83162292D01*
X193337708Y-83059890D01*
X193212292Y-82987482D01*
X193170234Y-82976212D01*
X193869105Y-82277340D01*
X193869104Y-82277338D01*
X193786174Y-82217087D01*
X193575802Y-82109897D01*
X193351247Y-82036934D01*
X193351248Y-82036934D01*
X193118052Y-82000000D01*
X192881948Y-82000000D01*
X192648752Y-82036934D01*
X192424197Y-82109897D01*
X192213830Y-82217084D01*
X192130894Y-82277340D01*
X192829766Y-82976212D01*
X192787708Y-82987482D01*
X192662292Y-83059890D01*
X192559890Y-83162292D01*
X192487482Y-83287708D01*
X192476212Y-83329766D01*
X191777340Y-82630894D01*
X191717084Y-82713830D01*
X191609897Y-82924197D01*
X191536934Y-83148752D01*
X191500000Y-83381947D01*
X190000500Y-83381947D01*
X190000500Y-83381902D01*
X189963553Y-83148631D01*
X189917808Y-83007844D01*
X189890568Y-82924008D01*
X189890566Y-82924005D01*
X189890566Y-82924003D01*
X189815994Y-82777648D01*
X189783343Y-82713567D01*
X189644517Y-82522490D01*
X189477510Y-82355483D01*
X189286433Y-82216657D01*
X189075996Y-82109433D01*
X188851368Y-82036446D01*
X188618097Y-81999500D01*
X188618092Y-81999500D01*
X188381908Y-81999500D01*
X188381903Y-81999500D01*
X188148631Y-82036446D01*
X187924003Y-82109433D01*
X187713566Y-82216657D01*
X187653657Y-82260184D01*
X187522490Y-82355483D01*
X187522488Y-82355485D01*
X187522487Y-82355485D01*
X187355485Y-82522487D01*
X187355485Y-82522488D01*
X187355483Y-82522490D01*
X187330405Y-82557007D01*
X187216657Y-82713566D01*
X187109433Y-82924003D01*
X187036446Y-83148631D01*
X186999500Y-83381902D01*
X186203853Y-83381902D01*
X186205220Y-83379219D01*
X186268477Y-83184534D01*
X186300500Y-82982352D01*
X186300500Y-82777648D01*
X186268477Y-82575466D01*
X186263825Y-82561151D01*
X186261832Y-82491312D01*
X186294075Y-82435158D01*
X188592416Y-80136819D01*
X188653739Y-80103334D01*
X188680097Y-80100500D01*
X192270398Y-80100500D01*
X192337437Y-80120185D01*
X192380882Y-80168204D01*
X192386821Y-80179859D01*
X192387715Y-80181614D01*
X192508028Y-80347213D01*
X192652786Y-80491971D01*
X192807749Y-80604556D01*
X192818390Y-80612287D01*
X192934607Y-80671503D01*
X193000776Y-80705218D01*
X193000778Y-80705218D01*
X193000781Y-80705220D01*
X193037926Y-80717289D01*
X193195465Y-80768477D01*
X193240261Y-80775572D01*
X193397648Y-80800500D01*
X193397649Y-80800500D01*
X193602351Y-80800500D01*
X193602352Y-80800500D01*
X193804534Y-80768477D01*
X193999219Y-80705220D01*
X194181610Y-80612287D01*
X194286387Y-80536163D01*
X194347213Y-80491971D01*
X194347215Y-80491968D01*
X194347219Y-80491966D01*
X194491966Y-80347219D01*
X194492635Y-80346299D01*
X194525181Y-80301502D01*
X194580510Y-80258836D01*
X194650123Y-80252855D01*
X194711919Y-80285460D01*
X194746277Y-80346299D01*
X194749500Y-80374386D01*
X194749500Y-92375500D01*
X194729815Y-92442539D01*
X194677011Y-92488294D01*
X194625500Y-92499500D01*
X135874500Y-92499500D01*
X135807461Y-92479815D01*
X135761706Y-92427011D01*
X135750500Y-92375500D01*
X135750500Y-79413613D01*
X135770185Y-79346574D01*
X135822989Y-79300819D01*
X135892147Y-79290875D01*
X135955703Y-79319900D01*
G37*
%TD.AperFunction*%
%TA.AperFunction,Conductor*%
G36*
X153053039Y-88948385D02*
G01*
X153098794Y-89001189D01*
X153110000Y-89052700D01*
X153110000Y-89480000D01*
X154026988Y-89480000D01*
X153994075Y-89537007D01*
X153960000Y-89664174D01*
X153960000Y-89795826D01*
X153994075Y-89922993D01*
X154026988Y-89980000D01*
X153110000Y-89980000D01*
X153110000Y-90403700D01*
X153090315Y-90470739D01*
X153037511Y-90516494D01*
X152986000Y-90527700D01*
X151514000Y-90527700D01*
X151446961Y-90508015D01*
X151401206Y-90455211D01*
X151390000Y-90403700D01*
X151390000Y-89980000D01*
X150473012Y-89980000D01*
X150505925Y-89922993D01*
X150540000Y-89795826D01*
X150540000Y-89664174D01*
X150505925Y-89537007D01*
X150473012Y-89480000D01*
X151390000Y-89480000D01*
X151390000Y-89052700D01*
X151409685Y-88985661D01*
X151462489Y-88939906D01*
X151514000Y-88928700D01*
X152986000Y-88928700D01*
X153053039Y-88948385D01*
G37*
%TD.AperFunction*%
%TA.AperFunction,Conductor*%
G36*
X194692539Y-67520185D02*
G01*
X194738294Y-67572989D01*
X194749500Y-67624500D01*
X194749500Y-78625613D01*
X194729815Y-78692652D01*
X194677011Y-78738407D01*
X194607853Y-78748351D01*
X194544297Y-78719326D01*
X194525182Y-78698498D01*
X194491971Y-78652786D01*
X194347213Y-78508028D01*
X194181613Y-78387715D01*
X194181612Y-78387714D01*
X194181610Y-78387713D01*
X194094612Y-78343385D01*
X193999223Y-78294781D01*
X193804534Y-78231522D01*
X193629995Y-78203878D01*
X193602352Y-78199500D01*
X193397648Y-78199500D01*
X193373329Y-78203351D01*
X193195465Y-78231522D01*
X193000776Y-78294781D01*
X192818386Y-78387715D01*
X192652786Y-78508028D01*
X192508028Y-78652786D01*
X192387715Y-78818385D01*
X192380883Y-78831795D01*
X192332909Y-78882591D01*
X192270398Y-78899500D01*
X188466669Y-78899500D01*
X188466653Y-78899499D01*
X188459057Y-78899499D01*
X188300943Y-78899499D01*
X188193587Y-78928265D01*
X188148210Y-78940424D01*
X188148209Y-78940425D01*
X188098096Y-78969359D01*
X188098095Y-78969360D01*
X188054689Y-78994420D01*
X188011285Y-79019479D01*
X188011282Y-79019481D01*
X187392181Y-79638583D01*
X187330858Y-79672068D01*
X187261166Y-79667084D01*
X187205233Y-79625212D01*
X187180816Y-79559748D01*
X187180500Y-79550902D01*
X187180500Y-79397648D01*
X187148477Y-79195465D01*
X187102888Y-79055157D01*
X187085220Y-79000781D01*
X187085218Y-79000778D01*
X187085218Y-79000776D01*
X187051503Y-78934607D01*
X186992287Y-78818390D01*
X186984556Y-78807749D01*
X186871971Y-78652786D01*
X186727213Y-78508028D01*
X186561613Y-78387715D01*
X186561612Y-78387714D01*
X186561610Y-78387713D01*
X186474612Y-78343385D01*
X186423816Y-78295410D01*
X186407021Y-78227589D01*
X186429559Y-78161454D01*
X186484274Y-78118003D01*
X186530907Y-78108900D01*
X191404931Y-78108900D01*
X191404947Y-78108901D01*
X191412543Y-78108901D01*
X191570654Y-78108901D01*
X191570657Y-78108901D01*
X191723385Y-78067977D01*
X191807382Y-78019481D01*
X191810580Y-78017635D01*
X191860309Y-77988924D01*
X191860308Y-77988924D01*
X191860316Y-77988920D01*
X191972120Y-77877116D01*
X191972120Y-77877114D01*
X191982324Y-77866911D01*
X191982328Y-77866906D01*
X192396437Y-77452796D01*
X192457758Y-77419313D01*
X192522433Y-77422547D01*
X192648632Y-77463553D01*
X192736110Y-77477408D01*
X192881903Y-77500500D01*
X192881908Y-77500500D01*
X193118097Y-77500500D01*
X193351368Y-77463553D01*
X193398813Y-77448137D01*
X193575992Y-77390568D01*
X193786433Y-77283343D01*
X193977510Y-77144517D01*
X194144517Y-76977510D01*
X194283343Y-76786433D01*
X194390568Y-76575992D01*
X194463553Y-76351368D01*
X194469239Y-76315466D01*
X194500500Y-76118097D01*
X194500500Y-75881902D01*
X194463553Y-75648631D01*
X194420674Y-75516664D01*
X194390568Y-75424008D01*
X194390566Y-75424005D01*
X194390566Y-75424003D01*
X194334002Y-75312991D01*
X194283343Y-75213567D01*
X194144517Y-75022490D01*
X193977510Y-74855483D01*
X193786433Y-74716657D01*
X193769945Y-74708256D01*
X193575996Y-74609433D01*
X193351368Y-74536446D01*
X193118097Y-74499500D01*
X193118092Y-74499500D01*
X192881908Y-74499500D01*
X192881903Y-74499500D01*
X192648631Y-74536446D01*
X192424003Y-74609433D01*
X192213566Y-74716657D01*
X192130047Y-74777338D01*
X192022490Y-74855483D01*
X192022488Y-74855485D01*
X192022487Y-74855485D01*
X191855485Y-75022487D01*
X191855485Y-75022488D01*
X191855483Y-75022490D01*
X191835782Y-75049606D01*
X191716657Y-75213566D01*
X191609433Y-75424003D01*
X191536446Y-75648631D01*
X191499500Y-75881902D01*
X191499500Y-76118097D01*
X191536447Y-76351369D01*
X191536447Y-76351372D01*
X191577450Y-76477564D01*
X191579445Y-76547405D01*
X191547200Y-76603563D01*
X191279182Y-76871582D01*
X191217862Y-76905066D01*
X191191503Y-76907900D01*
X189923241Y-76907900D01*
X189856202Y-76888215D01*
X189810447Y-76835411D01*
X189800503Y-76766253D01*
X189812756Y-76727605D01*
X189890102Y-76575802D01*
X189963065Y-76351247D01*
X190000000Y-76118052D01*
X190000000Y-75881947D01*
X189963065Y-75648752D01*
X189890102Y-75424197D01*
X189782914Y-75213828D01*
X189722658Y-75130894D01*
X189722658Y-75130893D01*
X189023787Y-75829764D01*
X189012518Y-75787708D01*
X188940110Y-75662292D01*
X188837708Y-75559890D01*
X188712292Y-75487482D01*
X188670234Y-75476212D01*
X189369105Y-74777340D01*
X189369104Y-74777338D01*
X189286174Y-74717087D01*
X189075802Y-74609897D01*
X188851247Y-74536934D01*
X188851248Y-74536934D01*
X188618052Y-74500000D01*
X188381948Y-74500000D01*
X188148752Y-74536934D01*
X187924197Y-74609897D01*
X187713830Y-74717084D01*
X187630894Y-74777340D01*
X188329766Y-75476212D01*
X188287708Y-75487482D01*
X188162292Y-75559890D01*
X188059890Y-75662292D01*
X187987482Y-75787708D01*
X187976212Y-75829766D01*
X187277340Y-75130894D01*
X187217084Y-75213830D01*
X187109897Y-75424197D01*
X187036934Y-75648752D01*
X187000000Y-75881947D01*
X187000000Y-76118052D01*
X187036934Y-76351247D01*
X187109897Y-76575802D01*
X187187244Y-76727605D01*
X187200140Y-76796275D01*
X187173863Y-76861015D01*
X187116757Y-76901272D01*
X187076759Y-76907900D01*
X186418374Y-76907900D01*
X186402890Y-76903752D01*
X186389153Y-76904408D01*
X186356386Y-76891294D01*
X186354482Y-76890195D01*
X186306261Y-76839633D01*
X186293030Y-76771027D01*
X186293991Y-76763439D01*
X186300500Y-76722352D01*
X186300500Y-76517648D01*
X186288219Y-76440110D01*
X186268477Y-76315465D01*
X186234259Y-76210154D01*
X186205220Y-76120781D01*
X186205218Y-76120778D01*
X186205218Y-76120776D01*
X186149723Y-76011862D01*
X186112287Y-75938390D01*
X186089642Y-75907221D01*
X185991971Y-75772786D01*
X185847213Y-75628028D01*
X185681613Y-75507715D01*
X185681612Y-75507714D01*
X185681610Y-75507713D01*
X185624653Y-75478691D01*
X185499223Y-75414781D01*
X185304534Y-75351522D01*
X185129995Y-75323878D01*
X185102352Y-75319500D01*
X184897648Y-75319500D01*
X184873329Y-75323351D01*
X184695465Y-75351522D01*
X184500776Y-75414781D01*
X184318386Y-75507715D01*
X184152786Y-75628028D01*
X184008028Y-75772786D01*
X183887715Y-75938386D01*
X183794781Y-76120776D01*
X183731522Y-76315465D01*
X183699500Y-76517648D01*
X183699500Y-76722351D01*
X183731522Y-76924534D01*
X183794781Y-77119223D01*
X183820439Y-77169578D01*
X183880794Y-77288031D01*
X183887715Y-77301613D01*
X184008028Y-77467213D01*
X184152786Y-77611971D01*
X184318388Y-77732286D01*
X184402743Y-77775267D01*
X184453540Y-77823241D01*
X184470335Y-77891062D01*
X184447798Y-77957197D01*
X184434130Y-77973433D01*
X184071411Y-78336151D01*
X184071412Y-78336152D01*
X184071286Y-78336278D01*
X184071284Y-78336280D01*
X183959480Y-78448084D01*
X183959037Y-78448850D01*
X183952728Y-78455178D01*
X183928838Y-78468266D01*
X183906833Y-78484325D01*
X183898645Y-78484810D01*
X183891453Y-78488751D01*
X183864277Y-78486846D01*
X183837085Y-78488458D01*
X183827959Y-78484301D01*
X183821755Y-78483867D01*
X183813536Y-78477733D01*
X183792036Y-78467941D01*
X183681613Y-78387715D01*
X183681612Y-78387714D01*
X183681610Y-78387713D01*
X183594612Y-78343385D01*
X183499223Y-78294781D01*
X183304534Y-78231522D01*
X183129995Y-78203878D01*
X183102352Y-78199500D01*
X182897648Y-78199500D01*
X182873329Y-78203351D01*
X182695465Y-78231522D01*
X182500776Y-78294781D01*
X182318386Y-78387715D01*
X182152786Y-78508028D01*
X182008028Y-78652786D01*
X181887715Y-78818386D01*
X181794781Y-79000776D01*
X181731522Y-79195465D01*
X181699500Y-79397648D01*
X181699500Y-79602351D01*
X181731522Y-79804534D01*
X181794781Y-79999223D01*
X181819332Y-80047405D01*
X181832228Y-80116074D01*
X181805952Y-80180815D01*
X181748845Y-80221072D01*
X181708847Y-80227700D01*
X176671153Y-80227700D01*
X176604114Y-80208015D01*
X176558359Y-80155211D01*
X176548415Y-80086053D01*
X176560668Y-80047405D01*
X176585218Y-79999223D01*
X176585218Y-79999222D01*
X176585220Y-79999219D01*
X176648477Y-79804534D01*
X176680500Y-79602352D01*
X176680500Y-79397648D01*
X176674138Y-79357483D01*
X176648477Y-79195465D01*
X176602888Y-79055157D01*
X176585220Y-79000781D01*
X176585218Y-79000778D01*
X176585218Y-79000776D01*
X176551503Y-78934607D01*
X176492287Y-78818390D01*
X176484556Y-78807749D01*
X176371971Y-78652786D01*
X176227213Y-78508028D01*
X176061613Y-78387715D01*
X176061612Y-78387714D01*
X176061610Y-78387713D01*
X175974612Y-78343385D01*
X175879223Y-78294781D01*
X175684534Y-78231522D01*
X175509995Y-78203878D01*
X175482352Y-78199500D01*
X175277648Y-78199500D01*
X175237211Y-78205904D01*
X175075462Y-78231523D01*
X175075460Y-78231523D01*
X175061149Y-78236173D01*
X174991308Y-78238164D01*
X174935157Y-78205921D01*
X173992316Y-77263080D01*
X172693991Y-75964756D01*
X172611182Y-75881947D01*
X175500000Y-75881947D01*
X175500000Y-76118052D01*
X175536934Y-76351247D01*
X175609897Y-76575802D01*
X175717087Y-76786174D01*
X175777338Y-76869104D01*
X175777340Y-76869105D01*
X176476212Y-76170233D01*
X176487482Y-76212292D01*
X176559890Y-76337708D01*
X176662292Y-76440110D01*
X176787708Y-76512518D01*
X176829765Y-76523787D01*
X176130893Y-77222658D01*
X176213828Y-77282914D01*
X176424197Y-77390102D01*
X176648752Y-77463065D01*
X176648751Y-77463065D01*
X176881948Y-77500000D01*
X177118052Y-77500000D01*
X177351247Y-77463065D01*
X177575802Y-77390102D01*
X177786163Y-77282918D01*
X177786169Y-77282914D01*
X177869104Y-77222658D01*
X177869105Y-77222658D01*
X177170233Y-76523787D01*
X177212292Y-76512518D01*
X177337708Y-76440110D01*
X177440110Y-76337708D01*
X177512518Y-76212292D01*
X177523787Y-76170233D01*
X178222658Y-76869105D01*
X178222658Y-76869104D01*
X178282914Y-76786169D01*
X178282918Y-76786163D01*
X178390102Y-76575802D01*
X178463065Y-76351247D01*
X178500000Y-76118052D01*
X178500000Y-75881947D01*
X178499993Y-75881902D01*
X179999500Y-75881902D01*
X179999500Y-76118097D01*
X180036446Y-76351368D01*
X180109433Y-76575996D01*
X180187404Y-76729021D01*
X180216657Y-76786433D01*
X180355483Y-76977510D01*
X180522490Y-77144517D01*
X180713567Y-77283343D01*
X180788898Y-77321726D01*
X180924003Y-77390566D01*
X180924005Y-77390566D01*
X180924008Y-77390568D01*
X181012476Y-77419313D01*
X181148631Y-77463553D01*
X181381903Y-77500500D01*
X181381908Y-77500500D01*
X181618097Y-77500500D01*
X181851368Y-77463553D01*
X181898813Y-77448137D01*
X182075992Y-77390568D01*
X182286433Y-77283343D01*
X182477510Y-77144517D01*
X182644517Y-76977510D01*
X182783343Y-76786433D01*
X182890568Y-76575992D01*
X182963553Y-76351368D01*
X182969239Y-76315466D01*
X183000500Y-76118097D01*
X183000500Y-75881902D01*
X182963553Y-75648631D01*
X182920674Y-75516664D01*
X182890568Y-75424008D01*
X182890566Y-75424005D01*
X182890566Y-75424003D01*
X182834002Y-75312991D01*
X182783343Y-75213567D01*
X182644517Y-75022490D01*
X182477510Y-74855483D01*
X182286433Y-74716657D01*
X182269945Y-74708256D01*
X182075996Y-74609433D01*
X181851368Y-74536446D01*
X181618097Y-74499500D01*
X181618092Y-74499500D01*
X181381908Y-74499500D01*
X181381903Y-74499500D01*
X181148631Y-74536446D01*
X180924003Y-74609433D01*
X180713566Y-74716657D01*
X180630047Y-74777338D01*
X180522490Y-74855483D01*
X180522488Y-74855485D01*
X180522487Y-74855485D01*
X180355485Y-75022487D01*
X180355485Y-75022488D01*
X180355483Y-75022490D01*
X180335782Y-75049606D01*
X180216657Y-75213566D01*
X180109433Y-75424003D01*
X180036446Y-75648631D01*
X179999500Y-75881902D01*
X178499993Y-75881902D01*
X178463065Y-75648752D01*
X178390102Y-75424197D01*
X178282914Y-75213828D01*
X178222658Y-75130894D01*
X178222658Y-75130893D01*
X177523787Y-75829765D01*
X177512518Y-75787708D01*
X177440110Y-75662292D01*
X177337708Y-75559890D01*
X177212292Y-75487482D01*
X177170234Y-75476212D01*
X177869105Y-74777340D01*
X177869104Y-74777338D01*
X177786174Y-74717087D01*
X177575802Y-74609897D01*
X177351247Y-74536934D01*
X177351248Y-74536934D01*
X177118052Y-74500000D01*
X176881948Y-74500000D01*
X176648752Y-74536934D01*
X176424197Y-74609897D01*
X176213830Y-74717084D01*
X176130894Y-74777340D01*
X176829766Y-75476212D01*
X176787708Y-75487482D01*
X176662292Y-75559890D01*
X176559890Y-75662292D01*
X176487482Y-75787708D01*
X176476212Y-75829766D01*
X175777340Y-75130894D01*
X175717084Y-75213830D01*
X175609897Y-75424197D01*
X175536934Y-75648752D01*
X175500000Y-75881947D01*
X172611182Y-75881947D01*
X172094390Y-75365155D01*
X172094388Y-75365152D01*
X171975517Y-75246281D01*
X171975509Y-75246275D01*
X171867684Y-75184023D01*
X171867683Y-75184022D01*
X171867683Y-75184023D01*
X171838585Y-75167223D01*
X171685857Y-75126299D01*
X171527743Y-75126299D01*
X171520147Y-75126299D01*
X171520131Y-75126300D01*
X163724500Y-75126300D01*
X163715814Y-75123749D01*
X163706853Y-75125038D01*
X163682812Y-75114059D01*
X163657461Y-75106615D01*
X163651533Y-75099774D01*
X163643297Y-75096013D01*
X163629007Y-75073778D01*
X163611706Y-75053811D01*
X163609418Y-75043296D01*
X163605523Y-75037235D01*
X163600500Y-75002300D01*
X163600500Y-74824599D01*
X163600499Y-73102129D01*
X163600498Y-73102123D01*
X163600497Y-73102116D01*
X163595299Y-73053757D01*
X163594091Y-73042516D01*
X163543797Y-72907671D01*
X163543793Y-72907664D01*
X163457547Y-72792455D01*
X163457544Y-72792452D01*
X163342335Y-72706206D01*
X163342328Y-72706202D01*
X163207482Y-72655908D01*
X163207483Y-72655908D01*
X163147883Y-72649501D01*
X163147881Y-72649500D01*
X163147873Y-72649500D01*
X163147864Y-72649500D01*
X159852129Y-72649500D01*
X159852123Y-72649501D01*
X159792516Y-72655908D01*
X159657671Y-72706202D01*
X159657664Y-72706206D01*
X159542455Y-72792452D01*
X159542452Y-72792455D01*
X159456206Y-72907664D01*
X159456202Y-72907671D01*
X159405908Y-73042517D01*
X159400612Y-73091784D01*
X159399500Y-73102127D01*
X159399500Y-74055264D01*
X159399501Y-75002300D01*
X159396950Y-75010985D01*
X159398239Y-75019947D01*
X159387260Y-75043987D01*
X159379816Y-75069339D01*
X159372975Y-75075266D01*
X159369214Y-75083503D01*
X159346981Y-75097790D01*
X159327013Y-75115094D01*
X159316497Y-75117381D01*
X159310436Y-75121277D01*
X159275501Y-75126300D01*
X159041098Y-75126300D01*
X158974059Y-75106615D01*
X158953417Y-75089981D01*
X158326790Y-74463355D01*
X158326788Y-74463352D01*
X158207917Y-74344481D01*
X158207916Y-74344480D01*
X158121104Y-74294360D01*
X158121104Y-74294359D01*
X158121100Y-74294358D01*
X158070985Y-74265423D01*
X157918257Y-74224499D01*
X157760143Y-74224499D01*
X157752547Y-74224499D01*
X157752531Y-74224500D01*
X153704866Y-74224500D01*
X153637827Y-74204815D01*
X153635975Y-74203602D01*
X153504285Y-74115609D01*
X153504272Y-74115602D01*
X153358601Y-74055264D01*
X153358589Y-74055261D01*
X153203945Y-74024500D01*
X153203942Y-74024500D01*
X153046258Y-74024500D01*
X153046255Y-74024500D01*
X152891610Y-74055261D01*
X152891598Y-74055264D01*
X152745927Y-74115602D01*
X152745914Y-74115609D01*
X152614811Y-74203210D01*
X152614807Y-74203213D01*
X152503313Y-74314707D01*
X152503310Y-74314711D01*
X152415709Y-74445814D01*
X152415702Y-74445827D01*
X152355364Y-74591498D01*
X152355361Y-74591510D01*
X152324600Y-74746153D01*
X152324600Y-74902200D01*
X152322049Y-74910885D01*
X152323338Y-74919847D01*
X152312359Y-74943887D01*
X152304915Y-74969239D01*
X152298074Y-74975166D01*
X152294313Y-74983403D01*
X152272078Y-74997692D01*
X152252111Y-75014994D01*
X152241596Y-75017281D01*
X152235535Y-75021177D01*
X152200600Y-75026200D01*
X152033633Y-75026200D01*
X151966594Y-75006515D01*
X151926901Y-74965321D01*
X151893083Y-74908138D01*
X151888298Y-74901969D01*
X151890635Y-74900155D01*
X151863798Y-74851050D01*
X151868756Y-74781356D01*
X151889554Y-74748998D01*
X151887903Y-74747717D01*
X151892686Y-74741550D01*
X151976281Y-74600198D01*
X152022100Y-74442486D01*
X152022295Y-74440001D01*
X152022295Y-74440000D01*
X148977705Y-74440000D01*
X148977704Y-74440001D01*
X148977899Y-74442486D01*
X149023718Y-74600198D01*
X149107314Y-74741552D01*
X149112100Y-74747722D01*
X149109640Y-74749629D01*
X149136210Y-74798288D01*
X149131226Y-74867980D01*
X149110162Y-74900781D01*
X149111699Y-74901974D01*
X149106915Y-74908140D01*
X149023255Y-75049603D01*
X149023254Y-75049606D01*
X148977402Y-75207426D01*
X148977401Y-75207432D01*
X148974500Y-75244298D01*
X148974500Y-75675701D01*
X148977401Y-75712567D01*
X148977402Y-75712573D01*
X149023254Y-75870393D01*
X149023255Y-75870396D01*
X149023256Y-75870398D01*
X149030063Y-75881908D01*
X149106917Y-76011862D01*
X149111702Y-76018031D01*
X149109256Y-76019927D01*
X149135857Y-76068642D01*
X149130873Y-76138334D01*
X149110069Y-76170703D01*
X149111702Y-76171969D01*
X149106917Y-76178137D01*
X149023255Y-76319603D01*
X149023254Y-76319606D01*
X148977402Y-76477426D01*
X148977401Y-76477432D01*
X148974500Y-76514298D01*
X148974500Y-76616284D01*
X148954815Y-76683323D01*
X148902011Y-76729078D01*
X148832853Y-76739022D01*
X148769297Y-76709997D01*
X148747398Y-76685175D01*
X148689089Y-76597911D01*
X148689086Y-76597907D01*
X148577592Y-76486413D01*
X148577588Y-76486410D01*
X148446485Y-76398809D01*
X148446472Y-76398802D01*
X148300801Y-76338464D01*
X148300791Y-76338461D01*
X148145542Y-76307580D01*
X148083631Y-76275195D01*
X148049057Y-76214479D01*
X148048117Y-76210154D01*
X148020717Y-76072409D01*
X148016837Y-76052903D01*
X148016835Y-76052898D01*
X147956497Y-75907227D01*
X147956490Y-75907214D01*
X147868889Y-75776111D01*
X147868886Y-75776107D01*
X147757392Y-75664613D01*
X147757388Y-75664610D01*
X147626285Y-75577009D01*
X147626272Y-75577002D01*
X147480601Y-75516664D01*
X147480589Y-75516661D01*
X147325945Y-75485900D01*
X147325942Y-75485900D01*
X147168258Y-75485900D01*
X147168255Y-75485900D01*
X147013610Y-75516661D01*
X147013598Y-75516664D01*
X146867927Y-75577002D01*
X146867914Y-75577009D01*
X146736811Y-75664610D01*
X146736807Y-75664613D01*
X146625313Y-75776107D01*
X146625310Y-75776111D01*
X146537709Y-75907214D01*
X146537702Y-75907227D01*
X146477364Y-76052898D01*
X146477361Y-76052910D01*
X146446600Y-76207553D01*
X146446600Y-76365246D01*
X146477361Y-76519889D01*
X146477364Y-76519901D01*
X146537702Y-76665572D01*
X146537709Y-76665585D01*
X146625802Y-76797424D01*
X146646680Y-76864101D01*
X146646700Y-76866315D01*
X146646700Y-77377030D01*
X146646699Y-77377048D01*
X146646699Y-77542754D01*
X146646698Y-77542754D01*
X146687623Y-77695486D01*
X146704035Y-77723910D01*
X146704036Y-77723915D01*
X146704038Y-77723915D01*
X146766679Y-77832414D01*
X146766681Y-77832417D01*
X146885549Y-77951285D01*
X146885555Y-77951290D01*
X148057754Y-79123489D01*
X148091239Y-79184812D01*
X148086255Y-79254504D01*
X148044383Y-79310437D01*
X147978919Y-79334854D01*
X147928767Y-79326728D01*
X147928524Y-79327531D01*
X147922700Y-79325764D01*
X147922697Y-79325763D01*
X147922692Y-79325762D01*
X147922689Y-79325761D01*
X147768045Y-79295000D01*
X147768042Y-79295000D01*
X147610358Y-79295000D01*
X147610355Y-79295000D01*
X147455710Y-79325761D01*
X147455698Y-79325764D01*
X147310027Y-79386102D01*
X147310014Y-79386109D01*
X147178911Y-79473710D01*
X147178907Y-79473713D01*
X147067413Y-79585207D01*
X147067410Y-79585211D01*
X146979809Y-79716314D01*
X146979802Y-79716327D01*
X146919464Y-79861998D01*
X146919461Y-79862010D01*
X146888700Y-80016653D01*
X146888700Y-80174346D01*
X146919461Y-80328989D01*
X146919464Y-80329001D01*
X146979802Y-80474672D01*
X146979809Y-80474685D01*
X147067410Y-80605788D01*
X147067413Y-80605792D01*
X147178907Y-80717286D01*
X147178911Y-80717289D01*
X147310014Y-80804890D01*
X147310027Y-80804897D01*
X147421167Y-80850932D01*
X147455703Y-80865237D01*
X147610353Y-80895999D01*
X147610356Y-80896000D01*
X147610358Y-80896000D01*
X147768044Y-80896000D01*
X147768045Y-80895999D01*
X147922697Y-80865237D01*
X148068379Y-80804894D01*
X148086828Y-80792567D01*
X148200075Y-80716898D01*
X148266753Y-80696020D01*
X148268966Y-80696000D01*
X148856361Y-80696000D01*
X148923400Y-80715685D01*
X148969155Y-80768489D01*
X148974878Y-80786704D01*
X148975634Y-80786485D01*
X149023254Y-80950393D01*
X149023255Y-80950396D01*
X149023256Y-80950398D01*
X149055963Y-81005703D01*
X149106917Y-81091862D01*
X149111702Y-81098031D01*
X149109256Y-81099927D01*
X149135857Y-81148642D01*
X149130873Y-81218334D01*
X149110069Y-81250703D01*
X149111702Y-81251969D01*
X149106917Y-81258137D01*
X149023255Y-81399603D01*
X149023254Y-81399606D01*
X148977402Y-81557426D01*
X148977401Y-81557432D01*
X148974500Y-81594298D01*
X148974500Y-81720102D01*
X148954815Y-81787141D01*
X148938181Y-81807783D01*
X148599803Y-82146160D01*
X148599793Y-82146170D01*
X148597586Y-82148378D01*
X148597584Y-82148380D01*
X148485780Y-82260184D01*
X148472953Y-82282402D01*
X148406723Y-82397115D01*
X148365799Y-82549843D01*
X148365799Y-82549845D01*
X148365799Y-82717946D01*
X148365800Y-82717959D01*
X148365800Y-85135602D01*
X148346115Y-85202641D01*
X148293311Y-85248396D01*
X148224153Y-85258340D01*
X148160597Y-85229315D01*
X148154119Y-85223283D01*
X143109190Y-80178355D01*
X143109188Y-80178352D01*
X142990317Y-80059481D01*
X142990309Y-80059475D01*
X142878647Y-79995008D01*
X142878645Y-79995007D01*
X142866742Y-79988135D01*
X142853385Y-79980423D01*
X142703063Y-79940143D01*
X142700651Y-79939390D01*
X142673621Y-79921352D01*
X142645880Y-79904443D01*
X142644727Y-79902070D01*
X142642534Y-79900607D01*
X142629547Y-79870820D01*
X142615351Y-79841596D01*
X142615664Y-79838977D01*
X142614610Y-79836560D01*
X142619789Y-79804477D01*
X142623646Y-79772220D01*
X142625627Y-79768313D01*
X142625745Y-79767583D01*
X142626325Y-79766935D01*
X142630898Y-79757918D01*
X142676744Y-79680398D01*
X142722598Y-79522569D01*
X142725500Y-79485694D01*
X142725500Y-79054306D01*
X142722598Y-79017431D01*
X142717759Y-79000776D01*
X142676745Y-78859606D01*
X142676744Y-78859603D01*
X142676744Y-78859602D01*
X142593081Y-78718135D01*
X142593078Y-78718132D01*
X142588298Y-78711969D01*
X142590750Y-78710066D01*
X142564155Y-78661421D01*
X142569104Y-78591726D01*
X142589940Y-78559304D01*
X142588298Y-78558031D01*
X142593075Y-78551870D01*
X142593081Y-78551865D01*
X142676744Y-78410398D01*
X142722598Y-78252569D01*
X142725500Y-78215694D01*
X142725500Y-77784306D01*
X142722598Y-77747431D01*
X142718198Y-77732287D01*
X142676745Y-77589606D01*
X142676744Y-77589603D01*
X142676744Y-77589602D01*
X142593081Y-77448135D01*
X142593078Y-77448132D01*
X142588298Y-77441969D01*
X142590750Y-77440066D01*
X142564155Y-77391421D01*
X142569104Y-77321726D01*
X142589940Y-77289304D01*
X142588298Y-77288031D01*
X142593075Y-77281870D01*
X142593081Y-77281865D01*
X142676744Y-77140398D01*
X142720696Y-76989116D01*
X142722597Y-76982573D01*
X142722598Y-76982567D01*
X142725499Y-76945701D01*
X142725500Y-76945694D01*
X142725500Y-76514306D01*
X142722598Y-76477431D01*
X142720133Y-76468947D01*
X142680906Y-76333928D01*
X142676744Y-76319602D01*
X142593081Y-76178135D01*
X142593078Y-76178132D01*
X142588298Y-76171969D01*
X142590750Y-76170066D01*
X142564155Y-76121421D01*
X142569104Y-76051726D01*
X142589940Y-76019304D01*
X142588298Y-76018031D01*
X142593075Y-76011870D01*
X142593081Y-76011865D01*
X142676744Y-75870398D01*
X142722598Y-75712569D01*
X142725500Y-75675694D01*
X142725500Y-75550697D01*
X142745185Y-75483658D01*
X142761819Y-75463016D01*
X142905335Y-75319500D01*
X143222920Y-75001916D01*
X143301977Y-74864984D01*
X143342901Y-74712257D01*
X143342901Y-74554142D01*
X143342901Y-74546547D01*
X143342900Y-74546529D01*
X143342900Y-73939998D01*
X148977704Y-73939998D01*
X148977705Y-73940000D01*
X150250000Y-73940000D01*
X150750000Y-73940000D01*
X152022295Y-73940000D01*
X152022295Y-73939998D01*
X152022100Y-73937513D01*
X151976281Y-73779801D01*
X151892685Y-73638447D01*
X151892678Y-73638438D01*
X151776561Y-73522321D01*
X151776552Y-73522314D01*
X151635196Y-73438717D01*
X151635193Y-73438716D01*
X151477495Y-73392900D01*
X151477489Y-73392899D01*
X151440649Y-73390000D01*
X150750000Y-73390000D01*
X150750000Y-73940000D01*
X150250000Y-73940000D01*
X150250000Y-73390000D01*
X149559350Y-73390000D01*
X149522510Y-73392899D01*
X149522504Y-73392900D01*
X149364806Y-73438716D01*
X149364803Y-73438717D01*
X149223447Y-73522314D01*
X149223438Y-73522321D01*
X149107321Y-73638438D01*
X149107314Y-73638447D01*
X149023718Y-73779801D01*
X148977899Y-73937513D01*
X148977704Y-73939998D01*
X143342900Y-73939998D01*
X143342900Y-73049759D01*
X143342901Y-73049746D01*
X143342901Y-72881645D01*
X143342901Y-72881643D01*
X143301977Y-72728915D01*
X143256127Y-72649501D01*
X143222920Y-72591984D01*
X143111116Y-72480180D01*
X143106785Y-72475849D01*
X143106774Y-72475839D01*
X142213115Y-71582180D01*
X142179630Y-71520857D01*
X142184614Y-71451165D01*
X142226486Y-71395232D01*
X142291950Y-71370815D01*
X142300796Y-71370499D01*
X143357871Y-71370499D01*
X143357872Y-71370499D01*
X143417483Y-71364091D01*
X143552331Y-71313796D01*
X143667546Y-71227546D01*
X143753796Y-71112331D01*
X143804091Y-70977483D01*
X143810500Y-70917873D01*
X143810499Y-70893979D01*
X143813330Y-70880963D01*
X143823940Y-70861525D01*
X143830179Y-70840275D01*
X143846803Y-70819643D01*
X143846808Y-70819636D01*
X143846811Y-70819634D01*
X143846818Y-70819626D01*
X144517036Y-70149407D01*
X144534075Y-70212993D01*
X144599901Y-70327007D01*
X144692993Y-70420099D01*
X144807007Y-70485925D01*
X144870590Y-70502962D01*
X144238282Y-71135269D01*
X144238282Y-71135270D01*
X144292449Y-71174624D01*
X144481782Y-71271095D01*
X144683870Y-71336757D01*
X144893754Y-71370000D01*
X145106246Y-71370000D01*
X145316127Y-71336757D01*
X145316130Y-71336757D01*
X145518217Y-71271095D01*
X145707554Y-71174622D01*
X145761716Y-71135270D01*
X145761717Y-71135270D01*
X145129408Y-70502962D01*
X145192993Y-70485925D01*
X145307007Y-70420099D01*
X145400099Y-70327007D01*
X145465925Y-70212993D01*
X145482962Y-70149409D01*
X146115270Y-70781717D01*
X146115270Y-70781716D01*
X146154622Y-70727555D01*
X146159232Y-70718507D01*
X146207205Y-70667709D01*
X146275025Y-70650912D01*
X146341161Y-70673447D01*
X146380204Y-70718504D01*
X146384949Y-70727817D01*
X146509890Y-70899786D01*
X146660213Y-71050109D01*
X146832179Y-71175048D01*
X146832181Y-71175049D01*
X146832184Y-71175051D01*
X147021588Y-71271557D01*
X147223757Y-71337246D01*
X147433713Y-71370500D01*
X147433714Y-71370500D01*
X147646286Y-71370500D01*
X147646287Y-71370500D01*
X147856243Y-71337246D01*
X148058412Y-71271557D01*
X148247816Y-71175051D01*
X148334138Y-71112335D01*
X148419786Y-71050109D01*
X148419788Y-71050106D01*
X148419792Y-71050104D01*
X148570104Y-70899792D01*
X148570106Y-70899788D01*
X148570109Y-70899786D01*
X148695048Y-70727820D01*
X148695050Y-70727817D01*
X148695051Y-70727816D01*
X148791557Y-70538412D01*
X148857246Y-70336243D01*
X148890500Y-70126287D01*
X148890500Y-69913713D01*
X148857246Y-69703757D01*
X148791557Y-69501588D01*
X148762965Y-69445472D01*
X148751767Y-69423495D01*
X148738871Y-69354825D01*
X148765148Y-69290085D01*
X148822254Y-69249828D01*
X148862252Y-69243200D01*
X149816571Y-69243200D01*
X149883610Y-69262885D01*
X149929365Y-69315689D01*
X149939309Y-69384847D01*
X149934502Y-69405518D01*
X149921523Y-69445461D01*
X149921523Y-69445464D01*
X149912634Y-69501585D01*
X149889500Y-69647648D01*
X149889500Y-69852352D01*
X149893878Y-69879995D01*
X149921522Y-70054534D01*
X149984781Y-70249223D01*
X150024415Y-70327007D01*
X150068780Y-70414079D01*
X150077715Y-70431613D01*
X150198028Y-70597213D01*
X150342786Y-70741971D01*
X150478093Y-70840275D01*
X150508390Y-70862287D01*
X150624607Y-70921503D01*
X150690776Y-70955218D01*
X150690778Y-70955218D01*
X150690781Y-70955220D01*
X150795137Y-70989127D01*
X150885465Y-71018477D01*
X150958875Y-71030104D01*
X151087648Y-71050500D01*
X151087649Y-71050500D01*
X151292351Y-71050500D01*
X151292352Y-71050500D01*
X151494534Y-71018477D01*
X151689219Y-70955220D01*
X151871610Y-70862287D01*
X151980268Y-70783343D01*
X152037213Y-70741971D01*
X152037215Y-70741968D01*
X152037219Y-70741966D01*
X152181966Y-70597219D01*
X152181968Y-70597215D01*
X152181971Y-70597213D01*
X152268172Y-70478565D01*
X152302287Y-70431610D01*
X152395220Y-70249219D01*
X152458477Y-70054534D01*
X152490500Y-69852352D01*
X152490500Y-69647648D01*
X152467366Y-69501585D01*
X152458477Y-69445465D01*
X152415171Y-69312184D01*
X152395220Y-69250781D01*
X152395218Y-69250778D01*
X152395218Y-69250776D01*
X152353038Y-69167995D01*
X152340142Y-69099326D01*
X152366418Y-69034586D01*
X152423524Y-68994328D01*
X152463523Y-68987700D01*
X157536477Y-68987700D01*
X157603516Y-69007385D01*
X157649271Y-69060189D01*
X157659215Y-69129347D01*
X157646962Y-69167995D01*
X157604781Y-69250776D01*
X157541522Y-69445465D01*
X157514181Y-69618092D01*
X157509500Y-69647648D01*
X157509500Y-69852352D01*
X157513878Y-69879995D01*
X157541522Y-70054534D01*
X157604781Y-70249223D01*
X157644415Y-70327007D01*
X157688780Y-70414079D01*
X157697715Y-70431613D01*
X157818028Y-70597213D01*
X157962786Y-70741971D01*
X158098093Y-70840275D01*
X158128390Y-70862287D01*
X158244607Y-70921503D01*
X158310776Y-70955218D01*
X158310778Y-70955218D01*
X158310781Y-70955220D01*
X158415137Y-70989127D01*
X158505465Y-71018477D01*
X158578875Y-71030104D01*
X158707648Y-71050500D01*
X158707649Y-71050500D01*
X158912351Y-71050500D01*
X158912352Y-71050500D01*
X159114534Y-71018477D01*
X159309219Y-70955220D01*
X159491610Y-70862287D01*
X159600268Y-70783343D01*
X159657213Y-70741971D01*
X159657215Y-70741968D01*
X159657219Y-70741966D01*
X159801966Y-70597219D01*
X159899682Y-70462723D01*
X159955011Y-70420058D01*
X160024624Y-70414079D01*
X160086420Y-70446684D01*
X160100315Y-70462720D01*
X160141932Y-70520000D01*
X160198034Y-70597219D01*
X160342786Y-70741971D01*
X160478093Y-70840275D01*
X160508390Y-70862287D01*
X160624607Y-70921503D01*
X160690776Y-70955218D01*
X160690778Y-70955218D01*
X160690781Y-70955220D01*
X160795137Y-70989127D01*
X160885465Y-71018477D01*
X160958875Y-71030104D01*
X161087648Y-71050500D01*
X161087649Y-71050500D01*
X161292351Y-71050500D01*
X161292352Y-71050500D01*
X161494534Y-71018477D01*
X161689219Y-70955220D01*
X161871610Y-70862287D01*
X161980268Y-70783343D01*
X162037213Y-70741971D01*
X162037215Y-70741968D01*
X162037219Y-70741966D01*
X162181966Y-70597219D01*
X162181968Y-70597215D01*
X162181971Y-70597213D01*
X162268172Y-70478565D01*
X162302287Y-70431610D01*
X162395220Y-70249219D01*
X162458477Y-70054534D01*
X162490500Y-69852352D01*
X162490500Y-69647648D01*
X162467366Y-69501585D01*
X162458478Y-69445472D01*
X162458477Y-69445471D01*
X162458477Y-69445466D01*
X162453825Y-69431151D01*
X162451832Y-69361312D01*
X162484075Y-69305158D01*
X163154916Y-68634319D01*
X163216239Y-68600834D01*
X163242597Y-68598000D01*
X167823453Y-68598000D01*
X167890492Y-68617685D01*
X167936247Y-68670489D01*
X167946191Y-68739647D01*
X167917166Y-68803203D01*
X167911134Y-68809681D01*
X167818032Y-68902782D01*
X167818028Y-68902786D01*
X167697715Y-69068386D01*
X167604781Y-69250776D01*
X167541522Y-69445465D01*
X167514181Y-69618092D01*
X167509500Y-69647648D01*
X167509500Y-69852352D01*
X167513878Y-69879995D01*
X167541522Y-70054534D01*
X167604781Y-70249223D01*
X167644415Y-70327007D01*
X167688780Y-70414079D01*
X167697715Y-70431613D01*
X167818028Y-70597213D01*
X167962786Y-70741971D01*
X168098093Y-70840275D01*
X168128390Y-70862287D01*
X168244607Y-70921503D01*
X168310776Y-70955218D01*
X168310778Y-70955218D01*
X168310781Y-70955220D01*
X168415137Y-70989127D01*
X168505465Y-71018477D01*
X168578875Y-71030104D01*
X168707648Y-71050500D01*
X168707649Y-71050500D01*
X168912351Y-71050500D01*
X168912352Y-71050500D01*
X169114534Y-71018477D01*
X169309219Y-70955220D01*
X169491610Y-70862287D01*
X169600268Y-70783343D01*
X169657213Y-70741971D01*
X169657215Y-70741968D01*
X169657219Y-70741966D01*
X169801966Y-70597219D01*
X169801968Y-70597215D01*
X169801971Y-70597213D01*
X169888172Y-70478565D01*
X169922287Y-70431610D01*
X170015220Y-70249219D01*
X170078477Y-70054534D01*
X170110500Y-69852352D01*
X170110500Y-69647648D01*
X170087366Y-69501585D01*
X170078477Y-69445465D01*
X170035171Y-69312184D01*
X170015220Y-69250781D01*
X170015218Y-69250778D01*
X170015218Y-69250776D01*
X169973038Y-69167995D01*
X169922287Y-69068390D01*
X169877965Y-69007385D01*
X169801971Y-68902786D01*
X169708866Y-68809681D01*
X169675381Y-68748358D01*
X169680365Y-68678666D01*
X169722237Y-68622733D01*
X169787701Y-68598316D01*
X169796547Y-68598000D01*
X171760351Y-68598000D01*
X171827390Y-68617685D01*
X171873145Y-68670489D01*
X171883089Y-68739647D01*
X171854064Y-68803203D01*
X171816646Y-68832485D01*
X171792180Y-68844951D01*
X171620213Y-68969890D01*
X171469890Y-69120213D01*
X171344951Y-69292179D01*
X171248444Y-69481585D01*
X171182753Y-69683760D01*
X171149500Y-69893713D01*
X171149500Y-70106286D01*
X171180488Y-70301941D01*
X171182754Y-70316243D01*
X171237887Y-70485925D01*
X171248444Y-70518414D01*
X171344951Y-70707820D01*
X171469890Y-70879786D01*
X171620213Y-71030109D01*
X171792179Y-71155048D01*
X171792181Y-71155049D01*
X171792184Y-71155051D01*
X171981588Y-71251557D01*
X172183757Y-71317246D01*
X172393713Y-71350500D01*
X172393714Y-71350500D01*
X172606286Y-71350500D01*
X172606287Y-71350500D01*
X172816243Y-71317246D01*
X173018412Y-71251557D01*
X173207816Y-71155051D01*
X173266610Y-71112335D01*
X173379786Y-71030109D01*
X173379788Y-71030106D01*
X173379792Y-71030104D01*
X173530104Y-70879792D01*
X173530106Y-70879788D01*
X173530109Y-70879786D01*
X173600178Y-70783343D01*
X173655051Y-70707816D01*
X173751557Y-70518412D01*
X173817246Y-70316243D01*
X173850500Y-70106287D01*
X173850500Y-69893713D01*
X173817246Y-69683757D01*
X173751557Y-69481588D01*
X173655051Y-69292184D01*
X173655049Y-69292181D01*
X173655048Y-69292179D01*
X173530109Y-69120213D01*
X173379786Y-68969890D01*
X173207819Y-68844951D01*
X173207818Y-68844950D01*
X173207816Y-68844949D01*
X173183354Y-68832485D01*
X173132558Y-68784510D01*
X173115763Y-68716689D01*
X173138301Y-68650554D01*
X173193016Y-68607103D01*
X173239649Y-68598000D01*
X175573753Y-68598000D01*
X175640792Y-68617685D01*
X175686547Y-68670489D01*
X175696491Y-68739647D01*
X175684238Y-68778295D01*
X175609897Y-68924197D01*
X175536934Y-69148752D01*
X175500000Y-69381947D01*
X175500000Y-69618052D01*
X175536934Y-69851247D01*
X175609897Y-70075802D01*
X175717087Y-70286174D01*
X175777338Y-70369104D01*
X175777340Y-70369105D01*
X176476212Y-69670233D01*
X176487482Y-69712292D01*
X176559890Y-69837708D01*
X176662292Y-69940110D01*
X176787708Y-70012518D01*
X176829765Y-70023787D01*
X176130893Y-70722658D01*
X176213828Y-70782914D01*
X176424197Y-70890102D01*
X176648752Y-70963065D01*
X176648751Y-70963065D01*
X176881948Y-71000000D01*
X177118052Y-71000000D01*
X177351247Y-70963065D01*
X177575802Y-70890102D01*
X177786163Y-70782918D01*
X177786169Y-70782914D01*
X177869104Y-70722658D01*
X177869105Y-70722658D01*
X177170233Y-70023787D01*
X177212292Y-70012518D01*
X177337708Y-69940110D01*
X177440110Y-69837708D01*
X177512518Y-69712292D01*
X177523787Y-69670234D01*
X178222658Y-70369105D01*
X178222658Y-70369104D01*
X178282914Y-70286169D01*
X178282918Y-70286163D01*
X178390102Y-70075802D01*
X178463065Y-69851247D01*
X178500000Y-69618052D01*
X178500000Y-69381947D01*
X178463065Y-69148752D01*
X178390102Y-68924197D01*
X178315762Y-68778295D01*
X178302866Y-68709626D01*
X178329142Y-68644885D01*
X178386249Y-68604628D01*
X178426247Y-68598000D01*
X180073192Y-68598000D01*
X180140231Y-68617685D01*
X180185986Y-68670489D01*
X180195930Y-68739647D01*
X180183677Y-68778292D01*
X180166273Y-68812452D01*
X180109433Y-68924003D01*
X180036446Y-69148631D01*
X179999500Y-69381902D01*
X179999500Y-69618097D01*
X180036446Y-69851368D01*
X180109433Y-70075996D01*
X180206696Y-70266884D01*
X180216657Y-70286433D01*
X180355483Y-70477510D01*
X180522490Y-70644517D01*
X180713567Y-70783343D01*
X180784792Y-70819634D01*
X180924003Y-70890566D01*
X180924005Y-70890566D01*
X180924008Y-70890568D01*
X181008044Y-70917873D01*
X181148631Y-70963553D01*
X181381903Y-71000500D01*
X181381908Y-71000500D01*
X181618097Y-71000500D01*
X181851368Y-70963553D01*
X181877020Y-70955218D01*
X182075992Y-70890568D01*
X182286433Y-70783343D01*
X182477510Y-70644517D01*
X182644517Y-70477510D01*
X182783343Y-70286433D01*
X182890568Y-70075992D01*
X182963553Y-69851368D01*
X182967411Y-69827007D01*
X183000500Y-69618097D01*
X183000500Y-69381902D01*
X182963553Y-69148631D01*
X182897966Y-68946777D01*
X182890568Y-68924008D01*
X182890566Y-68924005D01*
X182890566Y-68924003D01*
X182833727Y-68812452D01*
X182816322Y-68778293D01*
X182803427Y-68709626D01*
X182829703Y-68644886D01*
X182886809Y-68604628D01*
X182926808Y-68598000D01*
X183601775Y-68598000D01*
X183668814Y-68617685D01*
X183714569Y-68670489D01*
X183724513Y-68739647D01*
X183724248Y-68741398D01*
X183699500Y-68897648D01*
X183699500Y-69102351D01*
X183731522Y-69304534D01*
X183794781Y-69499223D01*
X183855349Y-69618092D01*
X183870408Y-69647648D01*
X183887715Y-69681613D01*
X184008028Y-69847213D01*
X184152786Y-69991971D01*
X184268439Y-70075996D01*
X184318390Y-70112287D01*
X184434607Y-70171503D01*
X184500776Y-70205218D01*
X184500778Y-70205218D01*
X184500781Y-70205220D01*
X184605137Y-70239127D01*
X184695465Y-70268477D01*
X184723492Y-70272916D01*
X184897648Y-70300500D01*
X184897649Y-70300500D01*
X185102351Y-70300500D01*
X185102352Y-70300500D01*
X185304534Y-70268477D01*
X185499219Y-70205220D01*
X185681610Y-70112287D01*
X185808635Y-70019999D01*
X185847213Y-69991971D01*
X185847215Y-69991968D01*
X185847219Y-69991966D01*
X185991966Y-69847219D01*
X185991968Y-69847215D01*
X185991971Y-69847213D01*
X186096196Y-69703757D01*
X186112287Y-69681610D01*
X186205220Y-69499219D01*
X186243324Y-69381947D01*
X187000000Y-69381947D01*
X187000000Y-69618052D01*
X187036934Y-69851247D01*
X187109897Y-70075802D01*
X187217087Y-70286174D01*
X187277338Y-70369104D01*
X187277340Y-70369105D01*
X187976212Y-69670233D01*
X187987482Y-69712292D01*
X188059890Y-69837708D01*
X188162292Y-69940110D01*
X188287708Y-70012518D01*
X188329765Y-70023787D01*
X187630893Y-70722658D01*
X187713828Y-70782914D01*
X187924197Y-70890102D01*
X188148752Y-70963065D01*
X188148751Y-70963065D01*
X188381948Y-71000000D01*
X188618052Y-71000000D01*
X188851247Y-70963065D01*
X189075802Y-70890102D01*
X189286163Y-70782918D01*
X189286169Y-70782914D01*
X189369104Y-70722658D01*
X189369105Y-70722658D01*
X188670233Y-70023787D01*
X188712292Y-70012518D01*
X188837708Y-69940110D01*
X188940110Y-69837708D01*
X189012518Y-69712292D01*
X189023787Y-69670233D01*
X189722658Y-70369105D01*
X189722658Y-70369104D01*
X189782914Y-70286169D01*
X189782918Y-70286163D01*
X189890102Y-70075802D01*
X189963065Y-69851247D01*
X190000000Y-69618052D01*
X190000000Y-69381947D01*
X189999993Y-69381902D01*
X191499500Y-69381902D01*
X191499500Y-69618097D01*
X191536446Y-69851368D01*
X191609433Y-70075996D01*
X191706696Y-70266884D01*
X191716657Y-70286433D01*
X191855483Y-70477510D01*
X192022490Y-70644517D01*
X192213567Y-70783343D01*
X192284792Y-70819634D01*
X192424003Y-70890566D01*
X192424005Y-70890566D01*
X192424008Y-70890568D01*
X192508044Y-70917873D01*
X192648631Y-70963553D01*
X192881903Y-71000500D01*
X192881908Y-71000500D01*
X193118097Y-71000500D01*
X193351368Y-70963553D01*
X193377020Y-70955218D01*
X193575992Y-70890568D01*
X193786433Y-70783343D01*
X193977510Y-70644517D01*
X194144517Y-70477510D01*
X194283343Y-70286433D01*
X194390568Y-70075992D01*
X194463553Y-69851368D01*
X194467411Y-69827007D01*
X194500500Y-69618097D01*
X194500500Y-69381902D01*
X194463553Y-69148631D01*
X194397966Y-68946777D01*
X194390568Y-68924008D01*
X194390566Y-68924005D01*
X194390566Y-68924003D01*
X194333727Y-68812452D01*
X194283343Y-68713567D01*
X194144517Y-68522490D01*
X193977510Y-68355483D01*
X193786433Y-68216657D01*
X193575996Y-68109433D01*
X193351368Y-68036446D01*
X193118097Y-67999500D01*
X193118092Y-67999500D01*
X192881908Y-67999500D01*
X192881903Y-67999500D01*
X192648631Y-68036446D01*
X192424003Y-68109433D01*
X192213566Y-68216657D01*
X192130047Y-68277338D01*
X192022490Y-68355483D01*
X192022488Y-68355485D01*
X192022487Y-68355485D01*
X191855485Y-68522487D01*
X191855485Y-68522488D01*
X191855483Y-68522490D01*
X191809060Y-68586386D01*
X191716657Y-68713566D01*
X191609433Y-68924003D01*
X191536446Y-69148631D01*
X191499500Y-69381902D01*
X189999993Y-69381902D01*
X189963065Y-69148752D01*
X189890102Y-68924197D01*
X189782914Y-68713828D01*
X189722658Y-68630894D01*
X189722658Y-68630893D01*
X189023787Y-69329765D01*
X189012518Y-69287708D01*
X188940110Y-69162292D01*
X188837708Y-69059890D01*
X188712292Y-68987482D01*
X188670234Y-68976212D01*
X189369105Y-68277340D01*
X189369104Y-68277338D01*
X189286174Y-68217087D01*
X189075802Y-68109897D01*
X188851247Y-68036934D01*
X188851248Y-68036934D01*
X188618052Y-68000000D01*
X188381948Y-68000000D01*
X188148752Y-68036934D01*
X187924197Y-68109897D01*
X187713830Y-68217084D01*
X187630894Y-68277340D01*
X188329766Y-68976212D01*
X188287708Y-68987482D01*
X188162292Y-69059890D01*
X188059890Y-69162292D01*
X187987482Y-69287708D01*
X187976212Y-69329766D01*
X187277340Y-68630894D01*
X187217084Y-68713830D01*
X187109897Y-68924197D01*
X187036934Y-69148752D01*
X187000000Y-69381947D01*
X186243324Y-69381947D01*
X186250029Y-69361312D01*
X186257358Y-69338756D01*
X186257358Y-69338755D01*
X186268476Y-69304538D01*
X186268476Y-69304537D01*
X186268477Y-69304534D01*
X186300500Y-69102352D01*
X186300500Y-68897648D01*
X186294944Y-68862572D01*
X186268477Y-68695465D01*
X186233035Y-68586386D01*
X186205220Y-68500781D01*
X186205218Y-68500778D01*
X186205218Y-68500776D01*
X186150025Y-68392455D01*
X186112287Y-68318390D01*
X186112285Y-68318387D01*
X186112284Y-68318385D01*
X185991971Y-68152786D01*
X185847213Y-68008028D01*
X185681613Y-67887715D01*
X185681612Y-67887714D01*
X185681610Y-67887713D01*
X185620465Y-67856558D01*
X185499223Y-67794781D01*
X185338106Y-67742431D01*
X185280431Y-67702993D01*
X185253233Y-67638634D01*
X185265148Y-67569788D01*
X185312392Y-67518312D01*
X185376425Y-67500500D01*
X194625500Y-67500500D01*
X194692539Y-67520185D01*
G37*
%TD.AperFunction*%
%TA.AperFunction,Conductor*%
G36*
X182973467Y-81432449D02*
G01*
X182986738Y-81431465D01*
X183006341Y-81442102D01*
X183027738Y-81448385D01*
X183036451Y-81458440D01*
X183048149Y-81464788D01*
X183058889Y-81484336D01*
X183073493Y-81501189D01*
X183075386Y-81514360D01*
X183081795Y-81526023D01*
X183084406Y-81561220D01*
X183083580Y-81573198D01*
X183067599Y-81632843D01*
X183067599Y-81790957D01*
X183067600Y-81790960D01*
X183067600Y-81805224D01*
X183067600Y-82756057D01*
X183047915Y-82823096D01*
X182995111Y-82868851D01*
X182925953Y-82878795D01*
X182862397Y-82849770D01*
X182833115Y-82812352D01*
X182782914Y-82713828D01*
X182722658Y-82630894D01*
X182722658Y-82630893D01*
X182023787Y-83329764D01*
X182012518Y-83287708D01*
X181940110Y-83162292D01*
X181837708Y-83059890D01*
X181712292Y-82987482D01*
X181670234Y-82976212D01*
X182369105Y-82277340D01*
X182369104Y-82277338D01*
X182286174Y-82217087D01*
X182075802Y-82109897D01*
X181851247Y-82036934D01*
X181851248Y-82036934D01*
X181618052Y-82000000D01*
X181381948Y-82000000D01*
X181148752Y-82036934D01*
X180924197Y-82109897D01*
X180713830Y-82217084D01*
X180630894Y-82277340D01*
X181329766Y-82976212D01*
X181287708Y-82987482D01*
X181162292Y-83059890D01*
X181059890Y-83162292D01*
X180987482Y-83287708D01*
X180976212Y-83329766D01*
X180277340Y-82630894D01*
X180217084Y-82713830D01*
X180109897Y-82924197D01*
X180036934Y-83148752D01*
X180000000Y-83381947D01*
X180000000Y-83618052D01*
X180036934Y-83851247D01*
X180109897Y-84075802D01*
X180207421Y-84267205D01*
X180220317Y-84335875D01*
X180194040Y-84400615D01*
X180136934Y-84440872D01*
X180096936Y-84447500D01*
X178403625Y-84447500D01*
X178336586Y-84427815D01*
X178290831Y-84375011D01*
X178280887Y-84305853D01*
X178293140Y-84267205D01*
X178337319Y-84180500D01*
X178390568Y-84075992D01*
X178463553Y-83851368D01*
X178468123Y-83822515D01*
X178500500Y-83618097D01*
X178500500Y-83381902D01*
X178463553Y-83148631D01*
X178417808Y-83007844D01*
X178390568Y-82924008D01*
X178390566Y-82924005D01*
X178390566Y-82924003D01*
X178315994Y-82777648D01*
X178283343Y-82713567D01*
X178144517Y-82522490D01*
X177977510Y-82355483D01*
X177786433Y-82216657D01*
X177575996Y-82109433D01*
X177351368Y-82036446D01*
X177118097Y-81999500D01*
X177118092Y-81999500D01*
X176881908Y-81999500D01*
X176881903Y-81999500D01*
X176648631Y-82036446D01*
X176424003Y-82109433D01*
X176213566Y-82216657D01*
X176153657Y-82260184D01*
X176022490Y-82355483D01*
X176022488Y-82355485D01*
X176022487Y-82355485D01*
X175855485Y-82522487D01*
X175855485Y-82522488D01*
X175855483Y-82522490D01*
X175830405Y-82557007D01*
X175716657Y-82713566D01*
X175609433Y-82924003D01*
X175536446Y-83148631D01*
X175499500Y-83381902D01*
X175499500Y-83618097D01*
X175524197Y-83774029D01*
X175515242Y-83843323D01*
X175470246Y-83896775D01*
X175403495Y-83917414D01*
X175336181Y-83898689D01*
X175314043Y-83881108D01*
X174892490Y-83459555D01*
X174892488Y-83459552D01*
X174773617Y-83340681D01*
X174773616Y-83340680D01*
X174679738Y-83286480D01*
X174636685Y-83261623D01*
X174483957Y-83220699D01*
X174325843Y-83220699D01*
X174318247Y-83220699D01*
X174318231Y-83220700D01*
X169891243Y-83220700D01*
X169824204Y-83201015D01*
X169778449Y-83148211D01*
X169768505Y-83079053D01*
X169780758Y-83040405D01*
X169890102Y-82825802D01*
X169963065Y-82601247D01*
X170000000Y-82368052D01*
X170000000Y-82131947D01*
X169963065Y-81898752D01*
X169890102Y-81674197D01*
X169856881Y-81608996D01*
X169843985Y-81540327D01*
X169870261Y-81475586D01*
X169927368Y-81435329D01*
X169967366Y-81428701D01*
X170043353Y-81428701D01*
X170043369Y-81428700D01*
X182960699Y-81428700D01*
X182973467Y-81432449D01*
G37*
%TD.AperFunction*%
%TA.AperFunction,Conductor*%
G36*
X156618542Y-76246885D02*
G01*
X156639184Y-76263519D01*
X157990039Y-77614374D01*
X157990049Y-77614385D01*
X157994379Y-77618715D01*
X157994380Y-77618716D01*
X158106184Y-77730520D01*
X158183690Y-77775267D01*
X158192995Y-77780639D01*
X158192997Y-77780641D01*
X158231051Y-77802611D01*
X158243115Y-77809577D01*
X158395843Y-77850501D01*
X158395846Y-77850501D01*
X158561553Y-77850501D01*
X158561569Y-77850500D01*
X167045932Y-77850500D01*
X167112971Y-77870185D01*
X167156416Y-77918203D01*
X167216657Y-78036433D01*
X167355483Y-78227510D01*
X167522490Y-78394517D01*
X167713567Y-78533343D01*
X167812991Y-78584002D01*
X167924003Y-78640566D01*
X167924005Y-78640566D01*
X167924008Y-78640568D01*
X167988187Y-78661421D01*
X168148631Y-78713553D01*
X168381903Y-78750500D01*
X168381908Y-78750500D01*
X168618097Y-78750500D01*
X168851368Y-78713553D01*
X168905424Y-78695989D01*
X169075992Y-78640568D01*
X169286433Y-78533343D01*
X169477510Y-78394517D01*
X169644517Y-78227510D01*
X169783343Y-78036433D01*
X169890568Y-77825992D01*
X169963553Y-77601368D01*
X169972836Y-77542757D01*
X170000500Y-77368097D01*
X170000500Y-77131902D01*
X169963553Y-76898631D01*
X169922091Y-76771027D01*
X169890568Y-76674008D01*
X169890566Y-76674005D01*
X169890566Y-76674003D01*
X169827297Y-76549832D01*
X169805775Y-76507593D01*
X169792880Y-76438926D01*
X169819156Y-76374185D01*
X169876263Y-76333928D01*
X169916261Y-76327300D01*
X171306703Y-76327300D01*
X171373742Y-76346985D01*
X171394384Y-76363619D01*
X174085921Y-79055157D01*
X174119406Y-79116480D01*
X174116173Y-79181149D01*
X174111523Y-79195460D01*
X174111523Y-79195462D01*
X174079500Y-79397648D01*
X174079500Y-79602351D01*
X174111522Y-79804534D01*
X174174781Y-79999223D01*
X174199332Y-80047405D01*
X174212228Y-80116074D01*
X174185952Y-80180815D01*
X174128845Y-80221072D01*
X174088847Y-80227700D01*
X170233844Y-80227700D01*
X170218356Y-80223550D01*
X170204610Y-80224205D01*
X170171844Y-80211087D01*
X170108572Y-80174557D01*
X170075085Y-80155223D01*
X170055962Y-80150099D01*
X169922357Y-80114299D01*
X169764243Y-80114299D01*
X169756647Y-80114299D01*
X169756631Y-80114300D01*
X157782170Y-80114300D01*
X157782154Y-80114299D01*
X157774558Y-80114299D01*
X157616443Y-80114299D01*
X157559333Y-80129602D01*
X157463714Y-80155223D01*
X157463709Y-80155226D01*
X157326790Y-80234275D01*
X157326782Y-80234281D01*
X155655408Y-81905655D01*
X155594085Y-81939140D01*
X155524393Y-81934156D01*
X155468460Y-81892284D01*
X155449796Y-81856292D01*
X155422548Y-81772433D01*
X155390568Y-81674008D01*
X155283343Y-81463567D01*
X155144517Y-81272490D01*
X154977510Y-81105483D01*
X154921259Y-81064614D01*
X154878595Y-81009284D01*
X154873902Y-80977455D01*
X154129409Y-80232962D01*
X154192993Y-80215925D01*
X154307007Y-80150099D01*
X154400099Y-80057007D01*
X154465925Y-79942993D01*
X154482962Y-79879409D01*
X155222658Y-80619105D01*
X155222658Y-80619104D01*
X155282914Y-80536169D01*
X155282918Y-80536163D01*
X155390102Y-80325802D01*
X155463065Y-80101247D01*
X155500000Y-79868052D01*
X155500000Y-79631947D01*
X155463065Y-79398752D01*
X155390102Y-79174197D01*
X155282914Y-78963828D01*
X155213394Y-78868142D01*
X155189914Y-78802335D01*
X155205739Y-78734281D01*
X155239401Y-78695989D01*
X155242329Y-78693796D01*
X155242331Y-78693796D01*
X155357546Y-78607546D01*
X155443796Y-78492331D01*
X155494091Y-78357483D01*
X155500500Y-78297873D01*
X155500499Y-76351199D01*
X155520184Y-76284161D01*
X155572987Y-76238406D01*
X155624499Y-76227200D01*
X156551503Y-76227200D01*
X156618542Y-76246885D01*
G37*
%TD.AperFunction*%
%TD*%
M02*
