%TF.GenerationSoftware,KiCad,Pcbnew,9.0.4*%
%TF.CreationDate,2025-08-23T10:29:59+02:00*%
%TF.ProjectId,i2c_hid,6932635f-6869-4642-9e6b-696361645f70,rev?*%
%TF.SameCoordinates,Original*%
%TF.FileFunction,Soldermask,Top*%
%TF.FilePolarity,Negative*%
%FSLAX46Y46*%
G04 Gerber Fmt 4.6, Leading zero omitted, Abs format (unit mm)*
G04 Created by KiCad (PCBNEW 9.0.4) date 2025-08-23 10:29:59*
%MOMM*%
%LPD*%
G01*
G04 APERTURE LIST*
G04 Aperture macros list*
%AMRoundRect*
0 Rectangle with rounded corners*
0 $1 Rounding radius*
0 $2 $3 $4 $5 $6 $7 $8 $9 X,Y pos of 4 corners*
0 Add a 4 corners polygon primitive as box body*
4,1,4,$2,$3,$4,$5,$6,$7,$8,$9,$2,$3,0*
0 Add four circle primitives for the rounded corners*
1,1,$1+$1,$2,$3*
1,1,$1+$1,$4,$5*
1,1,$1+$1,$6,$7*
1,1,$1+$1,$8,$9*
0 Add four rect primitives between the rounded corners*
20,1,$1+$1,$2,$3,$4,$5,0*
20,1,$1+$1,$4,$5,$6,$7,0*
20,1,$1+$1,$6,$7,$8,$9,0*
20,1,$1+$1,$8,$9,$2,$3,0*%
G04 Aperture macros list end*
%ADD10C,2.200000*%
%ADD11R,2.000000X2.000000*%
%ADD12C,2.000000*%
%ADD13R,3.200000X2.000000*%
%ADD14R,1.000000X1.500000*%
%ADD15C,1.600000*%
%ADD16RoundRect,0.150000X-0.875000X-0.150000X0.875000X-0.150000X0.875000X0.150000X-0.875000X0.150000X0*%
%ADD17R,1.700000X1.700000*%
%ADD18C,1.700000*%
G04 APERTURE END LIST*
%TO.C,JP2*%
G36*
X137780000Y-73250000D02*
G01*
X137480000Y-73250000D01*
X137480000Y-71750000D01*
X137780000Y-71750000D01*
X137780000Y-73250000D01*
G37*
%TO.C,JP1*%
G36*
X137780000Y-70250000D02*
G01*
X137480000Y-70250000D01*
X137480000Y-68750000D01*
X137780000Y-68750000D01*
X137780000Y-70250000D01*
G37*
%TO.C,JP3*%
G36*
X137780000Y-76250000D02*
G01*
X137480000Y-76250000D01*
X137480000Y-74750000D01*
X137780000Y-74750000D01*
X137780000Y-76250000D01*
G37*
%TO.C,JP4*%
G36*
X137780000Y-79250000D02*
G01*
X137480000Y-79250000D01*
X137480000Y-77750000D01*
X137780000Y-77750000D01*
X137780000Y-79250000D01*
G37*
%TD*%
D10*
%TO.C,M2*%
X172500000Y-70000000D03*
%TD*%
%TO.C,REF\u002A\u002A*%
X172500000Y-86000000D03*
%TD*%
D11*
%TO.C,SW1*%
X154000000Y-77250000D03*
D12*
X154000000Y-82250000D03*
X154000000Y-79750000D03*
D13*
X161500000Y-74150000D03*
X161500000Y-85350000D03*
D12*
X168500000Y-82250000D03*
X168500000Y-77250000D03*
%TD*%
D14*
%TO.C,JP2*%
X138280000Y-72500000D03*
X136980000Y-72500000D03*
%TD*%
D15*
%TO.C,R9*%
X185000000Y-82880000D03*
X185000000Y-90500000D03*
%TD*%
%TO.C,R8*%
X185000000Y-69000000D03*
X185000000Y-76620000D03*
%TD*%
D16*
%TO.C,U1*%
X141200000Y-74190000D03*
X141200000Y-75460000D03*
X141200000Y-76730000D03*
X141200000Y-78000000D03*
X141200000Y-79270000D03*
X141200000Y-80540000D03*
X141200000Y-81810000D03*
X141200000Y-83080000D03*
X141200000Y-84350000D03*
X141200000Y-85620000D03*
X150500000Y-85620000D03*
X150500000Y-84350000D03*
X150500000Y-83080000D03*
X150500000Y-81810000D03*
X150500000Y-80540000D03*
X150500000Y-79270000D03*
X150500000Y-78000000D03*
X150500000Y-76730000D03*
X150500000Y-75460000D03*
X150500000Y-74190000D03*
%TD*%
D12*
%TO.C,SW6*%
X181500000Y-83500000D03*
X181500000Y-90000000D03*
X177000000Y-83500000D03*
X177000000Y-90000000D03*
%TD*%
D14*
%TO.C,JP1*%
X138280000Y-69500000D03*
X136980000Y-69500000D03*
%TD*%
D17*
%TO.C,J2*%
X137500000Y-82110000D03*
D18*
X137500000Y-84650000D03*
X137500000Y-87190000D03*
X137500000Y-89730000D03*
%TD*%
D15*
%TO.C,R10*%
X183000000Y-79500000D03*
X175380000Y-79500000D03*
%TD*%
%TO.C,R3*%
X161190000Y-69750000D03*
X168810000Y-69750000D03*
%TD*%
%TO.C,R2*%
X173310000Y-90000000D03*
X165690000Y-90000000D03*
%TD*%
%TO.C,R1*%
X151190000Y-69750000D03*
X158810000Y-69750000D03*
%TD*%
D14*
%TO.C,JP3*%
X138280000Y-75500000D03*
X136980000Y-75500000D03*
%TD*%
D15*
%TO.C,R7*%
X193500000Y-79500000D03*
X185880000Y-79500000D03*
%TD*%
D17*
%TO.C,J4*%
X154460000Y-89730000D03*
D18*
X157000000Y-89730000D03*
X159540000Y-89730000D03*
X162080000Y-89730000D03*
%TD*%
D17*
%TO.C,J3*%
X150040000Y-89730000D03*
D18*
X147500000Y-89730000D03*
X144960000Y-89730000D03*
X142420000Y-89730000D03*
%TD*%
D14*
%TO.C,JP4*%
X138280000Y-78500000D03*
X136980000Y-78500000D03*
%TD*%
D12*
%TO.C,SW4*%
X188500000Y-76000000D03*
X188500000Y-69500000D03*
X193000000Y-76000000D03*
X193000000Y-69500000D03*
%TD*%
%TO.C,SW5*%
X193000000Y-83500000D03*
X193000000Y-90000000D03*
X188500000Y-83500000D03*
X188500000Y-90000000D03*
%TD*%
D17*
%TO.C,J1*%
X142460000Y-70020000D03*
D18*
X145000000Y-70020000D03*
X147540000Y-70020000D03*
%TD*%
D12*
%TO.C,SW2*%
X177000000Y-76000000D03*
X177000000Y-69500000D03*
X181500000Y-76000000D03*
X181500000Y-69500000D03*
%TD*%
M02*
